<ttFont>
<head>
    <!-- Most of this table will be recalculated by the compiler -->
    <tableVersion value="1.0"/>
    <fontRevision value="1.0"/>
    <checkSumAdjustment value="0x9db9421d"/>
    <magicNumber value="0x5f0f3cf5"/>
    <flags value="00000000 00001011"/>
    <unitsPerEm value="1000"/>
    <created value="Fri Apr  8 21:24:23 2016"/>
    <modified value="Fri Apr  8 21:24:23 2016"/>
    <xMin value="-357"/>
    <yMin value="-340"/>
    <xMax value="1318"/>
    <yMax value="922"/>
    <macStyle value="00000000 00000001"/>
    <lowestRecPPEM value="8"/>
    <fontDirectionHint value="2"/>
    <indexToLocFormat value="0"/>
    <glyphDataFormat value="0"/>
  </head>
    <TTGlyph name=".notdef" xMin="45" yMin="0" xMax="445" yMax="660">
      <contour>
        <pt x="45" y="0" on="1"/>
        <pt x="45" y="660" on="1"/>
        <pt x="445" y="660" on="1"/>
        <pt x="445" y="0" on="1"/>
      </contour>
      <contour>
        <pt x="125" y="80" on="1"/>
        <pt x="365" y="80" on="1"/>
        <pt x="365" y="580" on="1"/>
        <pt x="125" y="580" on="1"/>
      </contour>
    </TTGlyph>
    <TTGlyph name="A" xMin="8" yMin="0" xMax="657" yMax="660">
      <contour>
        <pt x="500" y="0" on="1"/>
        <pt x="463" y="117" on="1"/>
        <pt x="199" y="117" on="1"/>
        <pt x="161" y="0" on="1"/>
        <pt x="8" y="0" on="1"/>
        <pt x="239" y="660" on="1"/>
        <pt x="426" y="660" on="1"/>
        <pt x="657" y="0" on="1"/>
      </contour>
      <contour>
        <pt x="239" y="243" on="1"/>
        <pt x="423" y="243" on="1"/>
        <pt x="361" y="436" on="1"/>
        <pt x="332" y="538" on="1"/>
        <pt x="330" y="538" on="1"/>
        <pt x="302" y="437" on="1"/>
      </contour>
    </TTGlyph>
    <TTGlyph name="A.swsh" xMin="-23" yMin="-110" xMax="882" yMax="660">
      <contour>
        <pt x="720" y="0" on="1"/>
        <pt x="691" y="91" on="1"/>
        <pt x="402" y="91" on="1"/>
        <pt x="396" y="73" on="1"/>
        <pt x="366" y="-20" on="0"/>
        <pt x="252" y="-110" on="0"/>
        <pt x="152" y="-110" on="1"/>
        <pt x="82" y="-110" on="0"/>
        <pt x="-10" y="-60" on="0"/>
        <pt x="-23" y="-13" on="1"/>
        <pt x="34" y="86" on="1"/>
        <pt x="50" y="41" on="0"/>
        <pt x="101" y="8" on="0"/>
        <pt x="144" y="8" on="1"/>
        <pt x="190" y="8" on="0"/>
        <pt x="245" y="65" on="0"/>
        <pt x="271" y="138" on="1"/>
        <pt x="417" y="545" on="1"/>
        <pt x="299" y="545" on="1"/>
        <pt x="249" y="545" on="0"/>
        <pt x="194" y="498" on="0"/>
        <pt x="194" y="456" on="1"/>
        <pt x="194" y="420" on="0"/>
        <pt x="245" y="369" on="0"/>
        <pt x="287" y="364" on="1"/>
        <pt x="240" y="257" on="1"/>
        <pt x="158" y="264" on="0"/>
        <pt x="52" y="373" on="0"/>
        <pt x="52" y="459" on="1"/>
        <pt x="52" y="555" on="0"/>
        <pt x="176" y="660" on="0"/>
        <pt x="290" y="660" on="1"/>
        <pt x="522" y="660" on="1"/>
        <pt x="646" y="660" on="1"/>
        <pt x="882" y="0" on="1"/>
      </contour>
      <contour>
        <pt x="440" y="201" on="1"/>
        <pt x="656" y="201" on="1"/>
        <pt x="581" y="436" on="1"/>
        <pt x="552" y="538" on="1"/>
        <pt x="550" y="538" on="1"/>
        <pt x="522" y="437" on="1"/>
      </contour>
    </TTGlyph>
    <TTGlyph name="AE" xMin="-7" yMin="0" xMax="890" yMax="660">
      <contour>
        <pt x="568" y="118" on="1"/>
        <pt x="890" y="118" on="1"/>
        <pt x="890" y="0" on="1"/>
        <pt x="486" y="0" on="1"/>
        <pt x="421" y="0" on="1"/>
        <pt x="421" y="199" on="1"/>
        <pt x="233" y="199" on="1"/>
        <pt x="151" y="0" on="1"/>
        <pt x="-7" y="0" on="1"/>
        <pt x="293" y="660" on="1"/>
        <pt x="421" y="660" on="1"/>
        <pt x="568" y="660" on="1"/>
        <pt x="877" y="660" on="1"/>
        <pt x="877" y="542" on="1"/>
        <pt x="568" y="542" on="1"/>
        <pt x="568" y="388" on="1"/>
        <pt x="804" y="388" on="1"/>
        <pt x="804" y="276" on="1"/>
        <pt x="568" y="276" on="1"/>
      </contour>
      <contour>
        <pt x="277" y="305" on="1"/>
        <pt x="421" y="305" on="1"/>
        <pt x="421" y="546" on="1"/>
        <pt x="376" y="546" on="1"/>
      </contour>
    </TTGlyph>
    <TTGlyph name="Aacute" xMin="8" yMin="0" xMax="657" yMax="884">
      <contour>
        <pt x="459" y="884" on="1"/>
        <pt x="395" y="726" on="1"/>
        <pt x="266" y="726" on="1"/>
        <pt x="321" y="884" on="1"/>
      </contour>
      <contour>
        <pt x="500" y="0" on="1"/>
        <pt x="463" y="117" on="1"/>
        <pt x="199" y="117" on="1"/>
        <pt x="161" y="0" on="1"/>
        <pt x="8" y="0" on="1"/>
        <pt x="239" y="660" on="1"/>
        <pt x="426" y="660" on="1"/>
        <pt x="657" y="0" on="1"/>
      </contour>
      <contour>
        <pt x="239" y="243" on="1"/>
        <pt x="423" y="243" on="1"/>
        <pt x="361" y="436" on="1"/>
        <pt x="332" y="538" on="1"/>
        <pt x="330" y="538" on="1"/>
        <pt x="302" y="437" on="1"/>
      </contour>
    </TTGlyph>
    <TTGlyph name="Aacute.swsh" xMin="-23" yMin="-110" xMax="882" yMax="884">
      <contour>
        <pt x="679" y="884" on="1"/>
        <pt x="615" y="726" on="1"/>
        <pt x="486" y="726" on="1"/>
        <pt x="541" y="884" on="1"/>
      </contour>
      <contour>
        <pt x="720" y="0" on="1"/>
        <pt x="691" y="91" on="1"/>
        <pt x="402" y="91" on="1"/>
        <pt x="396" y="73" on="1"/>
        <pt x="366" y="-20" on="0"/>
        <pt x="252" y="-110" on="0"/>
        <pt x="152" y="-110" on="1"/>
        <pt x="82" y="-110" on="0"/>
        <pt x="-10" y="-60" on="0"/>
        <pt x="-23" y="-13" on="1"/>
        <pt x="34" y="86" on="1"/>
        <pt x="50" y="41" on="0"/>
        <pt x="101" y="8" on="0"/>
        <pt x="144" y="8" on="1"/>
        <pt x="190" y="8" on="0"/>
        <pt x="245" y="65" on="0"/>
        <pt x="271" y="138" on="1"/>
        <pt x="417" y="545" on="1"/>
        <pt x="299" y="545" on="1"/>
        <pt x="249" y="545" on="0"/>
        <pt x="194" y="498" on="0"/>
        <pt x="194" y="456" on="1"/>
        <pt x="194" y="420" on="0"/>
        <pt x="245" y="369" on="0"/>
        <pt x="287" y="364" on="1"/>
        <pt x="240" y="257" on="1"/>
        <pt x="158" y="264" on="0"/>
        <pt x="52" y="373" on="0"/>
        <pt x="52" y="459" on="1"/>
        <pt x="52" y="555" on="0"/>
        <pt x="176" y="660" on="0"/>
        <pt x="290" y="660" on="1"/>
        <pt x="522" y="660" on="1"/>
        <pt x="646" y="660" on="1"/>
        <pt x="882" y="0" on="1"/>
      </contour>
      <contour>
        <pt x="440" y="201" on="1"/>
        <pt x="656" y="201" on="1"/>
        <pt x="581" y="436" on="1"/>
        <pt x="552" y="538" on="1"/>
        <pt x="550" y="538" on="1"/>
        <pt x="522" y="437" on="1"/>
      </contour>
    </TTGlyph>
    <TTGlyph name="Abreve" xMin="8" yMin="0" xMax="657" yMax="879">
      <contour>
        <pt x="409" y="719" on="0"/>
        <pt x="255" y="719" on="0"/>
        <pt x="167" y="805" on="0"/>
        <pt x="167" y="879" on="1"/>
        <pt x="269" y="879" on="1"/>
        <pt x="269" y="848" on="0"/>
        <pt x="304" y="808" on="0"/>
        <pt x="332" y="808" on="1"/>
        <pt x="361" y="808" on="0"/>
        <pt x="395" y="848" on="0"/>
        <pt x="395" y="879" on="1"/>
        <pt x="498" y="879" on="1"/>
        <pt x="498" y="805" on="0"/>
      </contour>
      <contour>
        <pt x="500" y="0" on="1"/>
        <pt x="463" y="117" on="1"/>
        <pt x="199" y="117" on="1"/>
        <pt x="161" y="0" on="1"/>
        <pt x="8" y="0" on="1"/>
        <pt x="239" y="660" on="1"/>
        <pt x="426" y="660" on="1"/>
        <pt x="657" y="0" on="1"/>
      </contour>
      <contour>
        <pt x="239" y="243" on="1"/>
        <pt x="423" y="243" on="1"/>
        <pt x="361" y="436" on="1"/>
        <pt x="332" y="538" on="1"/>
        <pt x="330" y="538" on="1"/>
        <pt x="302" y="437" on="1"/>
      </contour>
    </TTGlyph>
    <TTGlyph name="Abreve.swsh" xMin="-23" yMin="-110" xMax="882" yMax="879">
      <contour>
        <pt x="629" y="719" on="0"/>
        <pt x="475" y="719" on="0"/>
        <pt x="387" y="805" on="0"/>
        <pt x="387" y="879" on="1"/>
        <pt x="489" y="879" on="1"/>
        <pt x="489" y="848" on="0"/>
        <pt x="524" y="808" on="0"/>
        <pt x="552" y="808" on="1"/>
        <pt x="581" y="808" on="0"/>
        <pt x="615" y="848" on="0"/>
        <pt x="615" y="879" on="1"/>
        <pt x="718" y="879" on="1"/>
        <pt x="718" y="805" on="0"/>
      </contour>
      <contour>
        <pt x="720" y="0" on="1"/>
        <pt x="691" y="91" on="1"/>
        <pt x="402" y="91" on="1"/>
        <pt x="396" y="73" on="1"/>
        <pt x="366" y="-20" on="0"/>
        <pt x="252" y="-110" on="0"/>
        <pt x="152" y="-110" on="1"/>
        <pt x="82" y="-110" on="0"/>
        <pt x="-10" y="-60" on="0"/>
        <pt x="-23" y="-13" on="1"/>
        <pt x="34" y="86" on="1"/>
        <pt x="50" y="41" on="0"/>
        <pt x="101" y="8" on="0"/>
        <pt x="144" y="8" on="1"/>
        <pt x="190" y="8" on="0"/>
        <pt x="245" y="65" on="0"/>
        <pt x="271" y="138" on="1"/>
        <pt x="417" y="545" on="1"/>
        <pt x="299" y="545" on="1"/>
        <pt x="249" y="545" on="0"/>
        <pt x="194" y="498" on="0"/>
        <pt x="194" y="456" on="1"/>
        <pt x="194" y="420" on="0"/>
        <pt x="245" y="369" on="0"/>
        <pt x="287" y="364" on="1"/>
        <pt x="240" y="257" on="1"/>
        <pt x="158" y="264" on="0"/>
        <pt x="52" y="373" on="0"/>
        <pt x="52" y="459" on="1"/>
        <pt x="52" y="555" on="0"/>
        <pt x="176" y="660" on="0"/>
        <pt x="290" y="660" on="1"/>
        <pt x="522" y="660" on="1"/>
        <pt x="646" y="660" on="1"/>
        <pt x="882" y="0" on="1"/>
      </contour>
      <contour>
        <pt x="440" y="201" on="1"/>
        <pt x="656" y="201" on="1"/>
        <pt x="581" y="436" on="1"/>
        <pt x="552" y="538" on="1"/>
        <pt x="550" y="538" on="1"/>
        <pt x="522" y="437" on="1"/>
      </contour>
    </TTGlyph>
    <TTGlyph name="Acircumflex" xMin="8" yMin="0" xMax="657" yMax="890">
      <contour>
        <pt x="332" y="815" on="1"/>
        <pt x="267" y="723" on="1"/>
        <pt x="145" y="723" on="1"/>
        <pt x="256" y="890" on="1"/>
        <pt x="408" y="890" on="1"/>
        <pt x="519" y="723" on="1"/>
        <pt x="397" y="723" on="1"/>
      </contour>
      <contour>
        <pt x="500" y="0" on="1"/>
        <pt x="463" y="117" on="1"/>
        <pt x="199" y="117" on="1"/>
        <pt x="161" y="0" on="1"/>
        <pt x="8" y="0" on="1"/>
        <pt x="239" y="660" on="1"/>
        <pt x="426" y="660" on="1"/>
        <pt x="657" y="0" on="1"/>
      </contour>
      <contour>
        <pt x="239" y="243" on="1"/>
        <pt x="423" y="243" on="1"/>
        <pt x="361" y="436" on="1"/>
        <pt x="332" y="538" on="1"/>
        <pt x="330" y="538" on="1"/>
        <pt x="302" y="437" on="1"/>
      </contour>
    </TTGlyph>
    <TTGlyph name="Acircumflex.swsh" xMin="-23" yMin="-110" xMax="882" yMax="890">
      <contour>
        <pt x="552" y="815" on="1"/>
        <pt x="487" y="723" on="1"/>
        <pt x="365" y="723" on="1"/>
        <pt x="476" y="890" on="1"/>
        <pt x="628" y="890" on="1"/>
        <pt x="739" y="723" on="1"/>
        <pt x="617" y="723" on="1"/>
      </contour>
      <contour>
        <pt x="720" y="0" on="1"/>
        <pt x="691" y="91" on="1"/>
        <pt x="402" y="91" on="1"/>
        <pt x="396" y="73" on="1"/>
        <pt x="366" y="-20" on="0"/>
        <pt x="252" y="-110" on="0"/>
        <pt x="152" y="-110" on="1"/>
        <pt x="82" y="-110" on="0"/>
        <pt x="-10" y="-60" on="0"/>
        <pt x="-23" y="-13" on="1"/>
        <pt x="34" y="86" on="1"/>
        <pt x="50" y="41" on="0"/>
        <pt x="101" y="8" on="0"/>
        <pt x="144" y="8" on="1"/>
        <pt x="190" y="8" on="0"/>
        <pt x="245" y="65" on="0"/>
        <pt x="271" y="138" on="1"/>
        <pt x="417" y="545" on="1"/>
        <pt x="299" y="545" on="1"/>
        <pt x="249" y="545" on="0"/>
        <pt x="194" y="498" on="0"/>
        <pt x="194" y="456" on="1"/>
        <pt x="194" y="420" on="0"/>
        <pt x="245" y="369" on="0"/>
        <pt x="287" y="364" on="1"/>
        <pt x="240" y="257" on="1"/>
        <pt x="158" y="264" on="0"/>
        <pt x="52" y="373" on="0"/>
        <pt x="52" y="459" on="1"/>
        <pt x="52" y="555" on="0"/>
        <pt x="176" y="660" on="0"/>
        <pt x="290" y="660" on="1"/>
        <pt x="522" y="660" on="1"/>
        <pt x="646" y="660" on="1"/>
        <pt x="882" y="0" on="1"/>
      </contour>
      <contour>
        <pt x="440" y="201" on="1"/>
        <pt x="656" y="201" on="1"/>
        <pt x="581" y="436" on="1"/>
        <pt x="552" y="538" on="1"/>
        <pt x="550" y="538" on="1"/>
        <pt x="522" y="437" on="1"/>
      </contour>
    </TTGlyph>
    <TTGlyph name="Adieresis" xMin="8" yMin="0" xMax="657" yMax="879">
      <contour>
        <pt x="258" y="720" on="0"/>
        <pt x="192" y="720" on="0"/>
        <pt x="146" y="767" on="0"/>
        <pt x="146" y="799" on="1"/>
        <pt x="146" y="832" on="0"/>
        <pt x="192" y="879" on="0"/>
        <pt x="258" y="879" on="0"/>
        <pt x="305" y="832" on="0"/>
        <pt x="305" y="799" on="1"/>
        <pt x="305" y="767" on="0"/>
      </contour>
      <contour>
        <pt x="473" y="720" on="0"/>
        <pt x="407" y="720" on="0"/>
        <pt x="360" y="767" on="0"/>
        <pt x="360" y="799" on="1"/>
        <pt x="360" y="832" on="0"/>
        <pt x="407" y="879" on="0"/>
        <pt x="473" y="879" on="0"/>
        <pt x="520" y="832" on="0"/>
        <pt x="520" y="799" on="1"/>
        <pt x="520" y="767" on="0"/>
      </contour>
      <contour>
        <pt x="500" y="0" on="1"/>
        <pt x="463" y="117" on="1"/>
        <pt x="199" y="117" on="1"/>
        <pt x="161" y="0" on="1"/>
        <pt x="8" y="0" on="1"/>
        <pt x="239" y="660" on="1"/>
        <pt x="426" y="660" on="1"/>
        <pt x="657" y="0" on="1"/>
      </contour>
      <contour>
        <pt x="239" y="243" on="1"/>
        <pt x="423" y="243" on="1"/>
        <pt x="361" y="436" on="1"/>
        <pt x="332" y="538" on="1"/>
        <pt x="330" y="538" on="1"/>
        <pt x="302" y="437" on="1"/>
      </contour>
    </TTGlyph>
    <TTGlyph name="Adieresis.swsh" xMin="-23" yMin="-110" xMax="882" yMax="879">
      <contour>
        <pt x="478" y="720" on="0"/>
        <pt x="412" y="720" on="0"/>
        <pt x="366" y="767" on="0"/>
        <pt x="366" y="799" on="1"/>
        <pt x="366" y="832" on="0"/>
        <pt x="412" y="879" on="0"/>
        <pt x="478" y="879" on="0"/>
        <pt x="525" y="832" on="0"/>
        <pt x="525" y="799" on="1"/>
        <pt x="525" y="767" on="0"/>
      </contour>
      <contour>
        <pt x="693" y="720" on="0"/>
        <pt x="627" y="720" on="0"/>
        <pt x="580" y="767" on="0"/>
        <pt x="580" y="799" on="1"/>
        <pt x="580" y="832" on="0"/>
        <pt x="627" y="879" on="0"/>
        <pt x="693" y="879" on="0"/>
        <pt x="740" y="832" on="0"/>
        <pt x="740" y="799" on="1"/>
        <pt x="740" y="767" on="0"/>
      </contour>
      <contour>
        <pt x="720" y="0" on="1"/>
        <pt x="691" y="91" on="1"/>
        <pt x="402" y="91" on="1"/>
        <pt x="396" y="73" on="1"/>
        <pt x="366" y="-20" on="0"/>
        <pt x="252" y="-110" on="0"/>
        <pt x="152" y="-110" on="1"/>
        <pt x="82" y="-110" on="0"/>
        <pt x="-10" y="-60" on="0"/>
        <pt x="-23" y="-13" on="1"/>
        <pt x="34" y="86" on="1"/>
        <pt x="50" y="41" on="0"/>
        <pt x="101" y="8" on="0"/>
        <pt x="144" y="8" on="1"/>
        <pt x="190" y="8" on="0"/>
        <pt x="245" y="65" on="0"/>
        <pt x="271" y="138" on="1"/>
        <pt x="417" y="545" on="1"/>
        <pt x="299" y="545" on="1"/>
        <pt x="249" y="545" on="0"/>
        <pt x="194" y="498" on="0"/>
        <pt x="194" y="456" on="1"/>
        <pt x="194" y="420" on="0"/>
        <pt x="245" y="369" on="0"/>
        <pt x="287" y="364" on="1"/>
        <pt x="240" y="257" on="1"/>
        <pt x="158" y="264" on="0"/>
        <pt x="52" y="373" on="0"/>
        <pt x="52" y="459" on="1"/>
        <pt x="52" y="555" on="0"/>
        <pt x="176" y="660" on="0"/>
        <pt x="290" y="660" on="1"/>
        <pt x="522" y="660" on="1"/>
        <pt x="646" y="660" on="1"/>
        <pt x="882" y="0" on="1"/>
      </contour>
      <contour>
        <pt x="440" y="201" on="1"/>
        <pt x="656" y="201" on="1"/>
        <pt x="581" y="436" on="1"/>
        <pt x="552" y="538" on="1"/>
        <pt x="550" y="538" on="1"/>
        <pt x="522" y="437" on="1"/>
      </contour>
    </TTGlyph>
    <TTGlyph name="Adieresis.titl" xMin="3" yMin="0" xMax="662" yMax="662">
      <contour>
        <pt x="154" y="528" on="1"/>
        <pt x="120" y="528" on="0"/>
        <pt x="81" y="563" on="0"/>
        <pt x="81" y="627" on="0"/>
        <pt x="120" y="662" on="0"/>
        <pt x="188" y="662" on="0"/>
        <pt x="206" y="641" on="1"/>
        <pt x="167" y="529" on="1"/>
        <pt x="163" y="528" on="0"/>
      </contour>
      <contour>
        <pt x="511" y="528" on="1"/>
        <pt x="502" y="528" on="0"/>
        <pt x="498" y="529" on="1"/>
        <pt x="459" y="641" on="1"/>
        <pt x="477" y="662" on="0"/>
        <pt x="545" y="662" on="0"/>
        <pt x="584" y="627" on="0"/>
        <pt x="584" y="563" on="0"/>
        <pt x="545" y="528" on="0"/>
      </contour>
      <contour>
        <pt x="500" y="0" on="1"/>
        <pt x="468" y="101" on="1"/>
        <pt x="193" y="101" on="1"/>
        <pt x="161" y="0" on="1"/>
        <pt x="3" y="0" on="1"/>
        <pt x="239" y="660" on="1"/>
        <pt x="426" y="660" on="1"/>
        <pt x="662" y="0" on="1"/>
      </contour>
      <contour>
        <pt x="229" y="211" on="1"/>
        <pt x="433" y="211" on="1"/>
        <pt x="361" y="436" on="1"/>
        <pt x="332" y="538" on="1"/>
        <pt x="330" y="538" on="1"/>
        <pt x="302" y="437" on="1"/>
      </contour>
    </TTGlyph>
    <TTGlyph name="Agrave" xMin="8" yMin="0" xMax="657" yMax="884">
      <contour>
        <pt x="385" y="726" on="1"/>
        <pt x="256" y="726" on="1"/>
        <pt x="192" y="884" on="1"/>
        <pt x="330" y="884" on="1"/>
      </contour>
      <contour>
        <pt x="500" y="0" on="1"/>
        <pt x="463" y="117" on="1"/>
        <pt x="199" y="117" on="1"/>
        <pt x="161" y="0" on="1"/>
        <pt x="8" y="0" on="1"/>
        <pt x="239" y="660" on="1"/>
        <pt x="426" y="660" on="1"/>
        <pt x="657" y="0" on="1"/>
      </contour>
      <contour>
        <pt x="239" y="243" on="1"/>
        <pt x="423" y="243" on="1"/>
        <pt x="361" y="436" on="1"/>
        <pt x="332" y="538" on="1"/>
        <pt x="330" y="538" on="1"/>
        <pt x="302" y="437" on="1"/>
      </contour>
    </TTGlyph>
    <TTGlyph name="Agrave.swsh" xMin="-23" yMin="-110" xMax="882" yMax="884">
      <contour>
        <pt x="605" y="726" on="1"/>
        <pt x="476" y="726" on="1"/>
        <pt x="412" y="884" on="1"/>
        <pt x="550" y="884" on="1"/>
      </contour>
      <contour>
        <pt x="720" y="0" on="1"/>
        <pt x="691" y="91" on="1"/>
        <pt x="402" y="91" on="1"/>
        <pt x="396" y="73" on="1"/>
        <pt x="366" y="-20" on="0"/>
        <pt x="252" y="-110" on="0"/>
        <pt x="152" y="-110" on="1"/>
        <pt x="82" y="-110" on="0"/>
        <pt x="-10" y="-60" on="0"/>
        <pt x="-23" y="-13" on="1"/>
        <pt x="34" y="86" on="1"/>
        <pt x="50" y="41" on="0"/>
        <pt x="101" y="8" on="0"/>
        <pt x="144" y="8" on="1"/>
        <pt x="190" y="8" on="0"/>
        <pt x="245" y="65" on="0"/>
        <pt x="271" y="138" on="1"/>
        <pt x="417" y="545" on="1"/>
        <pt x="299" y="545" on="1"/>
        <pt x="249" y="545" on="0"/>
        <pt x="194" y="498" on="0"/>
        <pt x="194" y="456" on="1"/>
        <pt x="194" y="420" on="0"/>
        <pt x="245" y="369" on="0"/>
        <pt x="287" y="364" on="1"/>
        <pt x="240" y="257" on="1"/>
        <pt x="158" y="264" on="0"/>
        <pt x="52" y="373" on="0"/>
        <pt x="52" y="459" on="1"/>
        <pt x="52" y="555" on="0"/>
        <pt x="176" y="660" on="0"/>
        <pt x="290" y="660" on="1"/>
        <pt x="522" y="660" on="1"/>
        <pt x="646" y="660" on="1"/>
        <pt x="882" y="0" on="1"/>
      </contour>
      <contour>
        <pt x="440" y="201" on="1"/>
        <pt x="656" y="201" on="1"/>
        <pt x="581" y="436" on="1"/>
        <pt x="552" y="538" on="1"/>
        <pt x="550" y="538" on="1"/>
        <pt x="522" y="437" on="1"/>
      </contour>
    </TTGlyph>
    <TTGlyph name="Amacron" xMin="8" yMin="0" xMax="657" yMax="832">
      <contour>
        <pt x="516" y="832" on="1"/>
        <pt x="516" y="734" on="1"/>
        <pt x="148" y="734" on="1"/>
        <pt x="148" y="832" on="1"/>
      </contour>
      <contour>
        <pt x="500" y="0" on="1"/>
        <pt x="463" y="117" on="1"/>
        <pt x="199" y="117" on="1"/>
        <pt x="161" y="0" on="1"/>
        <pt x="8" y="0" on="1"/>
        <pt x="239" y="660" on="1"/>
        <pt x="426" y="660" on="1"/>
        <pt x="657" y="0" on="1"/>
      </contour>
      <contour>
        <pt x="239" y="243" on="1"/>
        <pt x="423" y="243" on="1"/>
        <pt x="361" y="436" on="1"/>
        <pt x="332" y="538" on="1"/>
        <pt x="330" y="538" on="1"/>
        <pt x="302" y="437" on="1"/>
      </contour>
    </TTGlyph>
    <TTGlyph name="Amacron.swsh" xMin="-23" yMin="-110" xMax="882" yMax="832">
      <contour>
        <pt x="736" y="832" on="1"/>
        <pt x="736" y="734" on="1"/>
        <pt x="368" y="734" on="1"/>
        <pt x="368" y="832" on="1"/>
      </contour>
      <contour>
        <pt x="720" y="0" on="1"/>
        <pt x="691" y="91" on="1"/>
        <pt x="402" y="91" on="1"/>
        <pt x="396" y="73" on="1"/>
        <pt x="366" y="-20" on="0"/>
        <pt x="252" y="-110" on="0"/>
        <pt x="152" y="-110" on="1"/>
        <pt x="82" y="-110" on="0"/>
        <pt x="-10" y="-60" on="0"/>
        <pt x="-23" y="-13" on="1"/>
        <pt x="34" y="86" on="1"/>
        <pt x="50" y="41" on="0"/>
        <pt x="101" y="8" on="0"/>
        <pt x="144" y="8" on="1"/>
        <pt x="190" y="8" on="0"/>
        <pt x="245" y="65" on="0"/>
        <pt x="271" y="138" on="1"/>
        <pt x="417" y="545" on="1"/>
        <pt x="299" y="545" on="1"/>
        <pt x="249" y="545" on="0"/>
        <pt x="194" y="498" on="0"/>
        <pt x="194" y="456" on="1"/>
        <pt x="194" y="420" on="0"/>
        <pt x="245" y="369" on="0"/>
        <pt x="287" y="364" on="1"/>
        <pt x="240" y="257" on="1"/>
        <pt x="158" y="264" on="0"/>
        <pt x="52" y="373" on="0"/>
        <pt x="52" y="459" on="1"/>
        <pt x="52" y="555" on="0"/>
        <pt x="176" y="660" on="0"/>
        <pt x="290" y="660" on="1"/>
        <pt x="522" y="660" on="1"/>
        <pt x="646" y="660" on="1"/>
        <pt x="882" y="0" on="1"/>
      </contour>
      <contour>
        <pt x="440" y="201" on="1"/>
        <pt x="656" y="201" on="1"/>
        <pt x="581" y="436" on="1"/>
        <pt x="552" y="538" on="1"/>
        <pt x="550" y="538" on="1"/>
        <pt x="522" y="437" on="1"/>
      </contour>
    </TTGlyph>
    <TTGlyph name="Aogonek" xMin="8" yMin="-215" xMax="668" yMax="660">
      <contour>
        <pt x="646" y="-116" on="1"/>
        <pt x="668" y="-193" on="1"/>
        <pt x="632" y="-215" on="0"/>
        <pt x="568" y="-215" on="1"/>
        <pt x="507" y="-215" on="0"/>
        <pt x="432" y="-158" on="0"/>
        <pt x="432" y="-104" on="1"/>
        <pt x="432" y="-36" on="0"/>
        <pt x="500" y="1" on="1"/>
        <pt x="463" y="117" on="1"/>
        <pt x="199" y="117" on="1"/>
        <pt x="161" y="0" on="1"/>
        <pt x="8" y="0" on="1"/>
        <pt x="239" y="660" on="1"/>
        <pt x="426" y="660" on="1"/>
        <pt x="656" y="2" on="1"/>
        <pt x="660" y="0" on="1"/>
        <pt x="594" y="-13" on="0"/>
        <pt x="542" y="-53" on="0"/>
        <pt x="542" y="-81" on="1"/>
        <pt x="542" y="-126" on="0"/>
        <pt x="598" y="-126" on="1"/>
        <pt x="630" y="-126" on="0"/>
      </contour>
      <contour>
        <pt x="239" y="243" on="1"/>
        <pt x="423" y="243" on="1"/>
        <pt x="361" y="436" on="1"/>
        <pt x="332" y="538" on="1"/>
        <pt x="330" y="538" on="1"/>
        <pt x="302" y="437" on="1"/>
      </contour>
    </TTGlyph>
    <TTGlyph name="Aogonek.swsh" xMin="-23" yMin="-215" xMax="890" yMax="660">
      <contour>
        <pt x="868" y="-116" on="1"/>
        <pt x="890" y="-193" on="1"/>
        <pt x="854" y="-215" on="0"/>
        <pt x="790" y="-215" on="1"/>
        <pt x="729" y="-215" on="0"/>
        <pt x="654" y="-158" on="0"/>
        <pt x="654" y="-104" on="1"/>
        <pt x="654" y="-35" on="0"/>
        <pt x="720" y="0" on="1"/>
        <pt x="691" y="91" on="1"/>
        <pt x="402" y="91" on="1"/>
        <pt x="396" y="73" on="1"/>
        <pt x="366" y="-20" on="0"/>
        <pt x="252" y="-110" on="0"/>
        <pt x="152" y="-110" on="1"/>
        <pt x="82" y="-110" on="0"/>
        <pt x="-10" y="-60" on="0"/>
        <pt x="-23" y="-13" on="1"/>
        <pt x="34" y="86" on="1"/>
        <pt x="50" y="41" on="0"/>
        <pt x="101" y="8" on="0"/>
        <pt x="144" y="8" on="1"/>
        <pt x="190" y="8" on="0"/>
        <pt x="245" y="65" on="0"/>
        <pt x="271" y="138" on="1"/>
        <pt x="417" y="545" on="1"/>
        <pt x="299" y="545" on="1"/>
        <pt x="249" y="545" on="0"/>
        <pt x="194" y="498" on="0"/>
        <pt x="194" y="456" on="1"/>
        <pt x="194" y="420" on="0"/>
        <pt x="245" y="369" on="0"/>
        <pt x="287" y="364" on="1"/>
        <pt x="240" y="257" on="1"/>
        <pt x="158" y="264" on="0"/>
        <pt x="52" y="373" on="0"/>
        <pt x="52" y="459" on="1"/>
        <pt x="52" y="555" on="0"/>
        <pt x="176" y="660" on="0"/>
        <pt x="290" y="660" on="1"/>
        <pt x="522" y="660" on="1"/>
        <pt x="646" y="660" on="1"/>
        <pt x="881" y="0" on="1"/>
        <pt x="882" y="0" on="1"/>
        <pt x="816" y="-13" on="0"/>
        <pt x="764" y="-53" on="0"/>
        <pt x="764" y="-81" on="1"/>
        <pt x="764" y="-126" on="0"/>
        <pt x="820" y="-126" on="1"/>
        <pt x="852" y="-126" on="0"/>
      </contour>
      <contour>
        <pt x="440" y="201" on="1"/>
        <pt x="656" y="201" on="1"/>
        <pt x="581" y="436" on="1"/>
        <pt x="552" y="538" on="1"/>
        <pt x="550" y="538" on="1"/>
        <pt x="522" y="437" on="1"/>
      </contour>
    </TTGlyph>
    <TTGlyph name="Aogonek_j" xMin="8" yMin="-215" xMax="906" yMax="720">
      <contour>
        <pt x="813" y="564" on="1"/>
        <pt x="721" y="564" on="0"/>
        <pt x="721" y="720" on="0"/>
        <pt x="813" y="720" on="1"/>
        <pt x="906" y="720" on="0"/>
        <pt x="906" y="564" on="0"/>
      </contour>
      <contour>
        <pt x="520" y="-82" on="1"/>
        <pt x="520" y="-103" on="0"/>
        <pt x="547" y="-126" on="0"/>
        <pt x="571" y="-126" on="1"/>
        <pt x="593" y="-126" on="0"/>
        <pt x="608" y="-116" on="1"/>
        <pt x="601" y="-197" on="1"/>
        <pt x="575" y="-215" on="0"/>
        <pt x="527" y="-215" on="1"/>
        <pt x="473" y="-215" on="0"/>
        <pt x="411" y="-161" on="0"/>
        <pt x="411" y="-118" on="1"/>
        <pt x="411" y="-37" on="0"/>
        <pt x="499" y="5" on="1"/>
        <pt x="463" y="117" on="1"/>
        <pt x="199" y="117" on="1"/>
        <pt x="161" y="0" on="1"/>
        <pt x="8" y="0" on="1"/>
        <pt x="239" y="660" on="1"/>
        <pt x="426" y="660" on="1"/>
        <pt x="656" y="2" on="1"/>
        <pt x="662" y="0" on="1"/>
        <pt x="520" y="-22" on="0"/>
      </contour>
      <contour>
        <pt x="239" y="243" on="1"/>
        <pt x="423" y="243" on="1"/>
        <pt x="361" y="436" on="1"/>
        <pt x="332" y="538" on="1"/>
        <pt x="330" y="538" on="1"/>
        <pt x="302" y="437" on="1"/>
      </contour>
      <contour>
        <pt x="736" y="-31" on="1"/>
        <pt x="736" y="500" on="1"/>
        <pt x="891" y="500" on="1"/>
        <pt x="891" y="-37" on="1"/>
        <pt x="891" y="-215" on="0"/>
        <pt x="712" y="-215" on="1"/>
        <pt x="671" y="-215" on="0"/>
        <pt x="638" y="-202" on="1"/>
        <pt x="660" y="-89" on="1"/>
        <pt x="674" y="-99" on="0"/>
        <pt x="698" y="-99" on="1"/>
        <pt x="718" y="-99" on="0"/>
        <pt x="736" y="-68" on="0"/>
      </contour>
    </TTGlyph>
    <TTGlyph name="Aogonek_y" xMin="8" yMin="-215" xMax="1172" yMax="660">
      <contour>
        <pt x="662" y="0" on="1"/>
        <pt x="591" y="-14" on="0"/>
        <pt x="528" y="-53" on="0"/>
        <pt x="528" y="-84" on="1"/>
        <pt x="528" y="-126" on="0"/>
        <pt x="574" y="-126" on="1"/>
        <pt x="608" y="-126" on="0"/>
        <pt x="628" y="-114" on="1"/>
        <pt x="629" y="-194" on="1"/>
        <pt x="594" y="-215" on="0"/>
        <pt x="541" y="-215" on="1"/>
        <pt x="486" y="-215" on="0"/>
        <pt x="419" y="-155" on="0"/>
        <pt x="419" y="-105" on="1"/>
        <pt x="419" y="-29" on="0"/>
        <pt x="498" y="6" on="1"/>
        <pt x="463" y="117" on="1"/>
        <pt x="199" y="117" on="1"/>
        <pt x="161" y="0" on="1"/>
        <pt x="8" y="0" on="1"/>
        <pt x="239" y="660" on="1"/>
        <pt x="426" y="660" on="1"/>
        <pt x="656" y="3" on="1"/>
      </contour>
      <contour>
        <pt x="239" y="243" on="1"/>
        <pt x="423" y="243" on="1"/>
        <pt x="361" y="436" on="1"/>
        <pt x="332" y="538" on="1"/>
        <pt x="330" y="538" on="1"/>
        <pt x="302" y="437" on="1"/>
      </contour>
      <contour>
        <pt x="1016" y="500" on="1"/>
        <pt x="1172" y="500" on="1"/>
        <pt x="975" y="-29" on="1"/>
        <pt x="940" y="-129" on="0"/>
        <pt x="838" y="-215" on="0"/>
        <pt x="760" y="-215" on="1"/>
        <pt x="703" y="-215" on="0"/>
        <pt x="670" y="-195" on="1"/>
        <pt x="691" y="-89" on="1"/>
        <pt x="707" y="-101" on="0"/>
        <pt x="741" y="-101" on="1"/>
        <pt x="794" y="-101" on="0"/>
        <pt x="814" y="-49" on="1"/>
        <pt x="830" y="-9" on="1"/>
        <pt x="774" y="124" on="1"/>
        <pt x="623" y="500" on="1"/>
        <pt x="794" y="500" on="1"/>
        <pt x="879" y="208" on="1"/>
        <pt x="904" y="105" on="1"/>
        <pt x="933" y="214" on="1"/>
      </contour>
    </TTGlyph>
    <TTGlyph name="Aring" xMin="8" yMin="0" xMax="657" yMax="860">
      <contour>
        <pt x="500" y="0" on="1"/>
        <pt x="463" y="117" on="1"/>
        <pt x="199" y="117" on="1"/>
        <pt x="161" y="0" on="1"/>
        <pt x="8" y="0" on="1"/>
        <pt x="231" y="639" on="1"/>
        <pt x="187" y="670" on="0"/>
        <pt x="187" y="732" on="1"/>
        <pt x="187" y="790" on="0"/>
        <pt x="266" y="860" on="0"/>
        <pt x="400" y="860" on="0"/>
        <pt x="479" y="790" on="0"/>
        <pt x="479" y="732" on="1"/>
        <pt x="479" y="672" on="0"/>
        <pt x="433" y="639" on="1"/>
        <pt x="657" y="0" on="1"/>
      </contour>
      <contour>
        <pt x="333" y="786" on="1"/>
        <pt x="305" y="786" on="0"/>
        <pt x="272" y="754" on="0"/>
        <pt x="272" y="702" on="0"/>
        <pt x="305" y="670" on="0"/>
        <pt x="333" y="670" on="1"/>
        <pt x="360" y="670" on="0"/>
        <pt x="393" y="702" on="0"/>
        <pt x="393" y="754" on="0"/>
        <pt x="360" y="786" on="0"/>
      </contour>
      <contour>
        <pt x="239" y="243" on="1"/>
        <pt x="423" y="243" on="1"/>
        <pt x="361" y="436" on="1"/>
        <pt x="332" y="538" on="1"/>
        <pt x="330" y="538" on="1"/>
        <pt x="302" y="437" on="1"/>
      </contour>
    </TTGlyph>
    <TTGlyph name="Atilde" xMin="8" yMin="0" xMax="657" yMax="879">
      <contour>
        <pt x="267" y="782" on="1"/>
        <pt x="235" y="782" on="0"/>
        <pt x="227" y="724" on="1"/>
        <pt x="137" y="724" on="1"/>
        <pt x="144" y="879" on="0"/>
        <pt x="266" y="879" on="1"/>
        <pt x="292" y="879" on="0"/>
        <pt x="334" y="861" on="0"/>
        <pt x="357" y="838" on="0"/>
        <pt x="385" y="820" on="0"/>
        <pt x="397" y="820" on="1"/>
        <pt x="429" y="820" on="0"/>
        <pt x="437" y="878" on="1"/>
        <pt x="528" y="878" on="1"/>
        <pt x="521" y="723" on="0"/>
        <pt x="399" y="723" on="1"/>
        <pt x="366" y="723" on="0"/>
        <pt x="317" y="752" on="0"/>
        <pt x="283" y="782" on="0"/>
      </contour>
      <contour>
        <pt x="500" y="0" on="1"/>
        <pt x="463" y="117" on="1"/>
        <pt x="199" y="117" on="1"/>
        <pt x="161" y="0" on="1"/>
        <pt x="8" y="0" on="1"/>
        <pt x="239" y="660" on="1"/>
        <pt x="426" y="660" on="1"/>
        <pt x="657" y="0" on="1"/>
      </contour>
      <contour>
        <pt x="239" y="243" on="1"/>
        <pt x="423" y="243" on="1"/>
        <pt x="361" y="436" on="1"/>
        <pt x="332" y="538" on="1"/>
        <pt x="330" y="538" on="1"/>
        <pt x="302" y="437" on="1"/>
      </contour>
    </TTGlyph>
    <TTGlyph name="Atilde.swsh" xMin="-23" yMin="-110" xMax="882" yMax="879">
      <contour>
        <pt x="487" y="782" on="1"/>
        <pt x="455" y="782" on="0"/>
        <pt x="447" y="724" on="1"/>
        <pt x="357" y="724" on="1"/>
        <pt x="364" y="879" on="0"/>
        <pt x="486" y="879" on="1"/>
        <pt x="512" y="879" on="0"/>
        <pt x="554" y="861" on="0"/>
        <pt x="577" y="838" on="0"/>
        <pt x="605" y="820" on="0"/>
        <pt x="617" y="820" on="1"/>
        <pt x="649" y="820" on="0"/>
        <pt x="657" y="878" on="1"/>
        <pt x="748" y="878" on="1"/>
        <pt x="741" y="723" on="0"/>
        <pt x="619" y="723" on="1"/>
        <pt x="586" y="723" on="0"/>
        <pt x="537" y="752" on="0"/>
        <pt x="503" y="782" on="0"/>
      </contour>
      <contour>
        <pt x="720" y="0" on="1"/>
        <pt x="691" y="91" on="1"/>
        <pt x="402" y="91" on="1"/>
        <pt x="396" y="73" on="1"/>
        <pt x="366" y="-20" on="0"/>
        <pt x="252" y="-110" on="0"/>
        <pt x="152" y="-110" on="1"/>
        <pt x="82" y="-110" on="0"/>
        <pt x="-10" y="-60" on="0"/>
        <pt x="-23" y="-13" on="1"/>
        <pt x="34" y="86" on="1"/>
        <pt x="50" y="41" on="0"/>
        <pt x="101" y="8" on="0"/>
        <pt x="144" y="8" on="1"/>
        <pt x="190" y="8" on="0"/>
        <pt x="245" y="65" on="0"/>
        <pt x="271" y="138" on="1"/>
        <pt x="417" y="545" on="1"/>
        <pt x="299" y="545" on="1"/>
        <pt x="249" y="545" on="0"/>
        <pt x="194" y="498" on="0"/>
        <pt x="194" y="456" on="1"/>
        <pt x="194" y="420" on="0"/>
        <pt x="245" y="369" on="0"/>
        <pt x="287" y="364" on="1"/>
        <pt x="240" y="257" on="1"/>
        <pt x="158" y="264" on="0"/>
        <pt x="52" y="373" on="0"/>
        <pt x="52" y="459" on="1"/>
        <pt x="52" y="555" on="0"/>
        <pt x="176" y="660" on="0"/>
        <pt x="290" y="660" on="1"/>
        <pt x="522" y="660" on="1"/>
        <pt x="646" y="660" on="1"/>
        <pt x="882" y="0" on="1"/>
      </contour>
      <contour>
        <pt x="440" y="201" on="1"/>
        <pt x="656" y="201" on="1"/>
        <pt x="581" y="436" on="1"/>
        <pt x="552" y="538" on="1"/>
        <pt x="550" y="538" on="1"/>
        <pt x="522" y="437" on="1"/>
      </contour>
    </TTGlyph>
    <TTGlyph name="B" xMin="74" yMin="0" xMax="634" yMax="660">
      <contour>
        <pt x="74" y="0" on="1"/>
        <pt x="74" y="660" on="1"/>
        <pt x="381" y="660" on="1"/>
        <pt x="499" y="660" on="0"/>
        <pt x="617" y="568" on="0"/>
        <pt x="617" y="486" on="1"/>
        <pt x="617" y="423" on="0"/>
        <pt x="550" y="345" on="0"/>
        <pt x="487" y="334" on="1"/>
        <pt x="487" y="333" on="1"/>
        <pt x="560" y="322" on="0"/>
        <pt x="634" y="239" on="0"/>
        <pt x="634" y="176" on="1"/>
        <pt x="634" y="93" on="0"/>
        <pt x="510" y="0" on="0"/>
        <pt x="393" y="0" on="1"/>
      </contour>
      <contour>
        <pt x="226" y="387" on="1"/>
        <pt x="355" y="387" on="1"/>
        <pt x="456" y="387" on="0"/>
        <pt x="456" y="543" on="0"/>
        <pt x="355" y="543" on="1"/>
        <pt x="226" y="543" on="1"/>
      </contour>
      <contour>
        <pt x="226" y="114" on="1"/>
        <pt x="372" y="114" on="1"/>
        <pt x="473" y="114" on="0"/>
        <pt x="473" y="272" on="0"/>
        <pt x="372" y="272" on="1"/>
        <pt x="226" y="272" on="1"/>
      </contour>
    </TTGlyph>
    <TTGlyph name="C" xMin="35" yMin="-12" xMax="656" yMax="670">
      <contour>
        <pt x="35" y="330" on="1"/>
        <pt x="35" y="471" on="0"/>
        <pt x="234" y="670" on="0"/>
        <pt x="374" y="670" on="1"/>
        <pt x="460" y="670" on="0"/>
        <pt x="609" y="589" on="0"/>
        <pt x="655" y="520" on="1"/>
        <pt x="533" y="444" on="1"/>
        <pt x="473" y="525" on="0"/>
        <pt x="374" y="525" on="1"/>
        <pt x="294" y="525" on="0"/>
        <pt x="180" y="411" on="0"/>
        <pt x="180" y="329" on="1"/>
        <pt x="180" y="249" on="0"/>
        <pt x="294" y="134" on="0"/>
        <pt x="374" y="134" on="1"/>
        <pt x="423" y="134" on="0"/>
        <pt x="506" y="178" on="0"/>
        <pt x="533" y="216" on="1"/>
        <pt x="656" y="140" on="1"/>
        <pt x="610" y="70" on="0"/>
        <pt x="461" y="-12" on="0"/>
        <pt x="374" y="-12" on="1"/>
        <pt x="234" y="-12" on="0"/>
        <pt x="35" y="188" on="0"/>
      </contour>
    </TTGlyph>
    <TTGlyph name="Cacute" xMin="35" yMin="-12" xMax="656" yMax="884">
      <contour>
        <pt x="354" y="884" on="1"/>
        <pt x="492" y="884" on="1"/>
        <pt x="428" y="726" on="1"/>
        <pt x="299" y="726" on="1"/>
      </contour>
      <contour>
        <pt x="35" y="330" on="1"/>
        <pt x="35" y="471" on="0"/>
        <pt x="234" y="670" on="0"/>
        <pt x="374" y="670" on="1"/>
        <pt x="460" y="670" on="0"/>
        <pt x="609" y="589" on="0"/>
        <pt x="655" y="520" on="1"/>
        <pt x="533" y="444" on="1"/>
        <pt x="473" y="525" on="0"/>
        <pt x="374" y="525" on="1"/>
        <pt x="294" y="525" on="0"/>
        <pt x="180" y="411" on="0"/>
        <pt x="180" y="329" on="1"/>
        <pt x="180" y="249" on="0"/>
        <pt x="294" y="134" on="0"/>
        <pt x="374" y="134" on="1"/>
        <pt x="423" y="134" on="0"/>
        <pt x="506" y="178" on="0"/>
        <pt x="533" y="216" on="1"/>
        <pt x="656" y="140" on="1"/>
        <pt x="610" y="70" on="0"/>
        <pt x="461" y="-12" on="0"/>
        <pt x="374" y="-12" on="1"/>
        <pt x="234" y="-12" on="0"/>
        <pt x="35" y="188" on="0"/>
      </contour>
    </TTGlyph>
    <TTGlyph name="Ccaron" xMin="35" yMin="-12" xMax="656" yMax="891">
      <contour>
        <pt x="557" y="891" on="1"/>
        <pt x="446" y="724" on="1"/>
        <pt x="294" y="724" on="1"/>
        <pt x="183" y="891" on="1"/>
        <pt x="305" y="891" on="1"/>
        <pt x="370" y="799" on="1"/>
        <pt x="435" y="891" on="1"/>
      </contour>
      <contour>
        <pt x="35" y="330" on="1"/>
        <pt x="35" y="471" on="0"/>
        <pt x="234" y="670" on="0"/>
        <pt x="374" y="670" on="1"/>
        <pt x="460" y="670" on="0"/>
        <pt x="609" y="589" on="0"/>
        <pt x="655" y="520" on="1"/>
        <pt x="533" y="444" on="1"/>
        <pt x="473" y="525" on="0"/>
        <pt x="374" y="525" on="1"/>
        <pt x="294" y="525" on="0"/>
        <pt x="180" y="411" on="0"/>
        <pt x="180" y="329" on="1"/>
        <pt x="180" y="249" on="0"/>
        <pt x="294" y="134" on="0"/>
        <pt x="374" y="134" on="1"/>
        <pt x="423" y="134" on="0"/>
        <pt x="506" y="178" on="0"/>
        <pt x="533" y="216" on="1"/>
        <pt x="656" y="140" on="1"/>
        <pt x="610" y="70" on="0"/>
        <pt x="461" y="-12" on="0"/>
        <pt x="374" y="-12" on="1"/>
        <pt x="234" y="-12" on="0"/>
        <pt x="35" y="188" on="0"/>
      </contour>
    </TTGlyph>
    <TTGlyph name="Ccedilla" xMin="35" yMin="-215" xMax="656" yMax="670">
      <contour>
        <pt x="656" y="140" on="1"/>
        <pt x="578" y="23" on="0"/>
        <pt x="440" y="-5" on="1"/>
        <pt x="492" y="-44" on="0"/>
        <pt x="492" y="-154" on="0"/>
        <pt x="416" y="-215" on="0"/>
        <pt x="354" y="-215" on="1"/>
        <pt x="274" y="-215" on="0"/>
        <pt x="232" y="-176" on="1"/>
        <pt x="269" y="-101" on="1"/>
        <pt x="298" y="-130" on="0"/>
        <pt x="341" y="-130" on="1"/>
        <pt x="365" y="-130" on="0"/>
        <pt x="396" y="-103" on="0"/>
        <pt x="396" y="-79" on="1"/>
        <pt x="396" y="-56" on="0"/>
        <pt x="366" y="-23" on="0"/>
        <pt x="326" y="-9" on="1"/>
        <pt x="202" y="9" on="0"/>
        <pt x="35" y="201" on="0"/>
        <pt x="35" y="330" on="1"/>
        <pt x="35" y="471" on="0"/>
        <pt x="234" y="670" on="0"/>
        <pt x="374" y="670" on="1"/>
        <pt x="460" y="670" on="0"/>
        <pt x="609" y="589" on="0"/>
        <pt x="655" y="520" on="1"/>
        <pt x="533" y="444" on="1"/>
        <pt x="473" y="525" on="0"/>
        <pt x="374" y="525" on="1"/>
        <pt x="294" y="525" on="0"/>
        <pt x="180" y="411" on="0"/>
        <pt x="180" y="329" on="1"/>
        <pt x="180" y="249" on="0"/>
        <pt x="294" y="134" on="0"/>
        <pt x="374" y="134" on="1"/>
        <pt x="423" y="134" on="0"/>
        <pt x="506" y="178" on="0"/>
        <pt x="533" y="216" on="1"/>
      </contour>
    </TTGlyph>
    <TTGlyph name="D" xMin="74" yMin="0" xMax="681" yMax="660">
      <contour>
        <pt x="358" y="660" on="1"/>
        <pt x="513" y="660" on="0"/>
        <pt x="681" y="488" on="0"/>
        <pt x="681" y="172" on="0"/>
        <pt x="513" y="0" on="0"/>
        <pt x="358" y="0" on="1"/>
        <pt x="178" y="0" on="1"/>
        <pt x="74" y="0" on="1"/>
        <pt x="74" y="660" on="1"/>
        <pt x="231" y="660" on="1"/>
      </contour>
      <contour>
        <pt x="346" y="121" on="1"/>
        <pt x="433" y="121" on="0"/>
        <pt x="525" y="233" on="0"/>
        <pt x="525" y="427" on="0"/>
        <pt x="433" y="540" on="0"/>
        <pt x="346" y="540" on="1"/>
        <pt x="231" y="540" on="1"/>
        <pt x="231" y="121" on="1"/>
      </contour>
    </TTGlyph>
    <TTGlyph name="Dcaron" xMin="74" yMin="0" xMax="681" yMax="891">
      <contour>
        <pt x="407" y="724" on="1"/>
        <pt x="255" y="724" on="1"/>
        <pt x="144" y="891" on="1"/>
        <pt x="266" y="891" on="1"/>
        <pt x="331" y="799" on="1"/>
        <pt x="396" y="891" on="1"/>
        <pt x="518" y="891" on="1"/>
      </contour>
      <contour>
        <pt x="358" y="660" on="1"/>
        <pt x="513" y="660" on="0"/>
        <pt x="681" y="488" on="0"/>
        <pt x="681" y="172" on="0"/>
        <pt x="513" y="0" on="0"/>
        <pt x="358" y="0" on="1"/>
        <pt x="178" y="0" on="1"/>
        <pt x="74" y="0" on="1"/>
        <pt x="74" y="660" on="1"/>
        <pt x="231" y="660" on="1"/>
      </contour>
      <contour>
        <pt x="346" y="121" on="1"/>
        <pt x="433" y="121" on="0"/>
        <pt x="525" y="233" on="0"/>
        <pt x="525" y="427" on="0"/>
        <pt x="433" y="540" on="0"/>
        <pt x="346" y="540" on="1"/>
        <pt x="231" y="540" on="1"/>
        <pt x="231" y="121" on="1"/>
      </contour>
    </TTGlyph>
    <TTGlyph name="Dcroat" xMin="10" yMin="0" xMax="703" yMax="660">
      <contour>
        <pt x="380" y="660" on="1"/>
        <pt x="535" y="660" on="0"/>
        <pt x="703" y="488" on="0"/>
        <pt x="703" y="172" on="0"/>
        <pt x="535" y="0" on="0"/>
        <pt x="380" y="0" on="1"/>
        <pt x="200" y="0" on="1"/>
        <pt x="96" y="0" on="1"/>
        <pt x="96" y="278" on="1"/>
        <pt x="10" y="278" on="1"/>
        <pt x="10" y="383" on="1"/>
        <pt x="96" y="383" on="1"/>
        <pt x="96" y="660" on="1"/>
        <pt x="253" y="660" on="1"/>
      </contour>
      <contour>
        <pt x="368" y="121" on="1"/>
        <pt x="455" y="121" on="0"/>
        <pt x="547" y="233" on="0"/>
        <pt x="547" y="427" on="0"/>
        <pt x="455" y="540" on="0"/>
        <pt x="368" y="540" on="1"/>
        <pt x="253" y="540" on="1"/>
        <pt x="253" y="383" on="1"/>
        <pt x="394" y="383" on="1"/>
        <pt x="394" y="278" on="1"/>
        <pt x="253" y="278" on="1"/>
        <pt x="253" y="121" on="1"/>
      </contour>
    </TTGlyph>
    <TTGlyph name="E" xMin="74" yMin="0" xMax="593" yMax="660">
      <contour>
        <pt x="231" y="123" on="1"/>
        <pt x="593" y="123" on="1"/>
        <pt x="593" y="0" on="1"/>
        <pt x="151" y="0" on="1"/>
        <pt x="74" y="0" on="1"/>
        <pt x="74" y="660" on="1"/>
        <pt x="231" y="660" on="1"/>
        <pt x="580" y="660" on="1"/>
        <pt x="580" y="537" on="1"/>
        <pt x="231" y="537" on="1"/>
        <pt x="231" y="386" on="1"/>
        <pt x="535" y="386" on="1"/>
        <pt x="535" y="268" on="1"/>
        <pt x="231" y="268" on="1"/>
      </contour>
    </TTGlyph>
    <TTGlyph name="E.swsh" xMin="5" yMin="0" xMax="849" yMax="660">
      <contour>
        <pt x="486" y="123" on="1"/>
        <pt x="849" y="123" on="1"/>
        <pt x="849" y="0" on="1"/>
        <pt x="407" y="0" on="1"/>
        <pt x="330" y="0" on="1"/>
        <pt x="330" y="545" on="1"/>
        <pt x="252" y="545" on="1"/>
        <pt x="202" y="545" on="0"/>
        <pt x="147" y="498" on="0"/>
        <pt x="147" y="456" on="1"/>
        <pt x="147" y="420" on="0"/>
        <pt x="198" y="369" on="0"/>
        <pt x="240" y="364" on="1"/>
        <pt x="193" y="257" on="1"/>
        <pt x="111" y="264" on="0"/>
        <pt x="5" y="373" on="0"/>
        <pt x="5" y="459" on="1"/>
        <pt x="5" y="555" on="0"/>
        <pt x="129" y="660" on="0"/>
        <pt x="243" y="660" on="1"/>
        <pt x="407" y="660" on="1"/>
        <pt x="486" y="660" on="1"/>
        <pt x="835" y="660" on="1"/>
        <pt x="835" y="537" on="1"/>
        <pt x="486" y="537" on="1"/>
        <pt x="486" y="386" on="1"/>
        <pt x="791" y="386" on="1"/>
        <pt x="791" y="268" on="1"/>
        <pt x="486" y="268" on="1"/>
      </contour>
    </TTGlyph>
    <TTGlyph name="E.swsh.001" xMin="74" yMin="0" xMax="802" yMax="660">
      <contour>
        <pt x="642" y="370" on="1"/>
        <pt x="719" y="360" on="0"/>
        <pt x="802" y="266" on="0"/>
        <pt x="802" y="191" on="1"/>
        <pt x="802" y="95" on="0"/>
        <pt x="687" y="0" on="0"/>
        <pt x="584" y="0" on="1"/>
        <pt x="407" y="0" on="1"/>
        <pt x="151" y="0" on="1"/>
        <pt x="74" y="0" on="1"/>
        <pt x="74" y="660" on="1"/>
        <pt x="231" y="660" on="1"/>
        <pt x="613" y="660" on="1"/>
        <pt x="613" y="537" on="1"/>
        <pt x="231" y="537" on="1"/>
        <pt x="231" y="385" on="1"/>
        <pt x="437" y="385" on="1"/>
        <pt x="437" y="269" on="1"/>
        <pt x="231" y="269" on="1"/>
        <pt x="231" y="123" on="1"/>
        <pt x="530" y="123" on="1"/>
        <pt x="561" y="123" on="1"/>
        <pt x="615" y="123" on="0"/>
        <pt x="665" y="158" on="0"/>
        <pt x="665" y="196" on="1"/>
        <pt x="665" y="265" on="0"/>
        <pt x="590" y="271" on="1"/>
      </contour>
    </TTGlyph>
    <TTGlyph name="Eacute" xMin="74" yMin="0" xMax="593" yMax="884">
      <contour>
        <pt x="448" y="884" on="1"/>
        <pt x="384" y="726" on="1"/>
        <pt x="255" y="726" on="1"/>
        <pt x="310" y="884" on="1"/>
      </contour>
      <contour>
        <pt x="231" y="123" on="1"/>
        <pt x="593" y="123" on="1"/>
        <pt x="593" y="0" on="1"/>
        <pt x="151" y="0" on="1"/>
        <pt x="74" y="0" on="1"/>
        <pt x="74" y="660" on="1"/>
        <pt x="231" y="660" on="1"/>
        <pt x="580" y="660" on="1"/>
        <pt x="580" y="537" on="1"/>
        <pt x="231" y="537" on="1"/>
        <pt x="231" y="386" on="1"/>
        <pt x="535" y="386" on="1"/>
        <pt x="535" y="268" on="1"/>
        <pt x="231" y="268" on="1"/>
      </contour>
    </TTGlyph>
    <TTGlyph name="Eacute.swsh" xMin="5" yMin="0" xMax="849" yMax="884">
      <contour>
        <pt x="704" y="884" on="1"/>
        <pt x="640" y="726" on="1"/>
        <pt x="511" y="726" on="1"/>
        <pt x="566" y="884" on="1"/>
      </contour>
      <contour>
        <pt x="486" y="123" on="1"/>
        <pt x="849" y="123" on="1"/>
        <pt x="849" y="0" on="1"/>
        <pt x="407" y="0" on="1"/>
        <pt x="330" y="0" on="1"/>
        <pt x="330" y="545" on="1"/>
        <pt x="252" y="545" on="1"/>
        <pt x="202" y="545" on="0"/>
        <pt x="147" y="498" on="0"/>
        <pt x="147" y="456" on="1"/>
        <pt x="147" y="420" on="0"/>
        <pt x="198" y="369" on="0"/>
        <pt x="240" y="364" on="1"/>
        <pt x="193" y="257" on="1"/>
        <pt x="111" y="264" on="0"/>
        <pt x="5" y="373" on="0"/>
        <pt x="5" y="459" on="1"/>
        <pt x="5" y="555" on="0"/>
        <pt x="129" y="660" on="0"/>
        <pt x="243" y="660" on="1"/>
        <pt x="407" y="660" on="1"/>
        <pt x="486" y="660" on="1"/>
        <pt x="835" y="660" on="1"/>
        <pt x="835" y="537" on="1"/>
        <pt x="486" y="537" on="1"/>
        <pt x="486" y="386" on="1"/>
        <pt x="791" y="386" on="1"/>
        <pt x="791" y="268" on="1"/>
        <pt x="486" y="268" on="1"/>
      </contour>
    </TTGlyph>
    <TTGlyph name="Eacute.swsh.001" xMin="74" yMin="0" xMax="802" yMax="884">
      <contour>
        <pt x="461" y="884" on="1"/>
        <pt x="397" y="726" on="1"/>
        <pt x="268" y="726" on="1"/>
        <pt x="323" y="884" on="1"/>
      </contour>
      <contour>
        <pt x="642" y="370" on="1"/>
        <pt x="719" y="360" on="0"/>
        <pt x="802" y="266" on="0"/>
        <pt x="802" y="191" on="1"/>
        <pt x="802" y="95" on="0"/>
        <pt x="687" y="0" on="0"/>
        <pt x="584" y="0" on="1"/>
        <pt x="407" y="0" on="1"/>
        <pt x="151" y="0" on="1"/>
        <pt x="74" y="0" on="1"/>
        <pt x="74" y="660" on="1"/>
        <pt x="231" y="660" on="1"/>
        <pt x="613" y="660" on="1"/>
        <pt x="613" y="537" on="1"/>
        <pt x="231" y="537" on="1"/>
        <pt x="231" y="385" on="1"/>
        <pt x="437" y="385" on="1"/>
        <pt x="437" y="269" on="1"/>
        <pt x="231" y="269" on="1"/>
        <pt x="231" y="123" on="1"/>
        <pt x="530" y="123" on="1"/>
        <pt x="561" y="123" on="1"/>
        <pt x="615" y="123" on="0"/>
        <pt x="665" y="158" on="0"/>
        <pt x="665" y="196" on="1"/>
        <pt x="665" y="265" on="0"/>
        <pt x="590" y="271" on="1"/>
      </contour>
    </TTGlyph>
    <TTGlyph name="Ecaron" xMin="74" yMin="0" xMax="593" yMax="891">
      <contour>
        <pt x="394" y="724" on="1"/>
        <pt x="242" y="724" on="1"/>
        <pt x="131" y="891" on="1"/>
        <pt x="253" y="891" on="1"/>
        <pt x="318" y="799" on="1"/>
        <pt x="383" y="891" on="1"/>
        <pt x="505" y="891" on="1"/>
      </contour>
      <contour>
        <pt x="231" y="123" on="1"/>
        <pt x="593" y="123" on="1"/>
        <pt x="593" y="0" on="1"/>
        <pt x="151" y="0" on="1"/>
        <pt x="74" y="0" on="1"/>
        <pt x="74" y="660" on="1"/>
        <pt x="231" y="660" on="1"/>
        <pt x="580" y="660" on="1"/>
        <pt x="580" y="537" on="1"/>
        <pt x="231" y="537" on="1"/>
        <pt x="231" y="386" on="1"/>
        <pt x="535" y="386" on="1"/>
        <pt x="535" y="268" on="1"/>
        <pt x="231" y="268" on="1"/>
      </contour>
    </TTGlyph>
    <TTGlyph name="Ecaron.swsh" xMin="5" yMin="0" xMax="849" yMax="891">
      <contour>
        <pt x="650" y="724" on="1"/>
        <pt x="498" y="724" on="1"/>
        <pt x="387" y="891" on="1"/>
        <pt x="509" y="891" on="1"/>
        <pt x="574" y="799" on="1"/>
        <pt x="639" y="891" on="1"/>
        <pt x="761" y="891" on="1"/>
      </contour>
      <contour>
        <pt x="486" y="123" on="1"/>
        <pt x="849" y="123" on="1"/>
        <pt x="849" y="0" on="1"/>
        <pt x="407" y="0" on="1"/>
        <pt x="330" y="0" on="1"/>
        <pt x="330" y="545" on="1"/>
        <pt x="252" y="545" on="1"/>
        <pt x="202" y="545" on="0"/>
        <pt x="147" y="498" on="0"/>
        <pt x="147" y="456" on="1"/>
        <pt x="147" y="420" on="0"/>
        <pt x="198" y="369" on="0"/>
        <pt x="240" y="364" on="1"/>
        <pt x="193" y="257" on="1"/>
        <pt x="111" y="264" on="0"/>
        <pt x="5" y="373" on="0"/>
        <pt x="5" y="459" on="1"/>
        <pt x="5" y="555" on="0"/>
        <pt x="129" y="660" on="0"/>
        <pt x="243" y="660" on="1"/>
        <pt x="407" y="660" on="1"/>
        <pt x="486" y="660" on="1"/>
        <pt x="835" y="660" on="1"/>
        <pt x="835" y="537" on="1"/>
        <pt x="486" y="537" on="1"/>
        <pt x="486" y="386" on="1"/>
        <pt x="791" y="386" on="1"/>
        <pt x="791" y="268" on="1"/>
        <pt x="486" y="268" on="1"/>
      </contour>
    </TTGlyph>
    <TTGlyph name="Ecaron.swsh.001" xMin="74" yMin="0" xMax="802" yMax="891">
      <contour>
        <pt x="407" y="724" on="1"/>
        <pt x="255" y="724" on="1"/>
        <pt x="144" y="891" on="1"/>
        <pt x="266" y="891" on="1"/>
        <pt x="331" y="799" on="1"/>
        <pt x="396" y="891" on="1"/>
        <pt x="518" y="891" on="1"/>
      </contour>
      <contour>
        <pt x="642" y="370" on="1"/>
        <pt x="719" y="360" on="0"/>
        <pt x="802" y="266" on="0"/>
        <pt x="802" y="191" on="1"/>
        <pt x="802" y="95" on="0"/>
        <pt x="687" y="0" on="0"/>
        <pt x="584" y="0" on="1"/>
        <pt x="407" y="0" on="1"/>
        <pt x="151" y="0" on="1"/>
        <pt x="74" y="0" on="1"/>
        <pt x="74" y="660" on="1"/>
        <pt x="231" y="660" on="1"/>
        <pt x="613" y="660" on="1"/>
        <pt x="613" y="537" on="1"/>
        <pt x="231" y="537" on="1"/>
        <pt x="231" y="385" on="1"/>
        <pt x="437" y="385" on="1"/>
        <pt x="437" y="269" on="1"/>
        <pt x="231" y="269" on="1"/>
        <pt x="231" y="123" on="1"/>
        <pt x="530" y="123" on="1"/>
        <pt x="561" y="123" on="1"/>
        <pt x="615" y="123" on="0"/>
        <pt x="665" y="158" on="0"/>
        <pt x="665" y="196" on="1"/>
        <pt x="665" y="265" on="0"/>
        <pt x="590" y="271" on="1"/>
      </contour>
    </TTGlyph>
    <TTGlyph name="Ecircumflex" xMin="74" yMin="0" xMax="593" yMax="890">
      <contour>
        <pt x="321" y="815" on="1"/>
        <pt x="256" y="723" on="1"/>
        <pt x="134" y="723" on="1"/>
        <pt x="245" y="890" on="1"/>
        <pt x="397" y="890" on="1"/>
        <pt x="508" y="723" on="1"/>
        <pt x="386" y="723" on="1"/>
      </contour>
      <contour>
        <pt x="231" y="123" on="1"/>
        <pt x="593" y="123" on="1"/>
        <pt x="593" y="0" on="1"/>
        <pt x="151" y="0" on="1"/>
        <pt x="74" y="0" on="1"/>
        <pt x="74" y="660" on="1"/>
        <pt x="231" y="660" on="1"/>
        <pt x="580" y="660" on="1"/>
        <pt x="580" y="537" on="1"/>
        <pt x="231" y="537" on="1"/>
        <pt x="231" y="386" on="1"/>
        <pt x="535" y="386" on="1"/>
        <pt x="535" y="268" on="1"/>
        <pt x="231" y="268" on="1"/>
      </contour>
    </TTGlyph>
    <TTGlyph name="Ecircumflex.swsh" xMin="5" yMin="0" xMax="849" yMax="890">
      <contour>
        <pt x="577" y="815" on="1"/>
        <pt x="512" y="723" on="1"/>
        <pt x="390" y="723" on="1"/>
        <pt x="501" y="890" on="1"/>
        <pt x="653" y="890" on="1"/>
        <pt x="764" y="723" on="1"/>
        <pt x="642" y="723" on="1"/>
      </contour>
      <contour>
        <pt x="486" y="123" on="1"/>
        <pt x="849" y="123" on="1"/>
        <pt x="849" y="0" on="1"/>
        <pt x="407" y="0" on="1"/>
        <pt x="330" y="0" on="1"/>
        <pt x="330" y="545" on="1"/>
        <pt x="252" y="545" on="1"/>
        <pt x="202" y="545" on="0"/>
        <pt x="147" y="498" on="0"/>
        <pt x="147" y="456" on="1"/>
        <pt x="147" y="420" on="0"/>
        <pt x="198" y="369" on="0"/>
        <pt x="240" y="364" on="1"/>
        <pt x="193" y="257" on="1"/>
        <pt x="111" y="264" on="0"/>
        <pt x="5" y="373" on="0"/>
        <pt x="5" y="459" on="1"/>
        <pt x="5" y="555" on="0"/>
        <pt x="129" y="660" on="0"/>
        <pt x="243" y="660" on="1"/>
        <pt x="407" y="660" on="1"/>
        <pt x="486" y="660" on="1"/>
        <pt x="835" y="660" on="1"/>
        <pt x="835" y="537" on="1"/>
        <pt x="486" y="537" on="1"/>
        <pt x="486" y="386" on="1"/>
        <pt x="791" y="386" on="1"/>
        <pt x="791" y="268" on="1"/>
        <pt x="486" y="268" on="1"/>
      </contour>
    </TTGlyph>
    <TTGlyph name="Ecircumflex.swsh.001" xMin="74" yMin="0" xMax="802" yMax="890">
      <contour>
        <pt x="334" y="815" on="1"/>
        <pt x="269" y="723" on="1"/>
        <pt x="147" y="723" on="1"/>
        <pt x="258" y="890" on="1"/>
        <pt x="410" y="890" on="1"/>
        <pt x="521" y="723" on="1"/>
        <pt x="399" y="723" on="1"/>
      </contour>
      <contour>
        <pt x="642" y="370" on="1"/>
        <pt x="719" y="360" on="0"/>
        <pt x="802" y="266" on="0"/>
        <pt x="802" y="191" on="1"/>
        <pt x="802" y="95" on="0"/>
        <pt x="687" y="0" on="0"/>
        <pt x="584" y="0" on="1"/>
        <pt x="407" y="0" on="1"/>
        <pt x="151" y="0" on="1"/>
        <pt x="74" y="0" on="1"/>
        <pt x="74" y="660" on="1"/>
        <pt x="231" y="660" on="1"/>
        <pt x="613" y="660" on="1"/>
        <pt x="613" y="537" on="1"/>
        <pt x="231" y="537" on="1"/>
        <pt x="231" y="385" on="1"/>
        <pt x="437" y="385" on="1"/>
        <pt x="437" y="269" on="1"/>
        <pt x="231" y="269" on="1"/>
        <pt x="231" y="123" on="1"/>
        <pt x="530" y="123" on="1"/>
        <pt x="561" y="123" on="1"/>
        <pt x="615" y="123" on="0"/>
        <pt x="665" y="158" on="0"/>
        <pt x="665" y="196" on="1"/>
        <pt x="665" y="265" on="0"/>
        <pt x="590" y="271" on="1"/>
      </contour>
    </TTGlyph>
    <TTGlyph name="Edieresis" xMin="74" yMin="0" xMax="593" yMax="879">
      <contour>
        <pt x="247" y="720" on="0"/>
        <pt x="181" y="720" on="0"/>
        <pt x="135" y="767" on="0"/>
        <pt x="135" y="799" on="1"/>
        <pt x="135" y="832" on="0"/>
        <pt x="181" y="879" on="0"/>
        <pt x="247" y="879" on="0"/>
        <pt x="294" y="832" on="0"/>
        <pt x="294" y="799" on="1"/>
        <pt x="294" y="767" on="0"/>
      </contour>
      <contour>
        <pt x="462" y="720" on="0"/>
        <pt x="396" y="720" on="0"/>
        <pt x="349" y="767" on="0"/>
        <pt x="349" y="799" on="1"/>
        <pt x="349" y="832" on="0"/>
        <pt x="396" y="879" on="0"/>
        <pt x="462" y="879" on="0"/>
        <pt x="509" y="832" on="0"/>
        <pt x="509" y="799" on="1"/>
        <pt x="509" y="767" on="0"/>
      </contour>
      <contour>
        <pt x="231" y="123" on="1"/>
        <pt x="593" y="123" on="1"/>
        <pt x="593" y="0" on="1"/>
        <pt x="151" y="0" on="1"/>
        <pt x="74" y="0" on="1"/>
        <pt x="74" y="660" on="1"/>
        <pt x="231" y="660" on="1"/>
        <pt x="580" y="660" on="1"/>
        <pt x="580" y="537" on="1"/>
        <pt x="231" y="537" on="1"/>
        <pt x="231" y="386" on="1"/>
        <pt x="535" y="386" on="1"/>
        <pt x="535" y="268" on="1"/>
        <pt x="231" y="268" on="1"/>
      </contour>
    </TTGlyph>
    <TTGlyph name="Edieresis.swsh" xMin="5" yMin="0" xMax="849" yMax="879">
      <contour>
        <pt x="502" y="720" on="0"/>
        <pt x="436" y="720" on="0"/>
        <pt x="390" y="767" on="0"/>
        <pt x="390" y="799" on="1"/>
        <pt x="390" y="832" on="0"/>
        <pt x="436" y="879" on="0"/>
        <pt x="502" y="879" on="0"/>
        <pt x="549" y="832" on="0"/>
        <pt x="549" y="799" on="1"/>
        <pt x="549" y="767" on="0"/>
      </contour>
      <contour>
        <pt x="717" y="720" on="0"/>
        <pt x="651" y="720" on="0"/>
        <pt x="604" y="767" on="0"/>
        <pt x="604" y="799" on="1"/>
        <pt x="604" y="832" on="0"/>
        <pt x="651" y="879" on="0"/>
        <pt x="717" y="879" on="0"/>
        <pt x="764" y="832" on="0"/>
        <pt x="764" y="799" on="1"/>
        <pt x="764" y="767" on="0"/>
      </contour>
      <contour>
        <pt x="486" y="123" on="1"/>
        <pt x="849" y="123" on="1"/>
        <pt x="849" y="0" on="1"/>
        <pt x="407" y="0" on="1"/>
        <pt x="330" y="0" on="1"/>
        <pt x="330" y="545" on="1"/>
        <pt x="252" y="545" on="1"/>
        <pt x="202" y="545" on="0"/>
        <pt x="147" y="498" on="0"/>
        <pt x="147" y="456" on="1"/>
        <pt x="147" y="420" on="0"/>
        <pt x="198" y="369" on="0"/>
        <pt x="240" y="364" on="1"/>
        <pt x="193" y="257" on="1"/>
        <pt x="111" y="264" on="0"/>
        <pt x="5" y="373" on="0"/>
        <pt x="5" y="459" on="1"/>
        <pt x="5" y="555" on="0"/>
        <pt x="129" y="660" on="0"/>
        <pt x="243" y="660" on="1"/>
        <pt x="407" y="660" on="1"/>
        <pt x="486" y="660" on="1"/>
        <pt x="835" y="660" on="1"/>
        <pt x="835" y="537" on="1"/>
        <pt x="486" y="537" on="1"/>
        <pt x="486" y="386" on="1"/>
        <pt x="791" y="386" on="1"/>
        <pt x="791" y="268" on="1"/>
        <pt x="486" y="268" on="1"/>
      </contour>
    </TTGlyph>
    <TTGlyph name="Edieresis.swsh.001" xMin="74" yMin="0" xMax="802" yMax="879">
      <contour>
        <pt x="260" y="720" on="0"/>
        <pt x="194" y="720" on="0"/>
        <pt x="148" y="767" on="0"/>
        <pt x="148" y="799" on="1"/>
        <pt x="148" y="832" on="0"/>
        <pt x="194" y="879" on="0"/>
        <pt x="260" y="879" on="0"/>
        <pt x="307" y="832" on="0"/>
        <pt x="307" y="799" on="1"/>
        <pt x="307" y="767" on="0"/>
      </contour>
      <contour>
        <pt x="475" y="720" on="0"/>
        <pt x="409" y="720" on="0"/>
        <pt x="362" y="767" on="0"/>
        <pt x="362" y="799" on="1"/>
        <pt x="362" y="832" on="0"/>
        <pt x="409" y="879" on="0"/>
        <pt x="475" y="879" on="0"/>
        <pt x="522" y="832" on="0"/>
        <pt x="522" y="799" on="1"/>
        <pt x="522" y="767" on="0"/>
      </contour>
      <contour>
        <pt x="642" y="370" on="1"/>
        <pt x="719" y="360" on="0"/>
        <pt x="802" y="266" on="0"/>
        <pt x="802" y="191" on="1"/>
        <pt x="802" y="95" on="0"/>
        <pt x="687" y="0" on="0"/>
        <pt x="584" y="0" on="1"/>
        <pt x="407" y="0" on="1"/>
        <pt x="151" y="0" on="1"/>
        <pt x="74" y="0" on="1"/>
        <pt x="74" y="660" on="1"/>
        <pt x="231" y="660" on="1"/>
        <pt x="613" y="660" on="1"/>
        <pt x="613" y="537" on="1"/>
        <pt x="231" y="537" on="1"/>
        <pt x="231" y="385" on="1"/>
        <pt x="437" y="385" on="1"/>
        <pt x="437" y="269" on="1"/>
        <pt x="231" y="269" on="1"/>
        <pt x="231" y="123" on="1"/>
        <pt x="530" y="123" on="1"/>
        <pt x="561" y="123" on="1"/>
        <pt x="615" y="123" on="0"/>
        <pt x="665" y="158" on="0"/>
        <pt x="665" y="196" on="1"/>
        <pt x="665" y="265" on="0"/>
        <pt x="590" y="271" on="1"/>
      </contour>
    </TTGlyph>
    <TTGlyph name="Edotaccent" xMin="74" yMin="0" xMax="593" yMax="900">
      <contour>
        <pt x="358" y="727" on="0"/>
        <pt x="286" y="727" on="0"/>
        <pt x="235" y="778" on="0"/>
        <pt x="235" y="814" on="1"/>
        <pt x="235" y="849" on="0"/>
        <pt x="286" y="900" on="0"/>
        <pt x="358" y="900" on="0"/>
        <pt x="409" y="849" on="0"/>
        <pt x="409" y="814" on="1"/>
        <pt x="409" y="778" on="0"/>
      </contour>
      <contour>
        <pt x="231" y="123" on="1"/>
        <pt x="593" y="123" on="1"/>
        <pt x="593" y="0" on="1"/>
        <pt x="151" y="0" on="1"/>
        <pt x="74" y="0" on="1"/>
        <pt x="74" y="660" on="1"/>
        <pt x="231" y="660" on="1"/>
        <pt x="580" y="660" on="1"/>
        <pt x="580" y="537" on="1"/>
        <pt x="231" y="537" on="1"/>
        <pt x="231" y="386" on="1"/>
        <pt x="535" y="386" on="1"/>
        <pt x="535" y="268" on="1"/>
        <pt x="231" y="268" on="1"/>
      </contour>
    </TTGlyph>
    <TTGlyph name="Edotaccent.swsh" xMin="5" yMin="0" xMax="849" yMax="900">
      <contour>
        <pt x="614" y="727" on="0"/>
        <pt x="542" y="727" on="0"/>
        <pt x="491" y="778" on="0"/>
        <pt x="491" y="814" on="1"/>
        <pt x="491" y="849" on="0"/>
        <pt x="542" y="900" on="0"/>
        <pt x="614" y="900" on="0"/>
        <pt x="665" y="849" on="0"/>
        <pt x="665" y="814" on="1"/>
        <pt x="665" y="778" on="0"/>
      </contour>
      <contour>
        <pt x="486" y="123" on="1"/>
        <pt x="849" y="123" on="1"/>
        <pt x="849" y="0" on="1"/>
        <pt x="407" y="0" on="1"/>
        <pt x="330" y="0" on="1"/>
        <pt x="330" y="545" on="1"/>
        <pt x="252" y="545" on="1"/>
        <pt x="202" y="545" on="0"/>
        <pt x="147" y="498" on="0"/>
        <pt x="147" y="456" on="1"/>
        <pt x="147" y="420" on="0"/>
        <pt x="198" y="369" on="0"/>
        <pt x="240" y="364" on="1"/>
        <pt x="193" y="257" on="1"/>
        <pt x="111" y="264" on="0"/>
        <pt x="5" y="373" on="0"/>
        <pt x="5" y="459" on="1"/>
        <pt x="5" y="555" on="0"/>
        <pt x="129" y="660" on="0"/>
        <pt x="243" y="660" on="1"/>
        <pt x="407" y="660" on="1"/>
        <pt x="486" y="660" on="1"/>
        <pt x="835" y="660" on="1"/>
        <pt x="835" y="537" on="1"/>
        <pt x="486" y="537" on="1"/>
        <pt x="486" y="386" on="1"/>
        <pt x="791" y="386" on="1"/>
        <pt x="791" y="268" on="1"/>
        <pt x="486" y="268" on="1"/>
      </contour>
    </TTGlyph>
    <TTGlyph name="Edotaccent.swsh.001" xMin="74" yMin="0" xMax="802" yMax="900">
      <contour>
        <pt x="371" y="727" on="0"/>
        <pt x="299" y="727" on="0"/>
        <pt x="248" y="778" on="0"/>
        <pt x="248" y="814" on="1"/>
        <pt x="248" y="849" on="0"/>
        <pt x="299" y="900" on="0"/>
        <pt x="371" y="900" on="0"/>
        <pt x="422" y="849" on="0"/>
        <pt x="422" y="814" on="1"/>
        <pt x="422" y="778" on="0"/>
      </contour>
      <contour>
        <pt x="642" y="370" on="1"/>
        <pt x="719" y="360" on="0"/>
        <pt x="802" y="266" on="0"/>
        <pt x="802" y="191" on="1"/>
        <pt x="802" y="95" on="0"/>
        <pt x="687" y="0" on="0"/>
        <pt x="584" y="0" on="1"/>
        <pt x="407" y="0" on="1"/>
        <pt x="151" y="0" on="1"/>
        <pt x="74" y="0" on="1"/>
        <pt x="74" y="660" on="1"/>
        <pt x="231" y="660" on="1"/>
        <pt x="613" y="660" on="1"/>
        <pt x="613" y="537" on="1"/>
        <pt x="231" y="537" on="1"/>
        <pt x="231" y="385" on="1"/>
        <pt x="437" y="385" on="1"/>
        <pt x="437" y="269" on="1"/>
        <pt x="231" y="269" on="1"/>
        <pt x="231" y="123" on="1"/>
        <pt x="530" y="123" on="1"/>
        <pt x="561" y="123" on="1"/>
        <pt x="615" y="123" on="0"/>
        <pt x="665" y="158" on="0"/>
        <pt x="665" y="196" on="1"/>
        <pt x="665" y="265" on="0"/>
        <pt x="590" y="271" on="1"/>
      </contour>
    </TTGlyph>
    <TTGlyph name="Egrave" xMin="74" yMin="0" xMax="593" yMax="884">
      <contour>
        <pt x="396" y="726" on="1"/>
        <pt x="267" y="726" on="1"/>
        <pt x="203" y="884" on="1"/>
        <pt x="341" y="884" on="1"/>
      </contour>
      <contour>
        <pt x="231" y="123" on="1"/>
        <pt x="593" y="123" on="1"/>
        <pt x="593" y="0" on="1"/>
        <pt x="151" y="0" on="1"/>
        <pt x="74" y="0" on="1"/>
        <pt x="74" y="660" on="1"/>
        <pt x="231" y="660" on="1"/>
        <pt x="580" y="660" on="1"/>
        <pt x="580" y="537" on="1"/>
        <pt x="231" y="537" on="1"/>
        <pt x="231" y="386" on="1"/>
        <pt x="535" y="386" on="1"/>
        <pt x="535" y="268" on="1"/>
        <pt x="231" y="268" on="1"/>
      </contour>
    </TTGlyph>
    <TTGlyph name="Egrave.swsh" xMin="5" yMin="0" xMax="849" yMax="884">
      <contour>
        <pt x="630" y="726" on="1"/>
        <pt x="501" y="726" on="1"/>
        <pt x="437" y="884" on="1"/>
        <pt x="575" y="884" on="1"/>
      </contour>
      <contour>
        <pt x="486" y="123" on="1"/>
        <pt x="849" y="123" on="1"/>
        <pt x="849" y="0" on="1"/>
        <pt x="407" y="0" on="1"/>
        <pt x="330" y="0" on="1"/>
        <pt x="330" y="545" on="1"/>
        <pt x="252" y="545" on="1"/>
        <pt x="202" y="545" on="0"/>
        <pt x="147" y="498" on="0"/>
        <pt x="147" y="456" on="1"/>
        <pt x="147" y="420" on="0"/>
        <pt x="198" y="369" on="0"/>
        <pt x="240" y="364" on="1"/>
        <pt x="193" y="257" on="1"/>
        <pt x="111" y="264" on="0"/>
        <pt x="5" y="373" on="0"/>
        <pt x="5" y="459" on="1"/>
        <pt x="5" y="555" on="0"/>
        <pt x="129" y="660" on="0"/>
        <pt x="243" y="660" on="1"/>
        <pt x="407" y="660" on="1"/>
        <pt x="486" y="660" on="1"/>
        <pt x="835" y="660" on="1"/>
        <pt x="835" y="537" on="1"/>
        <pt x="486" y="537" on="1"/>
        <pt x="486" y="386" on="1"/>
        <pt x="791" y="386" on="1"/>
        <pt x="791" y="268" on="1"/>
        <pt x="486" y="268" on="1"/>
      </contour>
    </TTGlyph>
    <TTGlyph name="Egrave.swsh.001" xMin="74" yMin="0" xMax="802" yMax="884">
      <contour>
        <pt x="387" y="726" on="1"/>
        <pt x="258" y="726" on="1"/>
        <pt x="194" y="884" on="1"/>
        <pt x="332" y="884" on="1"/>
      </contour>
      <contour>
        <pt x="642" y="370" on="1"/>
        <pt x="719" y="360" on="0"/>
        <pt x="802" y="266" on="0"/>
        <pt x="802" y="191" on="1"/>
        <pt x="802" y="95" on="0"/>
        <pt x="687" y="0" on="0"/>
        <pt x="584" y="0" on="1"/>
        <pt x="407" y="0" on="1"/>
        <pt x="151" y="0" on="1"/>
        <pt x="74" y="0" on="1"/>
        <pt x="74" y="660" on="1"/>
        <pt x="231" y="660" on="1"/>
        <pt x="613" y="660" on="1"/>
        <pt x="613" y="537" on="1"/>
        <pt x="231" y="537" on="1"/>
        <pt x="231" y="385" on="1"/>
        <pt x="437" y="385" on="1"/>
        <pt x="437" y="269" on="1"/>
        <pt x="231" y="269" on="1"/>
        <pt x="231" y="123" on="1"/>
        <pt x="530" y="123" on="1"/>
        <pt x="561" y="123" on="1"/>
        <pt x="615" y="123" on="0"/>
        <pt x="665" y="158" on="0"/>
        <pt x="665" y="196" on="1"/>
        <pt x="665" y="265" on="0"/>
        <pt x="590" y="271" on="1"/>
      </contour>
    </TTGlyph>
    <TTGlyph name="Emacron" xMin="74" yMin="0" xMax="593" yMax="832">
      <contour>
        <pt x="505" y="832" on="1"/>
        <pt x="505" y="734" on="1"/>
        <pt x="137" y="734" on="1"/>
        <pt x="137" y="832" on="1"/>
      </contour>
      <contour>
        <pt x="231" y="123" on="1"/>
        <pt x="593" y="123" on="1"/>
        <pt x="593" y="0" on="1"/>
        <pt x="151" y="0" on="1"/>
        <pt x="74" y="0" on="1"/>
        <pt x="74" y="660" on="1"/>
        <pt x="231" y="660" on="1"/>
        <pt x="580" y="660" on="1"/>
        <pt x="580" y="537" on="1"/>
        <pt x="231" y="537" on="1"/>
        <pt x="231" y="386" on="1"/>
        <pt x="535" y="386" on="1"/>
        <pt x="535" y="268" on="1"/>
        <pt x="231" y="268" on="1"/>
      </contour>
    </TTGlyph>
    <TTGlyph name="Emacron.swsh" xMin="5" yMin="0" xMax="849" yMax="832">
      <contour>
        <pt x="761" y="832" on="1"/>
        <pt x="761" y="734" on="1"/>
        <pt x="393" y="734" on="1"/>
        <pt x="393" y="832" on="1"/>
      </contour>
      <contour>
        <pt x="486" y="123" on="1"/>
        <pt x="849" y="123" on="1"/>
        <pt x="849" y="0" on="1"/>
        <pt x="407" y="0" on="1"/>
        <pt x="330" y="0" on="1"/>
        <pt x="330" y="545" on="1"/>
        <pt x="252" y="545" on="1"/>
        <pt x="202" y="545" on="0"/>
        <pt x="147" y="498" on="0"/>
        <pt x="147" y="456" on="1"/>
        <pt x="147" y="420" on="0"/>
        <pt x="198" y="369" on="0"/>
        <pt x="240" y="364" on="1"/>
        <pt x="193" y="257" on="1"/>
        <pt x="111" y="264" on="0"/>
        <pt x="5" y="373" on="0"/>
        <pt x="5" y="459" on="1"/>
        <pt x="5" y="555" on="0"/>
        <pt x="129" y="660" on="0"/>
        <pt x="243" y="660" on="1"/>
        <pt x="407" y="660" on="1"/>
        <pt x="486" y="660" on="1"/>
        <pt x="835" y="660" on="1"/>
        <pt x="835" y="537" on="1"/>
        <pt x="486" y="537" on="1"/>
        <pt x="486" y="386" on="1"/>
        <pt x="791" y="386" on="1"/>
        <pt x="791" y="268" on="1"/>
        <pt x="486" y="268" on="1"/>
      </contour>
    </TTGlyph>
    <TTGlyph name="Emacron.swsh.001" xMin="74" yMin="0" xMax="802" yMax="832">
      <contour>
        <pt x="518" y="832" on="1"/>
        <pt x="518" y="734" on="1"/>
        <pt x="150" y="734" on="1"/>
        <pt x="150" y="832" on="1"/>
      </contour>
      <contour>
        <pt x="642" y="370" on="1"/>
        <pt x="719" y="360" on="0"/>
        <pt x="802" y="266" on="0"/>
        <pt x="802" y="191" on="1"/>
        <pt x="802" y="95" on="0"/>
        <pt x="687" y="0" on="0"/>
        <pt x="584" y="0" on="1"/>
        <pt x="407" y="0" on="1"/>
        <pt x="151" y="0" on="1"/>
        <pt x="74" y="0" on="1"/>
        <pt x="74" y="660" on="1"/>
        <pt x="231" y="660" on="1"/>
        <pt x="613" y="660" on="1"/>
        <pt x="613" y="537" on="1"/>
        <pt x="231" y="537" on="1"/>
        <pt x="231" y="385" on="1"/>
        <pt x="437" y="385" on="1"/>
        <pt x="437" y="269" on="1"/>
        <pt x="231" y="269" on="1"/>
        <pt x="231" y="123" on="1"/>
        <pt x="530" y="123" on="1"/>
        <pt x="561" y="123" on="1"/>
        <pt x="615" y="123" on="0"/>
        <pt x="665" y="158" on="0"/>
        <pt x="665" y="196" on="1"/>
        <pt x="665" y="265" on="0"/>
        <pt x="590" y="271" on="1"/>
      </contour>
    </TTGlyph>
    <TTGlyph name="Eogonek" xMin="74" yMin="-215" xMax="601" yMax="660">
      <contour>
        <pt x="580" y="-116" on="1"/>
        <pt x="601" y="-193" on="1"/>
        <pt x="567" y="-215" on="0"/>
        <pt x="501" y="-215" on="1"/>
        <pt x="441" y="-215" on="0"/>
        <pt x="366" y="-159" on="0"/>
        <pt x="366" y="-107" on="1"/>
        <pt x="366" y="-35" on="0"/>
        <pt x="446" y="0" on="1"/>
        <pt x="151" y="0" on="1"/>
        <pt x="74" y="0" on="1"/>
        <pt x="74" y="660" on="1"/>
        <pt x="231" y="660" on="1"/>
        <pt x="580" y="660" on="1"/>
        <pt x="580" y="537" on="1"/>
        <pt x="231" y="537" on="1"/>
        <pt x="231" y="386" on="1"/>
        <pt x="535" y="386" on="1"/>
        <pt x="535" y="268" on="1"/>
        <pt x="231" y="268" on="1"/>
        <pt x="231" y="123" on="1"/>
        <pt x="593" y="123" on="1"/>
        <pt x="593" y="1" on="1"/>
        <pt x="594" y="0" on="1"/>
        <pt x="528" y="-14" on="0"/>
        <pt x="475" y="-54" on="0"/>
        <pt x="475" y="-81" on="1"/>
        <pt x="475" y="-126" on="0"/>
        <pt x="532" y="-126" on="1"/>
        <pt x="564" y="-126" on="0"/>
      </contour>
    </TTGlyph>
    <TTGlyph name="Eogonek.swsh" xMin="5" yMin="-215" xMax="857" yMax="660">
      <contour>
        <pt x="836" y="-116" on="1"/>
        <pt x="857" y="-193" on="1"/>
        <pt x="823" y="-215" on="0"/>
        <pt x="757" y="-215" on="1"/>
        <pt x="697" y="-215" on="0"/>
        <pt x="622" y="-159" on="0"/>
        <pt x="622" y="-107" on="1"/>
        <pt x="622" y="-35" on="0"/>
        <pt x="702" y="0" on="1"/>
        <pt x="407" y="0" on="1"/>
        <pt x="330" y="0" on="1"/>
        <pt x="330" y="545" on="1"/>
        <pt x="252" y="545" on="1"/>
        <pt x="202" y="545" on="0"/>
        <pt x="147" y="498" on="0"/>
        <pt x="147" y="456" on="1"/>
        <pt x="147" y="420" on="0"/>
        <pt x="198" y="369" on="0"/>
        <pt x="240" y="364" on="1"/>
        <pt x="193" y="257" on="1"/>
        <pt x="111" y="264" on="0"/>
        <pt x="5" y="373" on="0"/>
        <pt x="5" y="459" on="1"/>
        <pt x="5" y="555" on="0"/>
        <pt x="129" y="660" on="0"/>
        <pt x="243" y="660" on="1"/>
        <pt x="407" y="660" on="1"/>
        <pt x="486" y="660" on="1"/>
        <pt x="835" y="660" on="1"/>
        <pt x="835" y="537" on="1"/>
        <pt x="486" y="537" on="1"/>
        <pt x="486" y="386" on="1"/>
        <pt x="791" y="386" on="1"/>
        <pt x="791" y="268" on="1"/>
        <pt x="486" y="268" on="1"/>
        <pt x="486" y="123" on="1"/>
        <pt x="849" y="123" on="1"/>
        <pt x="849" y="1" on="1"/>
        <pt x="850" y="0" on="1"/>
        <pt x="784" y="-14" on="0"/>
        <pt x="731" y="-54" on="0"/>
        <pt x="731" y="-81" on="1"/>
        <pt x="731" y="-126" on="0"/>
        <pt x="788" y="-126" on="1"/>
        <pt x="820" y="-126" on="0"/>
      </contour>
    </TTGlyph>
    <TTGlyph name="Eth" xMin="10" yMin="0" xMax="703" yMax="660">
      <contour>
        <pt x="380" y="660" on="1"/>
        <pt x="535" y="660" on="0"/>
        <pt x="703" y="488" on="0"/>
        <pt x="703" y="172" on="0"/>
        <pt x="535" y="0" on="0"/>
        <pt x="380" y="0" on="1"/>
        <pt x="200" y="0" on="1"/>
        <pt x="96" y="0" on="1"/>
        <pt x="96" y="278" on="1"/>
        <pt x="10" y="278" on="1"/>
        <pt x="10" y="383" on="1"/>
        <pt x="96" y="383" on="1"/>
        <pt x="96" y="660" on="1"/>
        <pt x="253" y="660" on="1"/>
      </contour>
      <contour>
        <pt x="368" y="121" on="1"/>
        <pt x="455" y="121" on="0"/>
        <pt x="547" y="233" on="0"/>
        <pt x="547" y="427" on="0"/>
        <pt x="455" y="540" on="0"/>
        <pt x="368" y="540" on="1"/>
        <pt x="253" y="540" on="1"/>
        <pt x="253" y="383" on="1"/>
        <pt x="394" y="383" on="1"/>
        <pt x="394" y="278" on="1"/>
        <pt x="253" y="278" on="1"/>
        <pt x="253" y="121" on="1"/>
      </contour>
    </TTGlyph>
    <TTGlyph name="Euro" xMin="-67" yMin="-19" xMax="664" yMax="679">
      <contour>
        <pt x="538" y="214" on="1"/>
        <pt x="664" y="137" on="1"/>
        <pt x="617" y="65" on="0"/>
        <pt x="464" y="-19" on="0"/>
        <pt x="375" y="-19" on="1"/>
        <pt x="261" y="-19" on="0"/>
        <pt x="80" y="113" on="0"/>
        <pt x="45" y="218" on="1"/>
        <pt x="-67" y="218" on="1"/>
        <pt x="-35" y="294" on="1"/>
        <pt x="28" y="294" on="1"/>
        <pt x="26" y="318" on="0"/>
        <pt x="26" y="331" on="1"/>
        <pt x="26" y="345" on="0"/>
        <pt x="27" y="352" on="1"/>
        <pt x="-67" y="352" on="1"/>
        <pt x="-35" y="428" on="1"/>
        <pt x="40" y="428" on="1"/>
        <pt x="72" y="538" on="0"/>
        <pt x="257" y="679" on="0"/>
        <pt x="375" y="679" on="1"/>
        <pt x="464" y="679" on="0"/>
        <pt x="616" y="596" on="0"/>
        <pt x="663" y="525" on="1"/>
        <pt x="538" y="447" on="1"/>
        <pt x="477" y="531" on="0"/>
        <pt x="375" y="531" on="1"/>
        <pt x="320" y="531" on="0"/>
        <pt x="226" y="475" on="0"/>
        <pt x="200" y="428" on="1"/>
        <pt x="448" y="428" on="1"/>
        <pt x="423" y="352" on="1"/>
        <pt x="176" y="352" on="1"/>
        <pt x="175" y="345" on="0"/>
        <pt x="175" y="330" on="1"/>
        <pt x="175" y="310" on="0"/>
        <pt x="178" y="294" on="1"/>
        <pt x="409" y="294" on="1"/>
        <pt x="385" y="218" on="1"/>
        <pt x="209" y="218" on="1"/>
        <pt x="237" y="177" on="0"/>
        <pt x="324" y="130" on="0"/>
        <pt x="375" y="130" on="1"/>
        <pt x="425" y="130" on="0"/>
        <pt x="511" y="175" on="0"/>
      </contour>
    </TTGlyph>
    <TTGlyph name="Euro.tf" xMin="10" yMin="-10" xMax="581" yMax="670">
      <contour>
        <pt x="463" y="205" on="1"/>
        <pt x="581" y="170" on="1"/>
        <pt x="564" y="87" on="0"/>
        <pt x="439" y="-10" on="0"/>
        <pt x="346" y="-10" on="1"/>
        <pt x="247" y="-10" on="0"/>
        <pt x="118" y="104" on="0"/>
        <pt x="95" y="210" on="1"/>
        <pt x="10" y="210" on="1"/>
        <pt x="10" y="286" on="1"/>
        <pt x="84" y="286" on="1"/>
        <pt x="83" y="300" on="0"/>
        <pt x="83" y="330" on="1"/>
        <pt x="83" y="351" on="1"/>
        <pt x="10" y="351" on="1"/>
        <pt x="10" y="426" on="1"/>
        <pt x="91" y="426" on="1"/>
        <pt x="111" y="543" on="0"/>
        <pt x="246" y="670" on="0"/>
        <pt x="352" y="670" on="1"/>
        <pt x="536" y="670" on="0"/>
        <pt x="573" y="519" on="1"/>
        <pt x="457" y="464" on="1"/>
        <pt x="445" y="559" on="0"/>
        <pt x="357" y="559" on="1"/>
        <pt x="308" y="559" on="0"/>
        <pt x="239" y="490" on="0"/>
        <pt x="225" y="426" on="1"/>
        <pt x="403" y="426" on="1"/>
        <pt x="384" y="351" on="1"/>
        <pt x="215" y="351" on="1"/>
        <pt x="215" y="330" on="1"/>
        <pt x="215" y="314" on="0"/>
        <pt x="217" y="286" on="1"/>
        <pt x="369" y="286" on="1"/>
        <pt x="350" y="210" on="1"/>
        <pt x="230" y="210" on="1"/>
        <pt x="262" y="102" on="0"/>
        <pt x="348" y="102" on="1"/>
        <pt x="451" y="102" on="0"/>
      </contour>
    </TTGlyph>
    <TTGlyph name="F" xMin="70" yMin="0" xMax="575" yMax="660">
      <contour>
        <pt x="575" y="524" on="1"/>
        <pt x="227" y="524" on="1"/>
        <pt x="227" y="360" on="1"/>
        <pt x="530" y="360" on="1"/>
        <pt x="530" y="224" on="1"/>
        <pt x="227" y="224" on="1"/>
        <pt x="227" y="0" on="1"/>
        <pt x="70" y="0" on="1"/>
        <pt x="70" y="660" on="1"/>
        <pt x="227" y="660" on="1"/>
        <pt x="575" y="660" on="1"/>
      </contour>
    </TTGlyph>
    <TTGlyph name="F.swsh" xMin="5" yMin="0" xMax="818" yMax="660">
      <contour>
        <pt x="818" y="524" on="1"/>
        <pt x="470" y="524" on="1"/>
        <pt x="470" y="360" on="1"/>
        <pt x="773" y="360" on="1"/>
        <pt x="773" y="224" on="1"/>
        <pt x="470" y="224" on="1"/>
        <pt x="470" y="0" on="1"/>
        <pt x="313" y="0" on="1"/>
        <pt x="313" y="545" on="1"/>
        <pt x="252" y="545" on="1"/>
        <pt x="202" y="545" on="0"/>
        <pt x="147" y="498" on="0"/>
        <pt x="147" y="456" on="1"/>
        <pt x="147" y="420" on="0"/>
        <pt x="198" y="369" on="0"/>
        <pt x="240" y="364" on="1"/>
        <pt x="193" y="257" on="1"/>
        <pt x="111" y="264" on="0"/>
        <pt x="5" y="373" on="0"/>
        <pt x="5" y="459" on="1"/>
        <pt x="5" y="555" on="0"/>
        <pt x="129" y="660" on="0"/>
        <pt x="243" y="660" on="1"/>
        <pt x="390" y="660" on="1"/>
        <pt x="475" y="660" on="1"/>
        <pt x="818" y="660" on="1"/>
      </contour>
    </TTGlyph>
    <TTGlyph name="G" xMin="32" yMin="-13" xMax="715" yMax="671">
      <contour>
        <pt x="405" y="356" on="1"/>
        <pt x="715" y="356" on="1"/>
        <pt x="715" y="317" on="1"/>
        <pt x="711" y="178" on="0"/>
        <pt x="511" y="-13" on="0"/>
        <pt x="372" y="-13" on="1"/>
        <pt x="230" y="-13" on="0"/>
        <pt x="32" y="187" on="0"/>
        <pt x="32" y="330" on="1"/>
        <pt x="32" y="472" on="0"/>
        <pt x="230" y="671" on="0"/>
        <pt x="372" y="671" on="1"/>
        <pt x="452" y="671" on="0"/>
        <pt x="593" y="602" on="0"/>
        <pt x="641" y="541" on="1"/>
        <pt x="521" y="456" on="1"/>
        <pt x="464" y="526" on="0"/>
        <pt x="372" y="526" on="1"/>
        <pt x="291" y="526" on="0"/>
        <pt x="179" y="412" on="0"/>
        <pt x="179" y="329" on="1"/>
        <pt x="179" y="248" on="0"/>
        <pt x="291" y="133" on="0"/>
        <pt x="372" y="133" on="1"/>
        <pt x="428" y="133" on="0"/>
        <pt x="521" y="190" on="0"/>
        <pt x="546" y="237" on="1"/>
        <pt x="405" y="237" on="1"/>
      </contour>
    </TTGlyph>
    <TTGlyph name="G.ss04" xMin="26" yMin="-19" xMax="724" yMax="679">
      <contour>
        <pt x="409" y="348" on="1"/>
        <pt x="724" y="348" on="1"/>
        <pt x="724" y="318" on="1"/>
        <pt x="719" y="178" on="0"/>
        <pt x="516" y="-19" on="0"/>
        <pt x="375" y="-19" on="1"/>
        <pt x="231" y="-19" on="0"/>
        <pt x="26" y="186" on="0"/>
        <pt x="26" y="331" on="1"/>
        <pt x="26" y="475" on="0"/>
        <pt x="231" y="679" on="0"/>
        <pt x="375" y="679" on="1"/>
        <pt x="456" y="679" on="0"/>
        <pt x="599" y="608" on="0"/>
        <pt x="648" y="547" on="1"/>
        <pt x="526" y="460" on="1"/>
        <pt x="467" y="531" on="0"/>
        <pt x="375" y="531" on="1"/>
        <pt x="293" y="531" on="0"/>
        <pt x="177" y="413" on="0"/>
        <pt x="177" y="330" on="1"/>
        <pt x="177" y="248" on="0"/>
        <pt x="293" y="130" on="0"/>
        <pt x="375" y="130" on="1"/>
        <pt x="429" y="130" on="0"/>
        <pt x="520" y="184" on="0"/>
        <pt x="547" y="228" on="1"/>
        <pt x="409" y="228" on="1"/>
      </contour>
    </TTGlyph>
    <TTGlyph name="Gbreve" xMin="32" yMin="-13" xMax="715" yMax="879">
      <contour>
        <pt x="449" y="719" on="0"/>
        <pt x="295" y="719" on="0"/>
        <pt x="207" y="805" on="0"/>
        <pt x="207" y="879" on="1"/>
        <pt x="309" y="879" on="1"/>
        <pt x="309" y="848" on="0"/>
        <pt x="344" y="808" on="0"/>
        <pt x="372" y="808" on="1"/>
        <pt x="401" y="808" on="0"/>
        <pt x="435" y="848" on="0"/>
        <pt x="435" y="879" on="1"/>
        <pt x="538" y="879" on="1"/>
        <pt x="538" y="805" on="0"/>
      </contour>
      <contour>
        <pt x="405" y="356" on="1"/>
        <pt x="715" y="356" on="1"/>
        <pt x="715" y="317" on="1"/>
        <pt x="711" y="178" on="0"/>
        <pt x="511" y="-13" on="0"/>
        <pt x="372" y="-13" on="1"/>
        <pt x="230" y="-13" on="0"/>
        <pt x="32" y="187" on="0"/>
        <pt x="32" y="330" on="1"/>
        <pt x="32" y="472" on="0"/>
        <pt x="230" y="671" on="0"/>
        <pt x="372" y="671" on="1"/>
        <pt x="452" y="671" on="0"/>
        <pt x="593" y="602" on="0"/>
        <pt x="641" y="541" on="1"/>
        <pt x="521" y="456" on="1"/>
        <pt x="464" y="526" on="0"/>
        <pt x="372" y="526" on="1"/>
        <pt x="291" y="526" on="0"/>
        <pt x="179" y="412" on="0"/>
        <pt x="179" y="329" on="1"/>
        <pt x="179" y="248" on="0"/>
        <pt x="291" y="133" on="0"/>
        <pt x="372" y="133" on="1"/>
        <pt x="428" y="133" on="0"/>
        <pt x="521" y="190" on="0"/>
        <pt x="546" y="237" on="1"/>
        <pt x="405" y="237" on="1"/>
      </contour>
    </TTGlyph>
    <TTGlyph name="Gbreve.ss04" xMin="26" yMin="-19" xMax="724" yMax="879">
      <contour>
        <pt x="441" y="719" on="0"/>
        <pt x="287" y="719" on="0"/>
        <pt x="199" y="805" on="0"/>
        <pt x="199" y="879" on="1"/>
        <pt x="301" y="879" on="1"/>
        <pt x="301" y="848" on="0"/>
        <pt x="336" y="808" on="0"/>
        <pt x="364" y="808" on="1"/>
        <pt x="393" y="808" on="0"/>
        <pt x="427" y="848" on="0"/>
        <pt x="427" y="879" on="1"/>
        <pt x="530" y="879" on="1"/>
        <pt x="530" y="805" on="0"/>
      </contour>
      <contour>
        <pt x="409" y="348" on="1"/>
        <pt x="724" y="348" on="1"/>
        <pt x="724" y="318" on="1"/>
        <pt x="719" y="178" on="0"/>
        <pt x="516" y="-19" on="0"/>
        <pt x="375" y="-19" on="1"/>
        <pt x="231" y="-19" on="0"/>
        <pt x="26" y="186" on="0"/>
        <pt x="26" y="331" on="1"/>
        <pt x="26" y="475" on="0"/>
        <pt x="231" y="679" on="0"/>
        <pt x="375" y="679" on="1"/>
        <pt x="456" y="679" on="0"/>
        <pt x="599" y="608" on="0"/>
        <pt x="648" y="547" on="1"/>
        <pt x="526" y="460" on="1"/>
        <pt x="467" y="531" on="0"/>
        <pt x="375" y="531" on="1"/>
        <pt x="293" y="531" on="0"/>
        <pt x="177" y="413" on="0"/>
        <pt x="177" y="330" on="1"/>
        <pt x="177" y="248" on="0"/>
        <pt x="293" y="130" on="0"/>
        <pt x="375" y="130" on="1"/>
        <pt x="429" y="130" on="0"/>
        <pt x="520" y="184" on="0"/>
        <pt x="547" y="228" on="1"/>
        <pt x="409" y="228" on="1"/>
      </contour>
    </TTGlyph>
    <TTGlyph name="Gcommaaccent.sc" xMin="26" yMin="-243" xMax="615" yMax="574">
      <contour>
        <pt x="615" y="298" on="1"/>
        <pt x="615" y="271" on="1"/>
        <pt x="614" y="270" on="1"/>
        <pt x="610" y="151" on="0"/>
        <pt x="440" y="-14" on="0"/>
        <pt x="321" y="-14" on="1"/>
        <pt x="199" y="-14" on="0"/>
        <pt x="26" y="159" on="0"/>
        <pt x="26" y="282" on="1"/>
        <pt x="26" y="404" on="0"/>
        <pt x="198" y="574" on="0"/>
        <pt x="321" y="574" on="1"/>
        <pt x="392" y="574" on="0"/>
        <pt x="514" y="512" on="0"/>
        <pt x="554" y="458" on="1"/>
        <pt x="454" y="371" on="1"/>
        <pt x="407" y="440" on="0"/>
        <pt x="321" y="440" on="1"/>
        <pt x="253" y="440" on="0"/>
        <pt x="159" y="349" on="0"/>
        <pt x="159" y="215" on="0"/>
        <pt x="253" y="121" on="0"/>
        <pt x="321" y="121" on="1"/>
        <pt x="367" y="121" on="0"/>
        <pt x="443" y="168" on="0"/>
        <pt x="464" y="207" on="1"/>
        <pt x="340" y="207" on="1"/>
        <pt x="340" y="298" on="1"/>
      </contour>
      <contour>
        <pt x="198" y="-243" on="1"/>
        <pt x="264" y="-66" on="1"/>
        <pt x="377" y="-66" on="1"/>
        <pt x="313" y="-243" on="1"/>
      </contour>
    </TTGlyph>
    <TTGlyph name="Gcommaaccent.sc.ss04" xMin="26" yMin="-240" xMax="615" yMax="574">
      <contour>
        <pt x="615" y="298" on="1"/>
        <pt x="615" y="271" on="1"/>
        <pt x="614" y="270" on="1"/>
        <pt x="610" y="151" on="0"/>
        <pt x="440" y="-14" on="0"/>
        <pt x="321" y="-14" on="1"/>
        <pt x="199" y="-14" on="0"/>
        <pt x="26" y="159" on="0"/>
        <pt x="26" y="282" on="1"/>
        <pt x="26" y="404" on="0"/>
        <pt x="198" y="574" on="0"/>
        <pt x="321" y="574" on="1"/>
        <pt x="392" y="574" on="0"/>
        <pt x="514" y="512" on="0"/>
        <pt x="554" y="458" on="1"/>
        <pt x="454" y="371" on="1"/>
        <pt x="407" y="440" on="0"/>
        <pt x="321" y="440" on="1"/>
        <pt x="253" y="440" on="0"/>
        <pt x="159" y="349" on="0"/>
        <pt x="159" y="215" on="0"/>
        <pt x="253" y="121" on="0"/>
        <pt x="321" y="121" on="1"/>
        <pt x="367" y="121" on="0"/>
        <pt x="443" y="168" on="0"/>
        <pt x="464" y="207" on="1"/>
        <pt x="340" y="207" on="1"/>
        <pt x="340" y="298" on="1"/>
      </contour>
      <contour>
        <pt x="210" y="-240" on="1"/>
        <pt x="276" y="-63" on="1"/>
        <pt x="389" y="-63" on="1"/>
        <pt x="325" y="-240" on="1"/>
      </contour>
    </TTGlyph>
    <TTGlyph name="Gcommaaccent.ss04" xMin="26" yMin="-236" xMax="724" yMax="679">
      <contour>
        <pt x="409" y="348" on="1"/>
        <pt x="724" y="348" on="1"/>
        <pt x="724" y="318" on="1"/>
        <pt x="719" y="178" on="0"/>
        <pt x="516" y="-19" on="0"/>
        <pt x="375" y="-19" on="1"/>
        <pt x="231" y="-19" on="0"/>
        <pt x="26" y="186" on="0"/>
        <pt x="26" y="331" on="1"/>
        <pt x="26" y="475" on="0"/>
        <pt x="231" y="679" on="0"/>
        <pt x="375" y="679" on="1"/>
        <pt x="456" y="679" on="0"/>
        <pt x="599" y="608" on="0"/>
        <pt x="648" y="547" on="1"/>
        <pt x="526" y="460" on="1"/>
        <pt x="467" y="531" on="0"/>
        <pt x="375" y="531" on="1"/>
        <pt x="293" y="531" on="0"/>
        <pt x="177" y="413" on="0"/>
        <pt x="177" y="330" on="1"/>
        <pt x="177" y="248" on="0"/>
        <pt x="293" y="130" on="0"/>
        <pt x="375" y="130" on="1"/>
        <pt x="429" y="130" on="0"/>
        <pt x="520" y="184" on="0"/>
        <pt x="547" y="228" on="1"/>
        <pt x="409" y="228" on="1"/>
      </contour>
      <contour>
        <pt x="268" y="-236" on="1"/>
        <pt x="334" y="-59" on="1"/>
        <pt x="447" y="-59" on="1"/>
        <pt x="383" y="-236" on="1"/>
      </contour>
    </TTGlyph>
    <TTGlyph name="H" xMin="79" yMin="0" xMax="652" yMax="660">
      <contour>
        <pt x="495" y="660" on="1"/>
        <pt x="652" y="660" on="1"/>
        <pt x="652" y="0" on="1"/>
        <pt x="495" y="0" on="1"/>
        <pt x="495" y="249" on="1"/>
        <pt x="236" y="249" on="1"/>
        <pt x="236" y="0" on="1"/>
        <pt x="79" y="0" on="1"/>
        <pt x="79" y="660" on="1"/>
        <pt x="236" y="660" on="1"/>
        <pt x="236" y="394" on="1"/>
        <pt x="495" y="394" on="1"/>
      </contour>
    </TTGlyph>
    <TTGlyph name="Hinferior" xMin="39" yMin="-189" xMax="430" yMax="208">
      <contour>
        <pt x="315" y="208" on="1"/>
        <pt x="430" y="208" on="1"/>
        <pt x="430" y="-189" on="1"/>
        <pt x="315" y="-189" on="1"/>
        <pt x="315" y="-31" on="1"/>
        <pt x="154" y="-31" on="1"/>
        <pt x="154" y="-189" on="1"/>
        <pt x="39" y="-189" on="1"/>
        <pt x="39" y="208" on="1"/>
        <pt x="154" y="208" on="1"/>
        <pt x="154" y="56" on="1"/>
        <pt x="315" y="56" on="1"/>
      </contour>
    </TTGlyph>
    <TTGlyph name="Hsuperior" xMin="39" yMin="333" xMax="430" yMax="730">
      <contour>
        <pt x="315" y="730" on="1"/>
        <pt x="430" y="730" on="1"/>
        <pt x="430" y="333" on="1"/>
        <pt x="315" y="333" on="1"/>
        <pt x="315" y="492" on="1"/>
        <pt x="154" y="492" on="1"/>
        <pt x="154" y="333" on="1"/>
        <pt x="39" y="333" on="1"/>
        <pt x="39" y="730" on="1"/>
        <pt x="154" y="730" on="1"/>
        <pt x="154" y="578" on="1"/>
        <pt x="315" y="578" on="1"/>
      </contour>
    </TTGlyph>
    <TTGlyph name="I" xMin="73" yMin="0" xMax="232" yMax="660">
      <contour>
        <pt x="232" y="660" on="1"/>
        <pt x="232" y="0" on="1"/>
        <pt x="73" y="0" on="1"/>
        <pt x="73" y="660" on="1"/>
      </contour>
    </TTGlyph>
    <TTGlyph name="IJ" xMin="73" yMin="-10" xMax="844" yMax="660">
      <contour>
        <pt x="232" y="660" on="1"/>
        <pt x="232" y="0" on="1"/>
        <pt x="73" y="0" on="1"/>
        <pt x="73" y="660" on="1"/>
      </contour>
      <contour>
        <pt x="844" y="660" on="1"/>
        <pt x="844" y="243" on="1"/>
        <pt x="844" y="121" on="0"/>
        <pt x="706" y="-10" on="0"/>
        <pt x="582" y="-10" on="1"/>
        <pt x="467" y="-10" on="0"/>
        <pt x="339" y="115" on="0"/>
        <pt x="334" y="229" on="1"/>
        <pt x="334" y="282" on="1"/>
        <pt x="487" y="281" on="1"/>
        <pt x="487" y="218" on="1"/>
        <pt x="491" y="170" on="0"/>
        <pt x="543" y="115" on="0"/>
        <pt x="582" y="115" on="1"/>
        <pt x="625" y="115" on="0"/>
        <pt x="680" y="166" on="0"/>
        <pt x="685" y="213" on="1"/>
        <pt x="687" y="261" on="0"/>
        <pt x="687" y="287" on="1"/>
        <pt x="687" y="660" on="1"/>
      </contour>
    </TTGlyph>
    <TTGlyph name="IJ.ss05" xMin="63" yMin="-10" xMax="585" yMax="660">
      <contour>
        <pt x="585" y="660" on="1"/>
        <pt x="585" y="249" on="1"/>
        <pt x="585" y="128" on="0"/>
        <pt x="444" y="-10" on="0"/>
        <pt x="322" y="-10" on="1"/>
        <pt x="193" y="-10" on="0"/>
        <pt x="63" y="108" on="0"/>
        <pt x="76" y="220" on="1"/>
        <pt x="232" y="220" on="1"/>
        <pt x="216" y="115" on="0"/>
        <pt x="326" y="115" on="1"/>
        <pt x="428" y="115" on="0"/>
        <pt x="428" y="256" on="1"/>
        <pt x="428" y="660" on="1"/>
      </contour>
      <contour>
        <pt x="231" y="660" on="1"/>
        <pt x="231" y="290" on="1"/>
        <pt x="74" y="290" on="1"/>
        <pt x="74" y="660" on="1"/>
      </contour>
    </TTGlyph>
    <TTGlyph name="Iacute" xMin="73" yMin="0" xMax="285" yMax="884">
      <contour>
        <pt x="147" y="884" on="1"/>
        <pt x="285" y="884" on="1"/>
        <pt x="221" y="726" on="1"/>
        <pt x="92" y="726" on="1"/>
      </contour>
      <contour>
        <pt x="232" y="660" on="1"/>
        <pt x="232" y="0" on="1"/>
        <pt x="73" y="0" on="1"/>
        <pt x="73" y="660" on="1"/>
      </contour>
    </TTGlyph>
    <TTGlyph name="Iacute_J.loclNLD" xMin="73" yMin="-10" xMax="910" yMax="884">
      <contour>
        <pt x="141" y="884" on="1"/>
        <pt x="279" y="884" on="1"/>
        <pt x="215" y="726" on="1"/>
        <pt x="86" y="726" on="1"/>
      </contour>
      <contour>
        <pt x="772" y="884" on="1"/>
        <pt x="910" y="884" on="1"/>
        <pt x="846" y="726" on="1"/>
        <pt x="717" y="726" on="1"/>
      </contour>
      <contour>
        <pt x="232" y="660" on="1"/>
        <pt x="232" y="0" on="1"/>
        <pt x="73" y="0" on="1"/>
        <pt x="73" y="660" on="1"/>
      </contour>
      <contour>
        <pt x="844" y="660" on="1"/>
        <pt x="844" y="243" on="1"/>
        <pt x="844" y="121" on="0"/>
        <pt x="706" y="-10" on="0"/>
        <pt x="582" y="-10" on="1"/>
        <pt x="467" y="-10" on="0"/>
        <pt x="339" y="115" on="0"/>
        <pt x="334" y="229" on="1"/>
        <pt x="334" y="282" on="1"/>
        <pt x="487" y="281" on="1"/>
        <pt x="487" y="218" on="1"/>
        <pt x="491" y="170" on="0"/>
        <pt x="543" y="115" on="0"/>
        <pt x="582" y="115" on="1"/>
        <pt x="625" y="115" on="0"/>
        <pt x="680" y="166" on="0"/>
        <pt x="685" y="213" on="1"/>
        <pt x="687" y="261" on="0"/>
        <pt x="687" y="287" on="1"/>
        <pt x="687" y="660" on="1"/>
      </contour>
    </TTGlyph>
    <TTGlyph name="Iacute_J.loclNLD.ss05" xMin="52" yMin="-10" xMax="630" yMax="884">
      <contour>
        <pt x="130" y="884" on="1"/>
        <pt x="268" y="884" on="1"/>
        <pt x="204" y="726" on="1"/>
        <pt x="75" y="726" on="1"/>
      </contour>
      <contour>
        <pt x="492" y="884" on="1"/>
        <pt x="630" y="884" on="1"/>
        <pt x="566" y="726" on="1"/>
        <pt x="437" y="726" on="1"/>
      </contour>
      <contour>
        <pt x="574" y="660" on="1"/>
        <pt x="574" y="249" on="1"/>
        <pt x="574" y="128" on="0"/>
        <pt x="433" y="-10" on="0"/>
        <pt x="311" y="-10" on="1"/>
        <pt x="182" y="-10" on="0"/>
        <pt x="52" y="108" on="0"/>
        <pt x="65" y="220" on="1"/>
        <pt x="221" y="220" on="1"/>
        <pt x="205" y="115" on="0"/>
        <pt x="315" y="115" on="1"/>
        <pt x="417" y="115" on="0"/>
        <pt x="417" y="256" on="1"/>
        <pt x="417" y="660" on="1"/>
      </contour>
      <contour>
        <pt x="220" y="660" on="1"/>
        <pt x="220" y="290" on="1"/>
        <pt x="63" y="290" on="1"/>
        <pt x="63" y="660" on="1"/>
      </contour>
    </TTGlyph>
    <TTGlyph name="Icircumflex" xMin="-35" yMin="0" xMax="339" yMax="890">
      <contour>
        <pt x="339" y="723" on="1"/>
        <pt x="217" y="723" on="1"/>
        <pt x="152" y="815" on="1"/>
        <pt x="87" y="723" on="1"/>
        <pt x="-35" y="723" on="1"/>
        <pt x="76" y="890" on="1"/>
        <pt x="228" y="890" on="1"/>
      </contour>
      <contour>
        <pt x="232" y="660" on="1"/>
        <pt x="232" y="0" on="1"/>
        <pt x="73" y="0" on="1"/>
        <pt x="73" y="660" on="1"/>
      </contour>
    </TTGlyph>
    <TTGlyph name="Idieresis" xMin="-26" yMin="0" xMax="330" yMax="868">
      <contour>
        <pt x="52" y="868" on="1"/>
        <pt x="89" y="868" on="0"/>
        <pt x="132" y="828" on="0"/>
        <pt x="132" y="760" on="0"/>
        <pt x="89" y="720" on="0"/>
        <pt x="52" y="720" on="1"/>
        <pt x="16" y="720" on="0"/>
        <pt x="-26" y="760" on="0"/>
        <pt x="-26" y="828" on="0"/>
        <pt x="16" y="868" on="0"/>
      </contour>
      <contour>
        <pt x="251" y="868" on="1"/>
        <pt x="288" y="868" on="0"/>
        <pt x="330" y="828" on="0"/>
        <pt x="330" y="760" on="0"/>
        <pt x="288" y="720" on="0"/>
        <pt x="251" y="720" on="1"/>
        <pt x="215" y="720" on="0"/>
        <pt x="173" y="760" on="0"/>
        <pt x="173" y="828" on="0"/>
        <pt x="215" y="868" on="0"/>
      </contour>
      <contour>
        <pt x="232" y="660" on="1"/>
        <pt x="232" y="0" on="1"/>
        <pt x="73" y="0" on="1"/>
        <pt x="73" y="660" on="1"/>
      </contour>
    </TTGlyph>
    <TTGlyph name="Idotaccent" xMin="66" yMin="0" xMax="240" yMax="900">
      <contour>
        <pt x="189" y="727" on="0"/>
        <pt x="117" y="727" on="0"/>
        <pt x="66" y="778" on="0"/>
        <pt x="66" y="814" on="1"/>
        <pt x="66" y="849" on="0"/>
        <pt x="117" y="900" on="0"/>
        <pt x="189" y="900" on="0"/>
        <pt x="240" y="849" on="0"/>
        <pt x="240" y="814" on="1"/>
        <pt x="240" y="778" on="0"/>
      </contour>
      <contour>
        <pt x="232" y="660" on="1"/>
        <pt x="232" y="0" on="1"/>
        <pt x="73" y="0" on="1"/>
        <pt x="73" y="660" on="1"/>
      </contour>
    </TTGlyph>
    <TTGlyph name="Igrave" xMin="12" yMin="0" xMax="232" yMax="884">
      <contour>
        <pt x="150" y="884" on="1"/>
        <pt x="205" y="726" on="1"/>
        <pt x="76" y="726" on="1"/>
        <pt x="12" y="884" on="1"/>
      </contour>
      <contour>
        <pt x="232" y="660" on="1"/>
        <pt x="232" y="0" on="1"/>
        <pt x="73" y="0" on="1"/>
        <pt x="73" y="660" on="1"/>
      </contour>
    </TTGlyph>
    <TTGlyph name="Imacron" xMin="16" yMin="0" xMax="288" yMax="832">
      <contour>
        <pt x="288" y="832" on="1"/>
        <pt x="288" y="734" on="1"/>
        <pt x="16" y="734" on="1"/>
        <pt x="16" y="832" on="1"/>
      </contour>
      <contour>
        <pt x="232" y="660" on="1"/>
        <pt x="232" y="0" on="1"/>
        <pt x="73" y="0" on="1"/>
        <pt x="73" y="660" on="1"/>
      </contour>
    </TTGlyph>
    <TTGlyph name="Iogonek" xMin="11" yMin="-215" xMax="247" yMax="660">
      <contour>
        <pt x="224" y="-114" on="1"/>
        <pt x="247" y="-191" on="1"/>
        <pt x="211" y="-215" on="0"/>
        <pt x="145" y="-215" on="1"/>
        <pt x="85" y="-215" on="0"/>
        <pt x="11" y="-159" on="0"/>
        <pt x="11" y="-107" on="1"/>
        <pt x="11" y="-39" on="0"/>
        <pt x="81" y="0" on="1"/>
        <pt x="73" y="0" on="1"/>
        <pt x="73" y="660" on="1"/>
        <pt x="232" y="660" on="1"/>
        <pt x="232" y="0" on="1"/>
        <pt x="230" y="0" on="1"/>
        <pt x="120" y="-29" on="0"/>
        <pt x="120" y="-80" on="1"/>
        <pt x="120" y="-126" on="0"/>
        <pt x="174" y="-126" on="1"/>
        <pt x="207" y="-126" on="0"/>
      </contour>
    </TTGlyph>
    <TTGlyph name="J" xMin="29" yMin="-10" xMax="539" yMax="660">
      <contour>
        <pt x="539" y="660" on="1"/>
        <pt x="539" y="243" on="1"/>
        <pt x="539" y="121" on="0"/>
        <pt x="401" y="-10" on="0"/>
        <pt x="277" y="-10" on="1"/>
        <pt x="162" y="-10" on="0"/>
        <pt x="34" y="115" on="0"/>
        <pt x="29" y="229" on="1"/>
        <pt x="29" y="282" on="1"/>
        <pt x="182" y="281" on="1"/>
        <pt x="182" y="218" on="1"/>
        <pt x="186" y="170" on="0"/>
        <pt x="238" y="115" on="0"/>
        <pt x="277" y="115" on="1"/>
        <pt x="320" y="115" on="0"/>
        <pt x="375" y="166" on="0"/>
        <pt x="380" y="213" on="1"/>
        <pt x="382" y="261" on="0"/>
        <pt x="382" y="287" on="1"/>
        <pt x="382" y="660" on="1"/>
      </contour>
    </TTGlyph>
    <TTGlyph name="K" xMin="74" yMin="0" xMax="670" yMax="660">
      <contour>
        <pt x="491" y="0" on="1"/>
        <pt x="317" y="292" on="1"/>
        <pt x="231" y="190" on="1"/>
        <pt x="231" y="0" on="1"/>
        <pt x="74" y="0" on="1"/>
        <pt x="74" y="660" on="1"/>
        <pt x="231" y="660" on="1"/>
        <pt x="231" y="358" on="1"/>
        <pt x="483" y="660" on="1"/>
        <pt x="659" y="660" on="1"/>
        <pt x="429" y="391" on="1"/>
        <pt x="670" y="0" on="1"/>
      </contour>
    </TTGlyph>
    <TTGlyph name="Kcommaaccent.sc" xMin="69" yMin="-240" xMax="630" yMax="560">
      <contour>
        <pt x="411" y="327" on="1"/>
        <pt x="630" y="0" on="1"/>
        <pt x="453" y="0" on="1"/>
        <pt x="304" y="234" on="1"/>
        <pt x="224" y="151" on="1"/>
        <pt x="224" y="0" on="1"/>
        <pt x="69" y="0" on="1"/>
        <pt x="69" y="560" on="1"/>
        <pt x="224" y="560" on="1"/>
        <pt x="224" y="309" on="1"/>
        <pt x="456" y="560" on="1"/>
        <pt x="624" y="560" on="1"/>
      </contour>
      <contour>
        <pt x="220" y="-240" on="1"/>
        <pt x="286" y="-63" on="1"/>
        <pt x="399" y="-63" on="1"/>
        <pt x="335" y="-240" on="1"/>
      </contour>
    </TTGlyph>
    <TTGlyph name="L" xMin="70" yMin="0" xMax="565" yMax="660">
      <contour>
        <pt x="227" y="129" on="1"/>
        <pt x="565" y="129" on="1"/>
        <pt x="565" y="0" on="1"/>
        <pt x="147" y="0" on="1"/>
        <pt x="70" y="0" on="1"/>
        <pt x="70" y="660" on="1"/>
        <pt x="227" y="660" on="1"/>
      </contour>
    </TTGlyph>
    <TTGlyph name="L.swsh" xMin="74" yMin="0" xMax="673" yMax="660">
      <contour>
        <pt x="490" y="393" on="1"/>
        <pt x="582" y="390" on="0"/>
        <pt x="673" y="280" on="0"/>
        <pt x="673" y="202" on="1"/>
        <pt x="673" y="104" on="0"/>
        <pt x="550" y="0" on="0"/>
        <pt x="435" y="0" on="1"/>
        <pt x="298" y="0" on="1"/>
        <pt x="151" y="0" on="1"/>
        <pt x="74" y="0" on="1"/>
        <pt x="74" y="660" on="1"/>
        <pt x="231" y="660" on="1"/>
        <pt x="231" y="123" on="1"/>
        <pt x="371" y="123" on="1"/>
        <pt x="426" y="123" on="1"/>
        <pt x="536" y="123" on="0"/>
        <pt x="536" y="204" on="1"/>
        <pt x="536" y="245" on="0"/>
        <pt x="488" y="290" on="0"/>
        <pt x="443" y="291" on="1"/>
      </contour>
    </TTGlyph>
    <TTGlyph name="Lacute" xMin="70" yMin="0" xMax="565" yMax="884">
      <contour>
        <pt x="275" y="884" on="1"/>
        <pt x="211" y="726" on="1"/>
        <pt x="82" y="726" on="1"/>
        <pt x="137" y="884" on="1"/>
      </contour>
      <contour>
        <pt x="227" y="129" on="1"/>
        <pt x="565" y="129" on="1"/>
        <pt x="565" y="0" on="1"/>
        <pt x="147" y="0" on="1"/>
        <pt x="70" y="0" on="1"/>
        <pt x="70" y="660" on="1"/>
        <pt x="227" y="660" on="1"/>
      </contour>
    </TTGlyph>
    <TTGlyph name="Lacute.swsh" xMin="74" yMin="0" xMax="673" yMax="884">
      <contour>
        <pt x="279" y="884" on="1"/>
        <pt x="215" y="726" on="1"/>
        <pt x="86" y="726" on="1"/>
        <pt x="141" y="884" on="1"/>
      </contour>
      <contour>
        <pt x="490" y="393" on="1"/>
        <pt x="582" y="390" on="0"/>
        <pt x="673" y="280" on="0"/>
        <pt x="673" y="202" on="1"/>
        <pt x="673" y="104" on="0"/>
        <pt x="550" y="0" on="0"/>
        <pt x="435" y="0" on="1"/>
        <pt x="298" y="0" on="1"/>
        <pt x="151" y="0" on="1"/>
        <pt x="74" y="0" on="1"/>
        <pt x="74" y="660" on="1"/>
        <pt x="231" y="660" on="1"/>
        <pt x="231" y="123" on="1"/>
        <pt x="371" y="123" on="1"/>
        <pt x="426" y="123" on="1"/>
        <pt x="536" y="123" on="0"/>
        <pt x="536" y="204" on="1"/>
        <pt x="536" y="245" on="0"/>
        <pt x="488" y="290" on="0"/>
        <pt x="443" y="291" on="1"/>
      </contour>
    </TTGlyph>
    <TTGlyph name="Lcaron" xMin="70" yMin="0" xMax="565" yMax="700">
      <contour>
        <pt x="470" y="700" on="1"/>
        <pt x="419" y="468" on="1"/>
        <pt x="298" y="468" on="1"/>
        <pt x="349" y="700" on="1"/>
      </contour>
      <contour>
        <pt x="227" y="129" on="1"/>
        <pt x="565" y="129" on="1"/>
        <pt x="565" y="0" on="1"/>
        <pt x="147" y="0" on="1"/>
        <pt x="70" y="0" on="1"/>
        <pt x="70" y="660" on="1"/>
        <pt x="227" y="660" on="1"/>
      </contour>
    </TTGlyph>
    <TTGlyph name="Lcaron.swsh" xMin="-38" yMin="0" xMax="673" yMax="891">
      <contour>
        <pt x="336" y="891" on="1"/>
        <pt x="225" y="724" on="1"/>
        <pt x="73" y="724" on="1"/>
        <pt x="-38" y="891" on="1"/>
        <pt x="84" y="891" on="1"/>
        <pt x="149" y="799" on="1"/>
        <pt x="214" y="891" on="1"/>
      </contour>
      <contour>
        <pt x="490" y="393" on="1"/>
        <pt x="582" y="390" on="0"/>
        <pt x="673" y="280" on="0"/>
        <pt x="673" y="202" on="1"/>
        <pt x="673" y="104" on="0"/>
        <pt x="550" y="0" on="0"/>
        <pt x="435" y="0" on="1"/>
        <pt x="298" y="0" on="1"/>
        <pt x="151" y="0" on="1"/>
        <pt x="74" y="0" on="1"/>
        <pt x="74" y="660" on="1"/>
        <pt x="231" y="660" on="1"/>
        <pt x="231" y="123" on="1"/>
        <pt x="371" y="123" on="1"/>
        <pt x="426" y="123" on="1"/>
        <pt x="536" y="123" on="0"/>
        <pt x="536" y="204" on="1"/>
        <pt x="536" y="245" on="0"/>
        <pt x="488" y="290" on="0"/>
        <pt x="443" y="291" on="1"/>
      </contour>
    </TTGlyph>
    <TTGlyph name="Lcommaaccent.sc" xMin="69" yMin="-240" xMax="524" yMax="560">
      <contour>
        <pt x="224" y="119" on="1"/>
        <pt x="524" y="119" on="1"/>
        <pt x="524" y="0" on="1"/>
        <pt x="147" y="0" on="1"/>
        <pt x="69" y="0" on="1"/>
        <pt x="69" y="560" on="1"/>
        <pt x="224" y="560" on="1"/>
      </contour>
      <contour>
        <pt x="197" y="-240" on="1"/>
        <pt x="263" y="-63" on="1"/>
        <pt x="376" y="-63" on="1"/>
        <pt x="312" y="-240" on="1"/>
      </contour>
    </TTGlyph>
    <TTGlyph name="Lcommaaccent.swsh" xMin="74" yMin="-240" xMax="673" yMax="660">
      <contour>
        <pt x="490" y="393" on="1"/>
        <pt x="582" y="390" on="0"/>
        <pt x="673" y="280" on="0"/>
        <pt x="673" y="202" on="1"/>
        <pt x="673" y="104" on="0"/>
        <pt x="550" y="0" on="0"/>
        <pt x="435" y="0" on="1"/>
        <pt x="298" y="0" on="1"/>
        <pt x="151" y="0" on="1"/>
        <pt x="74" y="0" on="1"/>
        <pt x="74" y="660" on="1"/>
        <pt x="231" y="660" on="1"/>
        <pt x="231" y="123" on="1"/>
        <pt x="371" y="123" on="1"/>
        <pt x="426" y="123" on="1"/>
        <pt x="536" y="123" on="0"/>
        <pt x="536" y="204" on="1"/>
        <pt x="536" y="245" on="0"/>
        <pt x="488" y="290" on="0"/>
        <pt x="443" y="291" on="1"/>
      </contour>
      <contour>
        <pt x="247" y="-240" on="1"/>
        <pt x="313" y="-63" on="1"/>
        <pt x="426" y="-63" on="1"/>
        <pt x="362" y="-240" on="1"/>
      </contour>
    </TTGlyph>
    <TTGlyph name="Ldot" xMin="70" yMin="0" xMax="608" yMax="660">
      <contour>
        <pt x="227" y="660" on="1"/>
        <pt x="227" y="129" on="1"/>
        <pt x="565" y="129" on="1"/>
        <pt x="565" y="0" on="1"/>
        <pt x="147" y="0" on="1"/>
        <pt x="70" y="0" on="1"/>
        <pt x="70" y="660" on="1"/>
      </contour>
      <contour>
        <pt x="482" y="442" on="0"/>
        <pt x="556" y="442" on="0"/>
        <pt x="608" y="391" on="0"/>
        <pt x="608" y="317" on="0"/>
        <pt x="556" y="265" on="0"/>
        <pt x="482" y="265" on="0"/>
        <pt x="430" y="317" on="0"/>
        <pt x="430" y="391" on="0"/>
      </contour>
    </TTGlyph>
    <TTGlyph name="Lslash" xMin="5" yMin="0" xMax="605" yMax="660">
      <contour>
        <pt x="267" y="129" on="1"/>
        <pt x="605" y="129" on="1"/>
        <pt x="605" y="0" on="1"/>
        <pt x="187" y="0" on="1"/>
        <pt x="110" y="0" on="1"/>
        <pt x="110" y="223" on="1"/>
        <pt x="5" y="171" on="1"/>
        <pt x="5" y="289" on="1"/>
        <pt x="110" y="341" on="1"/>
        <pt x="110" y="660" on="1"/>
        <pt x="267" y="660" on="1"/>
        <pt x="267" y="417" on="1"/>
        <pt x="442" y="503" on="1"/>
        <pt x="442" y="385" on="1"/>
        <pt x="267" y="299" on="1"/>
      </contour>
    </TTGlyph>
    <TTGlyph name="Lslash.swsh" xMin="5" yMin="0" xMax="713" yMax="660">
      <contour>
        <pt x="530" y="393" on="1"/>
        <pt x="622" y="390" on="0"/>
        <pt x="713" y="280" on="0"/>
        <pt x="713" y="202" on="1"/>
        <pt x="713" y="104" on="0"/>
        <pt x="590" y="0" on="0"/>
        <pt x="475" y="0" on="1"/>
        <pt x="338" y="0" on="1"/>
        <pt x="191" y="0" on="1"/>
        <pt x="114" y="0" on="1"/>
        <pt x="114" y="225" on="1"/>
        <pt x="5" y="171" on="1"/>
        <pt x="5" y="289" on="1"/>
        <pt x="114" y="343" on="1"/>
        <pt x="114" y="660" on="1"/>
        <pt x="271" y="660" on="1"/>
        <pt x="271" y="419" on="1"/>
        <pt x="442" y="503" on="1"/>
        <pt x="442" y="385" on="1"/>
        <pt x="271" y="301" on="1"/>
        <pt x="271" y="123" on="1"/>
        <pt x="411" y="123" on="1"/>
        <pt x="466" y="123" on="1"/>
        <pt x="576" y="123" on="0"/>
        <pt x="576" y="204" on="1"/>
        <pt x="576" y="245" on="0"/>
        <pt x="528" y="290" on="0"/>
        <pt x="483" y="291" on="1"/>
      </contour>
    </TTGlyph>
    <TTGlyph name="M" xMin="68" yMin="0" xMax="810" yMax="660">
      <contour>
        <pt x="810" y="660" on="1"/>
        <pt x="810" y="0" on="1"/>
        <pt x="671" y="0" on="1"/>
        <pt x="671" y="322" on="1"/>
        <pt x="677" y="500" on="1"/>
        <pt x="675" y="500" on="1"/>
        <pt x="502" y="0" on="1"/>
        <pt x="375" y="0" on="1"/>
        <pt x="204" y="500" on="1"/>
        <pt x="201" y="500" on="1"/>
        <pt x="207" y="322" on="1"/>
        <pt x="207" y="0" on="1"/>
        <pt x="68" y="0" on="1"/>
        <pt x="68" y="660" on="1"/>
        <pt x="292" y="660" on="1"/>
        <pt x="402" y="313" on="1"/>
        <pt x="442" y="169" on="1"/>
        <pt x="444" y="169" on="1"/>
        <pt x="484" y="313" on="1"/>
        <pt x="594" y="660" on="1"/>
      </contour>
    </TTGlyph>
    <TTGlyph name="M.swsh" xMin="5" yMin="-110" xMax="1060" yMax="660">
      <contour>
        <pt x="844" y="660" on="1"/>
        <pt x="1060" y="660" on="1"/>
        <pt x="1060" y="0" on="1"/>
        <pt x="921" y="0" on="1"/>
        <pt x="921" y="322" on="1"/>
        <pt x="927" y="520" on="1"/>
        <pt x="925" y="520" on="1"/>
        <pt x="752" y="0" on="1"/>
        <pt x="625" y="0" on="1"/>
        <pt x="454" y="520" on="1"/>
        <pt x="451" y="520" on="1"/>
        <pt x="457" y="322" on="1"/>
        <pt x="457" y="196" on="1"/>
        <pt x="457" y="103" on="1"/>
        <pt x="457" y="0" on="0"/>
        <pt x="339" y="-110" on="0"/>
        <pt x="234" y="-110" on="1"/>
        <pt x="88" y="-110" on="0"/>
        <pt x="43" y="-3" on="1"/>
        <pt x="106" y="91" on="1"/>
        <pt x="132" y="8" on="0"/>
        <pt x="218" y="8" on="1"/>
        <pt x="266" y="8" on="0"/>
        <pt x="317" y="60" on="0"/>
        <pt x="317" y="108" on="1"/>
        <pt x="317" y="202" on="1"/>
        <pt x="317" y="545" on="1"/>
        <pt x="252" y="545" on="1"/>
        <pt x="202" y="545" on="0"/>
        <pt x="147" y="498" on="0"/>
        <pt x="147" y="456" on="1"/>
        <pt x="147" y="420" on="0"/>
        <pt x="198" y="369" on="0"/>
        <pt x="240" y="364" on="1"/>
        <pt x="193" y="257" on="1"/>
        <pt x="111" y="264" on="0"/>
        <pt x="5" y="373" on="0"/>
        <pt x="5" y="459" on="1"/>
        <pt x="5" y="555" on="0"/>
        <pt x="129" y="660" on="0"/>
        <pt x="243" y="660" on="1"/>
        <pt x="475" y="660" on="1"/>
        <pt x="542" y="660" on="1"/>
        <pt x="652" y="313" on="1"/>
        <pt x="692" y="169" on="1"/>
        <pt x="694" y="169" on="1"/>
        <pt x="734" y="313" on="1"/>
      </contour>
    </TTGlyph>
    <TTGlyph name="M.swsh.001" xMin="5" yMin="0" xMax="1053" yMax="660">
      <contour>
        <pt x="837" y="660" on="1"/>
        <pt x="1053" y="660" on="1"/>
        <pt x="1053" y="0" on="1"/>
        <pt x="914" y="0" on="1"/>
        <pt x="914" y="322" on="1"/>
        <pt x="920" y="500" on="1"/>
        <pt x="918" y="500" on="1"/>
        <pt x="745" y="0" on="1"/>
        <pt x="618" y="0" on="1"/>
        <pt x="447" y="500" on="1"/>
        <pt x="444" y="500" on="1"/>
        <pt x="450" y="322" on="1"/>
        <pt x="450" y="0" on="1"/>
        <pt x="311" y="0" on="1"/>
        <pt x="311" y="545" on="1"/>
        <pt x="252" y="545" on="1"/>
        <pt x="202" y="545" on="0"/>
        <pt x="147" y="498" on="0"/>
        <pt x="147" y="456" on="1"/>
        <pt x="147" y="420" on="0"/>
        <pt x="198" y="369" on="0"/>
        <pt x="240" y="364" on="1"/>
        <pt x="193" y="257" on="1"/>
        <pt x="111" y="264" on="0"/>
        <pt x="5" y="373" on="0"/>
        <pt x="5" y="459" on="1"/>
        <pt x="5" y="555" on="0"/>
        <pt x="129" y="660" on="0"/>
        <pt x="243" y="660" on="1"/>
        <pt x="475" y="660" on="1"/>
        <pt x="535" y="660" on="1"/>
        <pt x="645" y="313" on="1"/>
        <pt x="685" y="169" on="1"/>
        <pt x="687" y="169" on="1"/>
        <pt x="727" y="313" on="1"/>
      </contour>
    </TTGlyph>
    <TTGlyph name="N" xMin="74" yMin="0" xMax="656" yMax="660">
      <contour>
        <pt x="656" y="660" on="1"/>
        <pt x="656" y="0" on="1"/>
        <pt x="481" y="0" on="1"/>
        <pt x="264" y="366" on="1"/>
        <pt x="211" y="468" on="1"/>
        <pt x="209" y="468" on="1"/>
        <pt x="213" y="351" on="1"/>
        <pt x="213" y="0" on="1"/>
        <pt x="74" y="0" on="1"/>
        <pt x="74" y="660" on="1"/>
        <pt x="250" y="660" on="1"/>
        <pt x="466" y="295" on="1"/>
        <pt x="520" y="195" on="1"/>
        <pt x="521" y="195" on="1"/>
        <pt x="517" y="310" on="1"/>
        <pt x="517" y="660" on="1"/>
      </contour>
    </TTGlyph>
    <TTGlyph name="N.swsh" xMin="74" yMin="0" xMax="931" yMax="728">
      <contour>
        <pt x="742" y="728" on="1"/>
        <pt x="885" y="728" on="0"/>
        <pt x="931" y="626" on="1"/>
        <pt x="867" y="534" on="1"/>
        <pt x="852" y="575" on="0"/>
        <pt x="803" y="610" on="0"/>
        <pt x="759" y="610" on="1"/>
        <pt x="710" y="610" on="0"/>
        <pt x="656" y="549" on="0"/>
        <pt x="656" y="495" on="1"/>
        <pt x="656" y="391" on="1"/>
        <pt x="656" y="0" on="1"/>
        <pt x="481" y="0" on="1"/>
        <pt x="264" y="371" on="1"/>
        <pt x="211" y="477" on="1"/>
        <pt x="209" y="477" on="1"/>
        <pt x="213" y="356" on="1"/>
        <pt x="213" y="0" on="1"/>
        <pt x="74" y="0" on="1"/>
        <pt x="74" y="660" on="1"/>
        <pt x="250" y="660" on="1"/>
        <pt x="466" y="290" on="1"/>
        <pt x="520" y="184" on="1"/>
        <pt x="521" y="184" on="1"/>
        <pt x="517" y="305" on="1"/>
        <pt x="517" y="466" on="1"/>
        <pt x="517" y="515" on="1"/>
        <pt x="517" y="618" on="0"/>
        <pt x="636" y="728" on="0"/>
      </contour>
    </TTGlyph>
    <TTGlyph name="Nacute" xMin="74" yMin="0" xMax="656" yMax="884">
      <contour>
        <pt x="356" y="884" on="1"/>
        <pt x="494" y="884" on="1"/>
        <pt x="430" y="726" on="1"/>
        <pt x="301" y="726" on="1"/>
      </contour>
      <contour>
        <pt x="656" y="660" on="1"/>
        <pt x="656" y="0" on="1"/>
        <pt x="481" y="0" on="1"/>
        <pt x="264" y="366" on="1"/>
        <pt x="211" y="468" on="1"/>
        <pt x="209" y="468" on="1"/>
        <pt x="213" y="351" on="1"/>
        <pt x="213" y="0" on="1"/>
        <pt x="74" y="0" on="1"/>
        <pt x="74" y="660" on="1"/>
        <pt x="250" y="660" on="1"/>
        <pt x="466" y="295" on="1"/>
        <pt x="520" y="195" on="1"/>
        <pt x="521" y="195" on="1"/>
        <pt x="517" y="310" on="1"/>
        <pt x="517" y="660" on="1"/>
      </contour>
    </TTGlyph>
    <TTGlyph name="Nacute.swsh" xMin="74" yMin="0" xMax="931" yMax="884">
      <contour>
        <pt x="494" y="884" on="1"/>
        <pt x="430" y="726" on="1"/>
        <pt x="301" y="726" on="1"/>
        <pt x="356" y="884" on="1"/>
      </contour>
      <contour>
        <pt x="742" y="728" on="1"/>
        <pt x="885" y="728" on="0"/>
        <pt x="931" y="626" on="1"/>
        <pt x="867" y="534" on="1"/>
        <pt x="852" y="575" on="0"/>
        <pt x="803" y="610" on="0"/>
        <pt x="759" y="610" on="1"/>
        <pt x="710" y="610" on="0"/>
        <pt x="656" y="549" on="0"/>
        <pt x="656" y="495" on="1"/>
        <pt x="656" y="391" on="1"/>
        <pt x="656" y="0" on="1"/>
        <pt x="481" y="0" on="1"/>
        <pt x="264" y="371" on="1"/>
        <pt x="211" y="477" on="1"/>
        <pt x="209" y="477" on="1"/>
        <pt x="213" y="356" on="1"/>
        <pt x="213" y="0" on="1"/>
        <pt x="74" y="0" on="1"/>
        <pt x="74" y="660" on="1"/>
        <pt x="250" y="660" on="1"/>
        <pt x="466" y="290" on="1"/>
        <pt x="520" y="184" on="1"/>
        <pt x="521" y="184" on="1"/>
        <pt x="517" y="305" on="1"/>
        <pt x="517" y="466" on="1"/>
        <pt x="517" y="515" on="1"/>
        <pt x="517" y="618" on="0"/>
        <pt x="636" y="728" on="0"/>
      </contour>
    </TTGlyph>
    <TTGlyph name="Ncaron" xMin="74" yMin="0" xMax="656" yMax="891">
      <contour>
        <pt x="551" y="891" on="1"/>
        <pt x="440" y="724" on="1"/>
        <pt x="288" y="724" on="1"/>
        <pt x="177" y="891" on="1"/>
        <pt x="299" y="891" on="1"/>
        <pt x="364" y="799" on="1"/>
        <pt x="429" y="891" on="1"/>
      </contour>
      <contour>
        <pt x="656" y="660" on="1"/>
        <pt x="656" y="0" on="1"/>
        <pt x="481" y="0" on="1"/>
        <pt x="264" y="366" on="1"/>
        <pt x="211" y="468" on="1"/>
        <pt x="209" y="468" on="1"/>
        <pt x="213" y="351" on="1"/>
        <pt x="213" y="0" on="1"/>
        <pt x="74" y="0" on="1"/>
        <pt x="74" y="660" on="1"/>
        <pt x="250" y="660" on="1"/>
        <pt x="466" y="295" on="1"/>
        <pt x="520" y="195" on="1"/>
        <pt x="521" y="195" on="1"/>
        <pt x="517" y="310" on="1"/>
        <pt x="517" y="660" on="1"/>
      </contour>
    </TTGlyph>
    <TTGlyph name="Ncaron.swsh" xMin="74" yMin="0" xMax="931" yMax="891">
      <contour>
        <pt x="440" y="724" on="1"/>
        <pt x="288" y="724" on="1"/>
        <pt x="177" y="891" on="1"/>
        <pt x="299" y="891" on="1"/>
        <pt x="364" y="799" on="1"/>
        <pt x="429" y="891" on="1"/>
        <pt x="551" y="891" on="1"/>
      </contour>
      <contour>
        <pt x="742" y="728" on="1"/>
        <pt x="885" y="728" on="0"/>
        <pt x="931" y="626" on="1"/>
        <pt x="867" y="534" on="1"/>
        <pt x="852" y="575" on="0"/>
        <pt x="803" y="610" on="0"/>
        <pt x="759" y="610" on="1"/>
        <pt x="710" y="610" on="0"/>
        <pt x="656" y="549" on="0"/>
        <pt x="656" y="495" on="1"/>
        <pt x="656" y="391" on="1"/>
        <pt x="656" y="0" on="1"/>
        <pt x="481" y="0" on="1"/>
        <pt x="264" y="371" on="1"/>
        <pt x="211" y="477" on="1"/>
        <pt x="209" y="477" on="1"/>
        <pt x="213" y="356" on="1"/>
        <pt x="213" y="0" on="1"/>
        <pt x="74" y="0" on="1"/>
        <pt x="74" y="660" on="1"/>
        <pt x="250" y="660" on="1"/>
        <pt x="466" y="290" on="1"/>
        <pt x="520" y="184" on="1"/>
        <pt x="521" y="184" on="1"/>
        <pt x="517" y="305" on="1"/>
        <pt x="517" y="466" on="1"/>
        <pt x="517" y="515" on="1"/>
        <pt x="517" y="618" on="0"/>
        <pt x="636" y="728" on="0"/>
      </contour>
    </TTGlyph>
    <TTGlyph name="Ncommaaccent.sc" xMin="69" yMin="-240" xMax="607" yMax="560">
      <contour>
        <pt x="607" y="560" on="1"/>
        <pt x="607" y="0" on="1"/>
        <pt x="430" y="0" on="1"/>
        <pt x="252" y="310" on="1"/>
        <pt x="208" y="398" on="1"/>
        <pt x="206" y="398" on="1"/>
        <pt x="212" y="283" on="1"/>
        <pt x="212" y="0" on="1"/>
        <pt x="69" y="0" on="1"/>
        <pt x="69" y="560" on="1"/>
        <pt x="246" y="560" on="1"/>
        <pt x="423" y="251" on="1"/>
        <pt x="468" y="163" on="1"/>
        <pt x="470" y="163" on="1"/>
        <pt x="464" y="278" on="1"/>
        <pt x="464" y="560" on="1"/>
      </contour>
      <contour>
        <pt x="406" y="-63" on="1"/>
        <pt x="342" y="-240" on="1"/>
        <pt x="227" y="-240" on="1"/>
        <pt x="293" y="-63" on="1"/>
      </contour>
    </TTGlyph>
    <TTGlyph name="Ncommaaccent.swsh" xMin="74" yMin="-240" xMax="931" yMax="728">
      <contour>
        <pt x="742" y="728" on="1"/>
        <pt x="885" y="728" on="0"/>
        <pt x="931" y="626" on="1"/>
        <pt x="867" y="534" on="1"/>
        <pt x="852" y="575" on="0"/>
        <pt x="803" y="610" on="0"/>
        <pt x="759" y="610" on="1"/>
        <pt x="710" y="610" on="0"/>
        <pt x="656" y="549" on="0"/>
        <pt x="656" y="495" on="1"/>
        <pt x="656" y="391" on="1"/>
        <pt x="656" y="0" on="1"/>
        <pt x="481" y="0" on="1"/>
        <pt x="264" y="371" on="1"/>
        <pt x="211" y="477" on="1"/>
        <pt x="209" y="477" on="1"/>
        <pt x="213" y="356" on="1"/>
        <pt x="213" y="0" on="1"/>
        <pt x="74" y="0" on="1"/>
        <pt x="74" y="660" on="1"/>
        <pt x="250" y="660" on="1"/>
        <pt x="466" y="290" on="1"/>
        <pt x="520" y="184" on="1"/>
        <pt x="521" y="184" on="1"/>
        <pt x="517" y="305" on="1"/>
        <pt x="517" y="466" on="1"/>
        <pt x="517" y="515" on="1"/>
        <pt x="517" y="618" on="0"/>
        <pt x="636" y="728" on="0"/>
      </contour>
      <contour>
        <pt x="261" y="-240" on="1"/>
        <pt x="327" y="-63" on="1"/>
        <pt x="440" y="-63" on="1"/>
        <pt x="376" y="-240" on="1"/>
      </contour>
    </TTGlyph>
    <TTGlyph name="Ntilde" xMin="74" yMin="0" xMax="656" yMax="879">
      <contour>
        <pt x="563" y="878" on="1"/>
        <pt x="556" y="723" on="0"/>
        <pt x="434" y="723" on="1"/>
        <pt x="401" y="723" on="0"/>
        <pt x="352" y="752" on="0"/>
        <pt x="318" y="782" on="0"/>
        <pt x="302" y="782" on="1"/>
        <pt x="270" y="782" on="0"/>
        <pt x="262" y="724" on="1"/>
        <pt x="172" y="724" on="1"/>
        <pt x="179" y="879" on="0"/>
        <pt x="301" y="879" on="1"/>
        <pt x="327" y="879" on="0"/>
        <pt x="369" y="861" on="0"/>
        <pt x="392" y="838" on="0"/>
        <pt x="420" y="820" on="0"/>
        <pt x="432" y="820" on="1"/>
        <pt x="464" y="820" on="0"/>
        <pt x="472" y="878" on="1"/>
      </contour>
      <contour>
        <pt x="656" y="660" on="1"/>
        <pt x="656" y="0" on="1"/>
        <pt x="481" y="0" on="1"/>
        <pt x="264" y="366" on="1"/>
        <pt x="211" y="468" on="1"/>
        <pt x="209" y="468" on="1"/>
        <pt x="213" y="351" on="1"/>
        <pt x="213" y="0" on="1"/>
        <pt x="74" y="0" on="1"/>
        <pt x="74" y="660" on="1"/>
        <pt x="250" y="660" on="1"/>
        <pt x="466" y="295" on="1"/>
        <pt x="520" y="195" on="1"/>
        <pt x="521" y="195" on="1"/>
        <pt x="517" y="310" on="1"/>
        <pt x="517" y="660" on="1"/>
      </contour>
    </TTGlyph>
    <TTGlyph name="Ntilde.swsh" xMin="74" yMin="0" xMax="931" yMax="879">
      <contour>
        <pt x="302" y="782" on="1"/>
        <pt x="270" y="782" on="0"/>
        <pt x="262" y="724" on="1"/>
        <pt x="172" y="724" on="1"/>
        <pt x="179" y="879" on="0"/>
        <pt x="301" y="879" on="1"/>
        <pt x="327" y="879" on="0"/>
        <pt x="369" y="861" on="0"/>
        <pt x="392" y="838" on="0"/>
        <pt x="420" y="820" on="0"/>
        <pt x="432" y="820" on="1"/>
        <pt x="464" y="820" on="0"/>
        <pt x="472" y="878" on="1"/>
        <pt x="563" y="878" on="1"/>
        <pt x="556" y="723" on="0"/>
        <pt x="434" y="723" on="1"/>
        <pt x="401" y="723" on="0"/>
        <pt x="352" y="752" on="0"/>
        <pt x="318" y="782" on="0"/>
      </contour>
      <contour>
        <pt x="742" y="728" on="1"/>
        <pt x="885" y="728" on="0"/>
        <pt x="931" y="626" on="1"/>
        <pt x="867" y="534" on="1"/>
        <pt x="852" y="575" on="0"/>
        <pt x="803" y="610" on="0"/>
        <pt x="759" y="610" on="1"/>
        <pt x="710" y="610" on="0"/>
        <pt x="656" y="549" on="0"/>
        <pt x="656" y="495" on="1"/>
        <pt x="656" y="391" on="1"/>
        <pt x="656" y="0" on="1"/>
        <pt x="481" y="0" on="1"/>
        <pt x="264" y="371" on="1"/>
        <pt x="211" y="477" on="1"/>
        <pt x="209" y="477" on="1"/>
        <pt x="213" y="356" on="1"/>
        <pt x="213" y="0" on="1"/>
        <pt x="74" y="0" on="1"/>
        <pt x="74" y="660" on="1"/>
        <pt x="250" y="660" on="1"/>
        <pt x="466" y="290" on="1"/>
        <pt x="520" y="184" on="1"/>
        <pt x="521" y="184" on="1"/>
        <pt x="517" y="305" on="1"/>
        <pt x="517" y="466" on="1"/>
        <pt x="517" y="515" on="1"/>
        <pt x="517" y="618" on="0"/>
        <pt x="636" y="728" on="0"/>
      </contour>
    </TTGlyph>
    <TTGlyph name="O" xMin="32" yMin="-12" xMax="713" yMax="670">
      <contour>
        <pt x="32" y="330" on="1"/>
        <pt x="32" y="471" on="0"/>
        <pt x="232" y="670" on="0"/>
        <pt x="514" y="670" on="0"/>
        <pt x="713" y="471" on="0"/>
        <pt x="713" y="330" on="1"/>
        <pt x="713" y="188" on="0"/>
        <pt x="514" y="-12" on="0"/>
        <pt x="232" y="-12" on="0"/>
        <pt x="32" y="188" on="0"/>
      </contour>
      <contour>
        <pt x="177" y="329" on="1"/>
        <pt x="177" y="249" on="0"/>
        <pt x="292" y="133" on="0"/>
        <pt x="454" y="133" on="0"/>
        <pt x="569" y="249" on="0"/>
        <pt x="569" y="329" on="1"/>
        <pt x="569" y="410" on="0"/>
        <pt x="454" y="526" on="0"/>
        <pt x="292" y="526" on="0"/>
        <pt x="177" y="410" on="0"/>
      </contour>
    </TTGlyph>
    <TTGlyph name="OE" xMin="44" yMin="-10" xMax="1015" yMax="670">
      <contour>
        <pt x="667" y="123" on="1"/>
        <pt x="1015" y="123" on="1"/>
        <pt x="1015" y="0" on="1"/>
        <pt x="592" y="0" on="1"/>
        <pt x="559" y="0" on="1"/>
        <pt x="559" y="81" on="1"/>
        <pt x="481" y="-10" on="0"/>
        <pt x="352" y="-10" on="1"/>
        <pt x="210" y="-10" on="0"/>
        <pt x="44" y="172" on="0"/>
        <pt x="44" y="330" on="1"/>
        <pt x="44" y="489" on="0"/>
        <pt x="210" y="670" on="0"/>
        <pt x="354" y="670" on="1"/>
        <pt x="481" y="670" on="0"/>
        <pt x="559" y="581" on="1"/>
        <pt x="559" y="660" on="1"/>
        <pt x="667" y="660" on="1"/>
        <pt x="1001" y="660" on="1"/>
        <pt x="1001" y="537" on="1"/>
        <pt x="667" y="537" on="1"/>
        <pt x="667" y="390" on="1"/>
        <pt x="928" y="390" on="1"/>
        <pt x="928" y="273" on="1"/>
        <pt x="667" y="273" on="1"/>
      </contour>
      <contour>
        <pt x="361" y="115" on="1"/>
        <pt x="434" y="115" on="0"/>
        <pt x="514" y="226" on="0"/>
        <pt x="514" y="330" on="1"/>
        <pt x="514" y="435" on="0"/>
        <pt x="434" y="545" on="0"/>
        <pt x="361" y="545" on="1"/>
        <pt x="283" y="545" on="0"/>
        <pt x="202" y="436" on="0"/>
        <pt x="202" y="330" on="1"/>
        <pt x="202" y="225" on="0"/>
        <pt x="283" y="115" on="0"/>
      </contour>
    </TTGlyph>
    <TTGlyph name="Oacute" xMin="32" yMin="-12" xMax="713" yMax="884">
      <contour>
        <pt x="362" y="884" on="1"/>
        <pt x="500" y="884" on="1"/>
        <pt x="436" y="726" on="1"/>
        <pt x="307" y="726" on="1"/>
      </contour>
      <contour>
        <pt x="32" y="330" on="1"/>
        <pt x="32" y="471" on="0"/>
        <pt x="232" y="670" on="0"/>
        <pt x="514" y="670" on="0"/>
        <pt x="713" y="471" on="0"/>
        <pt x="713" y="330" on="1"/>
        <pt x="713" y="188" on="0"/>
        <pt x="514" y="-12" on="0"/>
        <pt x="232" y="-12" on="0"/>
        <pt x="32" y="188" on="0"/>
      </contour>
      <contour>
        <pt x="177" y="329" on="1"/>
        <pt x="177" y="249" on="0"/>
        <pt x="292" y="133" on="0"/>
        <pt x="454" y="133" on="0"/>
        <pt x="569" y="249" on="0"/>
        <pt x="569" y="329" on="1"/>
        <pt x="569" y="410" on="0"/>
        <pt x="454" y="526" on="0"/>
        <pt x="292" y="526" on="0"/>
        <pt x="177" y="410" on="0"/>
      </contour>
    </TTGlyph>
    <TTGlyph name="Ocircumflex" xMin="32" yMin="-12" xMax="713" yMax="890">
      <contour>
        <pt x="560" y="723" on="1"/>
        <pt x="438" y="723" on="1"/>
        <pt x="373" y="815" on="1"/>
        <pt x="308" y="723" on="1"/>
        <pt x="186" y="723" on="1"/>
        <pt x="297" y="890" on="1"/>
        <pt x="449" y="890" on="1"/>
      </contour>
      <contour>
        <pt x="32" y="330" on="1"/>
        <pt x="32" y="471" on="0"/>
        <pt x="232" y="670" on="0"/>
        <pt x="514" y="670" on="0"/>
        <pt x="713" y="471" on="0"/>
        <pt x="713" y="330" on="1"/>
        <pt x="713" y="188" on="0"/>
        <pt x="514" y="-12" on="0"/>
        <pt x="232" y="-12" on="0"/>
        <pt x="32" y="188" on="0"/>
      </contour>
      <contour>
        <pt x="177" y="329" on="1"/>
        <pt x="177" y="249" on="0"/>
        <pt x="292" y="133" on="0"/>
        <pt x="454" y="133" on="0"/>
        <pt x="569" y="249" on="0"/>
        <pt x="569" y="329" on="1"/>
        <pt x="569" y="410" on="0"/>
        <pt x="454" y="526" on="0"/>
        <pt x="292" y="526" on="0"/>
        <pt x="177" y="410" on="0"/>
      </contour>
    </TTGlyph>
    <TTGlyph name="Odieresis" xMin="32" yMin="-12" xMax="713" yMax="879">
      <contour>
        <pt x="298" y="720" on="0"/>
        <pt x="232" y="720" on="0"/>
        <pt x="186" y="767" on="0"/>
        <pt x="186" y="799" on="1"/>
        <pt x="186" y="832" on="0"/>
        <pt x="232" y="879" on="0"/>
        <pt x="298" y="879" on="0"/>
        <pt x="345" y="832" on="0"/>
        <pt x="345" y="799" on="1"/>
        <pt x="345" y="767" on="0"/>
      </contour>
      <contour>
        <pt x="513" y="720" on="0"/>
        <pt x="447" y="720" on="0"/>
        <pt x="400" y="767" on="0"/>
        <pt x="400" y="799" on="1"/>
        <pt x="400" y="832" on="0"/>
        <pt x="447" y="879" on="0"/>
        <pt x="513" y="879" on="0"/>
        <pt x="560" y="832" on="0"/>
        <pt x="560" y="799" on="1"/>
        <pt x="560" y="767" on="0"/>
      </contour>
      <contour>
        <pt x="32" y="330" on="1"/>
        <pt x="32" y="471" on="0"/>
        <pt x="232" y="670" on="0"/>
        <pt x="514" y="670" on="0"/>
        <pt x="713" y="471" on="0"/>
        <pt x="713" y="330" on="1"/>
        <pt x="713" y="188" on="0"/>
        <pt x="514" y="-12" on="0"/>
        <pt x="232" y="-12" on="0"/>
        <pt x="32" y="188" on="0"/>
      </contour>
      <contour>
        <pt x="177" y="329" on="1"/>
        <pt x="177" y="249" on="0"/>
        <pt x="292" y="133" on="0"/>
        <pt x="454" y="133" on="0"/>
        <pt x="569" y="249" on="0"/>
        <pt x="569" y="329" on="1"/>
        <pt x="569" y="410" on="0"/>
        <pt x="454" y="526" on="0"/>
        <pt x="292" y="526" on="0"/>
        <pt x="177" y="410" on="0"/>
      </contour>
    </TTGlyph>
    <TTGlyph name="Odieresis.titl" xMin="44" yMin="-10" xMax="725" yMax="670">
      <contour>
        <pt x="44" y="331" on="1"/>
        <pt x="44" y="471" on="0"/>
        <pt x="244" y="670" on="0"/>
        <pt x="384" y="670" on="1"/>
        <pt x="525" y="670" on="0"/>
        <pt x="725" y="471" on="0"/>
        <pt x="725" y="331" on="1"/>
        <pt x="725" y="190" on="0"/>
        <pt x="525" y="-10" on="0"/>
        <pt x="384" y="-10" on="1"/>
        <pt x="244" y="-10" on="0"/>
        <pt x="44" y="190" on="0"/>
      </contour>
      <contour>
        <pt x="190" y="645" on="1"/>
        <pt x="130" y="611" on="0"/>
        <pt x="92" y="555" on="1"/>
        <pt x="66" y="573" on="0"/>
        <pt x="66" y="607" on="1"/>
        <pt x="66" y="636" on="0"/>
        <pt x="102" y="670" on="0"/>
        <pt x="133" y="670" on="1"/>
        <pt x="173" y="670" on="0"/>
      </contour>
      <contour>
        <pt x="666" y="554" on="1"/>
        <pt x="628" y="611" on="0"/>
        <pt x="568" y="645" on="1"/>
        <pt x="585" y="670" on="0"/>
        <pt x="624" y="670" on="1"/>
        <pt x="656" y="670" on="0"/>
        <pt x="693" y="636" on="0"/>
        <pt x="693" y="607" on="1"/>
        <pt x="693" y="571" on="0"/>
      </contour>
      <contour>
        <pt x="173" y="330" on="1"/>
        <pt x="173" y="243" on="0"/>
        <pt x="297" y="118" on="0"/>
        <pt x="384" y="118" on="1"/>
        <pt x="472" y="118" on="0"/>
        <pt x="597" y="243" on="0"/>
        <pt x="597" y="330" on="1"/>
        <pt x="597" y="418" on="0"/>
        <pt x="472" y="543" on="0"/>
        <pt x="384" y="543" on="1"/>
        <pt x="297" y="543" on="0"/>
        <pt x="173" y="418" on="0"/>
      </contour>
    </TTGlyph>
    <TTGlyph name="Ograve" xMin="32" yMin="-12" xMax="713" yMax="884">
      <contour>
        <pt x="371" y="884" on="1"/>
        <pt x="426" y="726" on="1"/>
        <pt x="297" y="726" on="1"/>
        <pt x="233" y="884" on="1"/>
      </contour>
      <contour>
        <pt x="32" y="330" on="1"/>
        <pt x="32" y="471" on="0"/>
        <pt x="232" y="670" on="0"/>
        <pt x="514" y="670" on="0"/>
        <pt x="713" y="471" on="0"/>
        <pt x="713" y="330" on="1"/>
        <pt x="713" y="188" on="0"/>
        <pt x="514" y="-12" on="0"/>
        <pt x="232" y="-12" on="0"/>
        <pt x="32" y="188" on="0"/>
      </contour>
      <contour>
        <pt x="177" y="329" on="1"/>
        <pt x="177" y="249" on="0"/>
        <pt x="292" y="133" on="0"/>
        <pt x="454" y="133" on="0"/>
        <pt x="569" y="249" on="0"/>
        <pt x="569" y="329" on="1"/>
        <pt x="569" y="410" on="0"/>
        <pt x="454" y="526" on="0"/>
        <pt x="292" y="526" on="0"/>
        <pt x="177" y="410" on="0"/>
      </contour>
    </TTGlyph>
    <TTGlyph name="Ohungarumlaut" xMin="32" yMin="-12" xMax="713" yMax="884">
      <contour>
        <pt x="251" y="884" on="1"/>
        <pt x="389" y="884" on="1"/>
        <pt x="325" y="726" on="1"/>
        <pt x="196" y="726" on="1"/>
      </contour>
      <contour>
        <pt x="467" y="884" on="1"/>
        <pt x="605" y="884" on="1"/>
        <pt x="541" y="726" on="1"/>
        <pt x="412" y="726" on="1"/>
      </contour>
      <contour>
        <pt x="32" y="330" on="1"/>
        <pt x="32" y="471" on="0"/>
        <pt x="232" y="670" on="0"/>
        <pt x="514" y="670" on="0"/>
        <pt x="713" y="471" on="0"/>
        <pt x="713" y="330" on="1"/>
        <pt x="713" y="188" on="0"/>
        <pt x="514" y="-12" on="0"/>
        <pt x="232" y="-12" on="0"/>
        <pt x="32" y="188" on="0"/>
      </contour>
      <contour>
        <pt x="177" y="329" on="1"/>
        <pt x="177" y="249" on="0"/>
        <pt x="292" y="133" on="0"/>
        <pt x="454" y="133" on="0"/>
        <pt x="569" y="249" on="0"/>
        <pt x="569" y="329" on="1"/>
        <pt x="569" y="410" on="0"/>
        <pt x="454" y="526" on="0"/>
        <pt x="292" y="526" on="0"/>
        <pt x="177" y="410" on="0"/>
      </contour>
    </TTGlyph>
    <TTGlyph name="Oinferior" xMin="33" yMin="-196" xMax="441" yMax="213">
      <contour>
        <pt x="33" y="9" on="1"/>
        <pt x="33" y="93" on="0"/>
        <pt x="152" y="213" on="0"/>
        <pt x="237" y="213" on="1"/>
        <pt x="321" y="213" on="0"/>
        <pt x="441" y="93" on="0"/>
        <pt x="441" y="9" on="1"/>
        <pt x="441" y="-76" on="0"/>
        <pt x="321" y="-196" on="0"/>
        <pt x="237" y="-196" on="1"/>
        <pt x="152" y="-196" on="0"/>
        <pt x="33" y="-76" on="0"/>
      </contour>
      <contour>
        <pt x="115" y="9" on="1"/>
        <pt x="115" y="-42" on="0"/>
        <pt x="187" y="-113" on="0"/>
        <pt x="287" y="-113" on="0"/>
        <pt x="358" y="-42" on="0"/>
        <pt x="358" y="9" on="1"/>
        <pt x="358" y="59" on="0"/>
        <pt x="287" y="130" on="0"/>
        <pt x="187" y="130" on="0"/>
        <pt x="115" y="59" on="0"/>
      </contour>
    </TTGlyph>
    <TTGlyph name="Omacron" xMin="32" yMin="-12" xMax="713" yMax="832">
      <contour>
        <pt x="557" y="832" on="1"/>
        <pt x="557" y="734" on="1"/>
        <pt x="189" y="734" on="1"/>
        <pt x="189" y="832" on="1"/>
      </contour>
      <contour>
        <pt x="32" y="330" on="1"/>
        <pt x="32" y="471" on="0"/>
        <pt x="232" y="670" on="0"/>
        <pt x="514" y="670" on="0"/>
        <pt x="713" y="471" on="0"/>
        <pt x="713" y="330" on="1"/>
        <pt x="713" y="188" on="0"/>
        <pt x="514" y="-12" on="0"/>
        <pt x="232" y="-12" on="0"/>
        <pt x="32" y="188" on="0"/>
      </contour>
      <contour>
        <pt x="177" y="329" on="1"/>
        <pt x="177" y="249" on="0"/>
        <pt x="292" y="133" on="0"/>
        <pt x="454" y="133" on="0"/>
        <pt x="569" y="249" on="0"/>
        <pt x="569" y="329" on="1"/>
        <pt x="569" y="410" on="0"/>
        <pt x="454" y="526" on="0"/>
        <pt x="292" y="526" on="0"/>
        <pt x="177" y="410" on="0"/>
      </contour>
    </TTGlyph>
    <TTGlyph name="Oslash" xMin="32" yMin="-29" xMax="713" yMax="682">
      <contour>
        <pt x="606" y="577" on="1"/>
        <pt x="713" y="476" on="0"/>
        <pt x="713" y="330" on="1"/>
        <pt x="713" y="188" on="0"/>
        <pt x="514" y="-12" on="0"/>
        <pt x="373" y="-12" on="1"/>
        <pt x="284" y="-12" on="0"/>
        <pt x="206" y="31" on="1"/>
        <pt x="163" y="-29" on="1"/>
        <pt x="80" y="-29" on="1"/>
        <pt x="151" y="70" on="1"/>
        <pt x="95" y="118" on="0"/>
        <pt x="32" y="253" on="0"/>
        <pt x="32" y="330" on="1"/>
        <pt x="32" y="471" on="0"/>
        <pt x="232" y="670" on="0"/>
        <pt x="373" y="670" on="1"/>
        <pt x="471" y="670" on="0"/>
        <pt x="553" y="618" on="1"/>
        <pt x="599" y="682" on="1"/>
        <pt x="682" y="682" on="1"/>
      </contour>
      <contour>
        <pt x="373" y="526" on="1"/>
        <pt x="292" y="526" on="0"/>
        <pt x="177" y="410" on="0"/>
        <pt x="177" y="329" on="1"/>
        <pt x="177" y="244" on="0"/>
        <pt x="241" y="185" on="1"/>
        <pt x="464" y="503" on="1"/>
        <pt x="420" y="526" on="0"/>
      </contour>
      <contour>
        <pt x="373" y="133" on="1"/>
        <pt x="454" y="133" on="0"/>
        <pt x="569" y="249" on="0"/>
        <pt x="569" y="329" on="1"/>
        <pt x="569" y="404" on="0"/>
        <pt x="519" y="460" on="1"/>
        <pt x="299" y="148" on="1"/>
        <pt x="334" y="133" on="0"/>
      </contour>
    </TTGlyph>
    <TTGlyph name="Osuperior" xMin="33" yMin="327" xMax="441" yMax="735">
      <contour>
        <pt x="33" y="531" on="1"/>
        <pt x="33" y="615" on="0"/>
        <pt x="152" y="735" on="0"/>
        <pt x="237" y="735" on="1"/>
        <pt x="321" y="735" on="0"/>
        <pt x="441" y="615" on="0"/>
        <pt x="441" y="531" on="1"/>
        <pt x="441" y="446" on="0"/>
        <pt x="321" y="327" on="0"/>
        <pt x="237" y="327" on="1"/>
        <pt x="152" y="327" on="0"/>
        <pt x="33" y="446" on="0"/>
      </contour>
      <contour>
        <pt x="115" y="581" on="0"/>
        <pt x="115" y="481" on="0"/>
        <pt x="187" y="409" on="0"/>
        <pt x="287" y="409" on="0"/>
        <pt x="358" y="481" on="0"/>
        <pt x="358" y="581" on="0"/>
        <pt x="287" y="652" on="0"/>
        <pt x="187" y="652" on="0"/>
      </contour>
    </TTGlyph>
    <TTGlyph name="Otilde" xMin="32" yMin="-12" xMax="713" yMax="879">
      <contour>
        <pt x="568" y="878" on="1"/>
        <pt x="561" y="723" on="0"/>
        <pt x="439" y="723" on="1"/>
        <pt x="406" y="723" on="0"/>
        <pt x="357" y="752" on="0"/>
        <pt x="323" y="782" on="0"/>
        <pt x="307" y="782" on="1"/>
        <pt x="275" y="782" on="0"/>
        <pt x="267" y="724" on="1"/>
        <pt x="177" y="724" on="1"/>
        <pt x="184" y="879" on="0"/>
        <pt x="306" y="879" on="1"/>
        <pt x="332" y="879" on="0"/>
        <pt x="374" y="861" on="0"/>
        <pt x="397" y="838" on="0"/>
        <pt x="425" y="820" on="0"/>
        <pt x="437" y="820" on="1"/>
        <pt x="469" y="820" on="0"/>
        <pt x="477" y="878" on="1"/>
      </contour>
      <contour>
        <pt x="32" y="330" on="1"/>
        <pt x="32" y="471" on="0"/>
        <pt x="232" y="670" on="0"/>
        <pt x="514" y="670" on="0"/>
        <pt x="713" y="471" on="0"/>
        <pt x="713" y="330" on="1"/>
        <pt x="713" y="188" on="0"/>
        <pt x="514" y="-12" on="0"/>
        <pt x="232" y="-12" on="0"/>
        <pt x="32" y="188" on="0"/>
      </contour>
      <contour>
        <pt x="177" y="329" on="1"/>
        <pt x="177" y="249" on="0"/>
        <pt x="292" y="133" on="0"/>
        <pt x="454" y="133" on="0"/>
        <pt x="569" y="249" on="0"/>
        <pt x="569" y="329" on="1"/>
        <pt x="569" y="410" on="0"/>
        <pt x="454" y="526" on="0"/>
        <pt x="292" y="526" on="0"/>
        <pt x="177" y="410" on="0"/>
      </contour>
    </TTGlyph>
    <TTGlyph name="P" xMin="74" yMin="0" xMax="635" yMax="660">
      <contour>
        <pt x="378" y="660" on="1"/>
        <pt x="493" y="660" on="0"/>
        <pt x="635" y="528" on="0"/>
        <pt x="635" y="326" on="0"/>
        <pt x="492" y="187" on="0"/>
        <pt x="378" y="187" on="1"/>
        <pt x="228" y="187" on="1"/>
        <pt x="228" y="0" on="1"/>
        <pt x="74" y="0" on="1"/>
        <pt x="74" y="660" on="1"/>
        <pt x="228" y="660" on="1"/>
      </contour>
      <contour>
        <pt x="354" y="306" on="1"/>
        <pt x="410" y="306" on="0"/>
        <pt x="476" y="375" on="0"/>
        <pt x="476" y="473" on="0"/>
        <pt x="410" y="540" on="0"/>
        <pt x="354" y="540" on="1"/>
        <pt x="228" y="540" on="1"/>
        <pt x="228" y="306" on="1"/>
      </contour>
    </TTGlyph>
    <TTGlyph name="Q" xMin="32" yMin="-93" xMax="713" yMax="670">
      <contour>
        <pt x="713" y="330" on="1"/>
        <pt x="713" y="202" on="0"/>
        <pt x="629" y="105" on="1"/>
        <pt x="712" y="-10" on="1"/>
        <pt x="595" y="-93" on="1"/>
        <pt x="514" y="19" on="1"/>
        <pt x="447" y="-12" on="0"/>
        <pt x="373" y="-12" on="1"/>
        <pt x="232" y="-12" on="0"/>
        <pt x="32" y="188" on="0"/>
        <pt x="32" y="330" on="1"/>
        <pt x="32" y="471" on="0"/>
        <pt x="232" y="670" on="0"/>
        <pt x="514" y="670" on="0"/>
        <pt x="713" y="471" on="0"/>
      </contour>
      <contour>
        <pt x="177" y="329" on="1"/>
        <pt x="177" y="249" on="0"/>
        <pt x="292" y="133" on="0"/>
        <pt x="454" y="133" on="0"/>
        <pt x="569" y="249" on="0"/>
        <pt x="569" y="329" on="1"/>
        <pt x="569" y="410" on="0"/>
        <pt x="454" y="526" on="0"/>
        <pt x="292" y="526" on="0"/>
        <pt x="177" y="410" on="0"/>
      </contour>
    </TTGlyph>
    <TTGlyph name="R" xMin="74" yMin="0" xMax="642" yMax="660">
      <contour>
        <pt x="473" y="0" on="1"/>
        <pt x="369" y="182" on="1"/>
        <pt x="228" y="182" on="1"/>
        <pt x="228" y="0" on="1"/>
        <pt x="74" y="0" on="1"/>
        <pt x="74" y="660" on="1"/>
        <pt x="228" y="660" on="1"/>
        <pt x="378" y="660" on="1"/>
        <pt x="493" y="660" on="0"/>
        <pt x="635" y="528" on="0"/>
        <pt x="635" y="427" on="1"/>
        <pt x="635" y="362" on="0"/>
        <pt x="572" y="250" on="0"/>
        <pt x="516" y="217" on="1"/>
        <pt x="642" y="0" on="1"/>
      </contour>
      <contour>
        <pt x="228" y="540" on="1"/>
        <pt x="228" y="306" on="1"/>
        <pt x="354" y="306" on="1"/>
        <pt x="410" y="306" on="0"/>
        <pt x="476" y="375" on="0"/>
        <pt x="476" y="473" on="0"/>
        <pt x="410" y="540" on="0"/>
        <pt x="354" y="540" on="1"/>
      </contour>
    </TTGlyph>
    <TTGlyph name="R.ss03" xMin="74" yMin="0" xMax="662" yMax="660">
      <contour>
        <pt x="662" y="0" on="1"/>
        <pt x="488" y="0" on="1"/>
        <pt x="378" y="192" on="1"/>
        <pt x="228" y="192" on="1"/>
        <pt x="228" y="0" on="1"/>
        <pt x="74" y="0" on="1"/>
        <pt x="74" y="660" on="1"/>
        <pt x="228" y="660" on="1"/>
        <pt x="378" y="660" on="1"/>
        <pt x="493" y="660" on="0"/>
        <pt x="635" y="528" on="0"/>
        <pt x="635" y="427" on="1"/>
        <pt x="635" y="363" on="0"/>
        <pt x="573" y="257" on="0"/>
        <pt x="518" y="226" on="1"/>
      </contour>
      <contour>
        <pt x="228" y="540" on="1"/>
        <pt x="228" y="306" on="1"/>
        <pt x="354" y="306" on="1"/>
        <pt x="410" y="306" on="0"/>
        <pt x="476" y="375" on="0"/>
        <pt x="476" y="473" on="0"/>
        <pt x="410" y="540" on="0"/>
        <pt x="354" y="540" on="1"/>
      </contour>
    </TTGlyph>
    <TTGlyph name="R.swsh" xMin="5" yMin="-110" xMax="905" yMax="660">
      <contour>
        <pt x="731" y="0" on="1"/>
        <pt x="618" y="192" on="1"/>
        <pt x="471" y="192" on="1"/>
        <pt x="471" y="108" on="1"/>
        <pt x="471" y="1" on="0"/>
        <pt x="348" y="-110" on="0"/>
        <pt x="239" y="-110" on="1"/>
        <pt x="87" y="-110" on="0"/>
        <pt x="43" y="2" on="1"/>
        <pt x="111" y="91" on="1"/>
        <pt x="126" y="47" on="0"/>
        <pt x="177" y="8" on="0"/>
        <pt x="222" y="8" on="1"/>
        <pt x="266" y="8" on="0"/>
        <pt x="317" y="65" on="0"/>
        <pt x="317" y="113" on="1"/>
        <pt x="317" y="207" on="1"/>
        <pt x="317" y="545" on="1"/>
        <pt x="252" y="545" on="1"/>
        <pt x="202" y="545" on="0"/>
        <pt x="147" y="498" on="0"/>
        <pt x="147" y="456" on="1"/>
        <pt x="147" y="420" on="0"/>
        <pt x="198" y="369" on="0"/>
        <pt x="240" y="364" on="1"/>
        <pt x="193" y="257" on="1"/>
        <pt x="111" y="264" on="0"/>
        <pt x="5" y="373" on="0"/>
        <pt x="5" y="459" on="1"/>
        <pt x="5" y="555" on="0"/>
        <pt x="129" y="660" on="0"/>
        <pt x="243" y="660" on="1"/>
        <pt x="439" y="660" on="1"/>
        <pt x="475" y="660" on="1"/>
        <pt x="644" y="660" on="1"/>
        <pt x="759" y="660" on="0"/>
        <pt x="901" y="528" on="0"/>
        <pt x="901" y="427" on="1"/>
        <pt x="901" y="357" on="0"/>
        <pt x="829" y="245" on="0"/>
        <pt x="765" y="216" on="1"/>
        <pt x="905" y="0" on="1"/>
      </contour>
      <contour>
        <pt x="620" y="540" on="1"/>
        <pt x="471" y="540" on="1"/>
        <pt x="471" y="306" on="1"/>
        <pt x="620" y="306" on="1"/>
        <pt x="676" y="306" on="0"/>
        <pt x="742" y="375" on="0"/>
        <pt x="742" y="473" on="0"/>
        <pt x="676" y="540" on="0"/>
      </contour>
    </TTGlyph>
    <TTGlyph name="R.swsh.001" xMin="74" yMin="-94" xMax="728" yMax="660">
      <contour>
        <pt x="573" y="113" on="1"/>
        <pt x="645" y="16" on="0"/>
        <pt x="728" y="-4" on="1"/>
        <pt x="643" y="-94" on="1"/>
        <pt x="576" y="-74" on="0"/>
        <pt x="497" y="-14" on="0"/>
        <pt x="465" y="32" on="1"/>
        <pt x="355" y="192" on="1"/>
        <pt x="228" y="192" on="1"/>
        <pt x="228" y="0" on="1"/>
        <pt x="74" y="0" on="1"/>
        <pt x="74" y="660" on="1"/>
        <pt x="228" y="660" on="1"/>
        <pt x="378" y="660" on="1"/>
        <pt x="493" y="660" on="0"/>
        <pt x="635" y="528" on="0"/>
        <pt x="635" y="427" on="1"/>
        <pt x="635" y="356" on="0"/>
        <pt x="562" y="244" on="0"/>
        <pt x="497" y="215" on="1"/>
      </contour>
      <contour>
        <pt x="228" y="540" on="1"/>
        <pt x="228" y="306" on="1"/>
        <pt x="354" y="306" on="1"/>
        <pt x="410" y="306" on="0"/>
        <pt x="476" y="375" on="0"/>
        <pt x="476" y="473" on="0"/>
        <pt x="410" y="540" on="0"/>
        <pt x="354" y="540" on="1"/>
      </contour>
    </TTGlyph>
    <TTGlyph name="Racute" xMin="74" yMin="0" xMax="642" yMax="884">
      <contour>
        <pt x="450" y="884" on="1"/>
        <pt x="386" y="726" on="1"/>
        <pt x="257" y="726" on="1"/>
        <pt x="312" y="884" on="1"/>
      </contour>
      <contour>
        <pt x="473" y="0" on="1"/>
        <pt x="369" y="182" on="1"/>
        <pt x="228" y="182" on="1"/>
        <pt x="228" y="0" on="1"/>
        <pt x="74" y="0" on="1"/>
        <pt x="74" y="660" on="1"/>
        <pt x="228" y="660" on="1"/>
        <pt x="378" y="660" on="1"/>
        <pt x="493" y="660" on="0"/>
        <pt x="635" y="528" on="0"/>
        <pt x="635" y="427" on="1"/>
        <pt x="635" y="362" on="0"/>
        <pt x="572" y="250" on="0"/>
        <pt x="516" y="217" on="1"/>
        <pt x="642" y="0" on="1"/>
      </contour>
      <contour>
        <pt x="228" y="540" on="1"/>
        <pt x="228" y="306" on="1"/>
        <pt x="354" y="306" on="1"/>
        <pt x="410" y="306" on="0"/>
        <pt x="476" y="375" on="0"/>
        <pt x="476" y="473" on="0"/>
        <pt x="410" y="540" on="0"/>
        <pt x="354" y="540" on="1"/>
      </contour>
    </TTGlyph>
    <TTGlyph name="Racute.ss03" xMin="74" yMin="0" xMax="662" yMax="884">
      <contour>
        <pt x="450" y="884" on="1"/>
        <pt x="386" y="726" on="1"/>
        <pt x="257" y="726" on="1"/>
        <pt x="312" y="884" on="1"/>
      </contour>
      <contour>
        <pt x="662" y="0" on="1"/>
        <pt x="488" y="0" on="1"/>
        <pt x="378" y="192" on="1"/>
        <pt x="228" y="192" on="1"/>
        <pt x="228" y="0" on="1"/>
        <pt x="74" y="0" on="1"/>
        <pt x="74" y="660" on="1"/>
        <pt x="228" y="660" on="1"/>
        <pt x="378" y="660" on="1"/>
        <pt x="493" y="660" on="0"/>
        <pt x="635" y="528" on="0"/>
        <pt x="635" y="427" on="1"/>
        <pt x="635" y="363" on="0"/>
        <pt x="573" y="257" on="0"/>
        <pt x="518" y="226" on="1"/>
      </contour>
      <contour>
        <pt x="228" y="540" on="1"/>
        <pt x="228" y="306" on="1"/>
        <pt x="354" y="306" on="1"/>
        <pt x="410" y="306" on="0"/>
        <pt x="476" y="375" on="0"/>
        <pt x="476" y="473" on="0"/>
        <pt x="410" y="540" on="0"/>
        <pt x="354" y="540" on="1"/>
      </contour>
    </TTGlyph>
    <TTGlyph name="Racute.swsh" xMin="5" yMin="-110" xMax="905" yMax="884">
      <contour>
        <pt x="693" y="884" on="1"/>
        <pt x="629" y="726" on="1"/>
        <pt x="500" y="726" on="1"/>
        <pt x="555" y="884" on="1"/>
      </contour>
      <contour>
        <pt x="731" y="0" on="1"/>
        <pt x="618" y="192" on="1"/>
        <pt x="471" y="192" on="1"/>
        <pt x="471" y="108" on="1"/>
        <pt x="471" y="1" on="0"/>
        <pt x="348" y="-110" on="0"/>
        <pt x="239" y="-110" on="1"/>
        <pt x="87" y="-110" on="0"/>
        <pt x="43" y="2" on="1"/>
        <pt x="111" y="91" on="1"/>
        <pt x="126" y="47" on="0"/>
        <pt x="177" y="8" on="0"/>
        <pt x="222" y="8" on="1"/>
        <pt x="266" y="8" on="0"/>
        <pt x="317" y="65" on="0"/>
        <pt x="317" y="113" on="1"/>
        <pt x="317" y="207" on="1"/>
        <pt x="317" y="545" on="1"/>
        <pt x="252" y="545" on="1"/>
        <pt x="202" y="545" on="0"/>
        <pt x="147" y="498" on="0"/>
        <pt x="147" y="456" on="1"/>
        <pt x="147" y="420" on="0"/>
        <pt x="198" y="369" on="0"/>
        <pt x="240" y="364" on="1"/>
        <pt x="193" y="257" on="1"/>
        <pt x="111" y="264" on="0"/>
        <pt x="5" y="373" on="0"/>
        <pt x="5" y="459" on="1"/>
        <pt x="5" y="555" on="0"/>
        <pt x="129" y="660" on="0"/>
        <pt x="243" y="660" on="1"/>
        <pt x="439" y="660" on="1"/>
        <pt x="475" y="660" on="1"/>
        <pt x="644" y="660" on="1"/>
        <pt x="759" y="660" on="0"/>
        <pt x="901" y="528" on="0"/>
        <pt x="901" y="427" on="1"/>
        <pt x="901" y="357" on="0"/>
        <pt x="829" y="245" on="0"/>
        <pt x="765" y="216" on="1"/>
        <pt x="905" y="0" on="1"/>
      </contour>
      <contour>
        <pt x="620" y="540" on="1"/>
        <pt x="471" y="540" on="1"/>
        <pt x="471" y="306" on="1"/>
        <pt x="620" y="306" on="1"/>
        <pt x="676" y="306" on="0"/>
        <pt x="742" y="375" on="0"/>
        <pt x="742" y="473" on="0"/>
        <pt x="676" y="540" on="0"/>
      </contour>
    </TTGlyph>
    <TTGlyph name="Racute.swsh.001" xMin="74" yMin="-94" xMax="728" yMax="884">
      <contour>
        <pt x="450" y="884" on="1"/>
        <pt x="386" y="726" on="1"/>
        <pt x="257" y="726" on="1"/>
        <pt x="312" y="884" on="1"/>
      </contour>
      <contour>
        <pt x="573" y="113" on="1"/>
        <pt x="645" y="16" on="0"/>
        <pt x="728" y="-4" on="1"/>
        <pt x="643" y="-94" on="1"/>
        <pt x="576" y="-74" on="0"/>
        <pt x="497" y="-14" on="0"/>
        <pt x="465" y="32" on="1"/>
        <pt x="355" y="192" on="1"/>
        <pt x="228" y="192" on="1"/>
        <pt x="228" y="0" on="1"/>
        <pt x="74" y="0" on="1"/>
        <pt x="74" y="660" on="1"/>
        <pt x="228" y="660" on="1"/>
        <pt x="378" y="660" on="1"/>
        <pt x="493" y="660" on="0"/>
        <pt x="635" y="528" on="0"/>
        <pt x="635" y="427" on="1"/>
        <pt x="635" y="356" on="0"/>
        <pt x="562" y="244" on="0"/>
        <pt x="497" y="215" on="1"/>
      </contour>
      <contour>
        <pt x="228" y="540" on="1"/>
        <pt x="228" y="306" on="1"/>
        <pt x="354" y="306" on="1"/>
        <pt x="410" y="306" on="0"/>
        <pt x="476" y="375" on="0"/>
        <pt x="476" y="473" on="0"/>
        <pt x="410" y="540" on="0"/>
        <pt x="354" y="540" on="1"/>
      </contour>
    </TTGlyph>
    <TTGlyph name="Rcaron" xMin="74" yMin="0" xMax="642" yMax="891">
      <contour>
        <pt x="396" y="724" on="1"/>
        <pt x="244" y="724" on="1"/>
        <pt x="133" y="891" on="1"/>
        <pt x="255" y="891" on="1"/>
        <pt x="320" y="799" on="1"/>
        <pt x="385" y="891" on="1"/>
        <pt x="507" y="891" on="1"/>
      </contour>
      <contour>
        <pt x="473" y="0" on="1"/>
        <pt x="369" y="182" on="1"/>
        <pt x="228" y="182" on="1"/>
        <pt x="228" y="0" on="1"/>
        <pt x="74" y="0" on="1"/>
        <pt x="74" y="660" on="1"/>
        <pt x="228" y="660" on="1"/>
        <pt x="378" y="660" on="1"/>
        <pt x="493" y="660" on="0"/>
        <pt x="635" y="528" on="0"/>
        <pt x="635" y="427" on="1"/>
        <pt x="635" y="362" on="0"/>
        <pt x="572" y="250" on="0"/>
        <pt x="516" y="217" on="1"/>
        <pt x="642" y="0" on="1"/>
      </contour>
      <contour>
        <pt x="228" y="540" on="1"/>
        <pt x="228" y="306" on="1"/>
        <pt x="354" y="306" on="1"/>
        <pt x="410" y="306" on="0"/>
        <pt x="476" y="375" on="0"/>
        <pt x="476" y="473" on="0"/>
        <pt x="410" y="540" on="0"/>
        <pt x="354" y="540" on="1"/>
      </contour>
    </TTGlyph>
    <TTGlyph name="Rcaron.ss03" xMin="74" yMin="0" xMax="662" yMax="891">
      <contour>
        <pt x="396" y="724" on="1"/>
        <pt x="244" y="724" on="1"/>
        <pt x="133" y="891" on="1"/>
        <pt x="255" y="891" on="1"/>
        <pt x="320" y="799" on="1"/>
        <pt x="385" y="891" on="1"/>
        <pt x="507" y="891" on="1"/>
      </contour>
      <contour>
        <pt x="662" y="0" on="1"/>
        <pt x="488" y="0" on="1"/>
        <pt x="378" y="192" on="1"/>
        <pt x="228" y="192" on="1"/>
        <pt x="228" y="0" on="1"/>
        <pt x="74" y="0" on="1"/>
        <pt x="74" y="660" on="1"/>
        <pt x="228" y="660" on="1"/>
        <pt x="378" y="660" on="1"/>
        <pt x="493" y="660" on="0"/>
        <pt x="635" y="528" on="0"/>
        <pt x="635" y="427" on="1"/>
        <pt x="635" y="363" on="0"/>
        <pt x="573" y="257" on="0"/>
        <pt x="518" y="226" on="1"/>
      </contour>
      <contour>
        <pt x="228" y="540" on="1"/>
        <pt x="228" y="306" on="1"/>
        <pt x="354" y="306" on="1"/>
        <pt x="410" y="306" on="0"/>
        <pt x="476" y="375" on="0"/>
        <pt x="476" y="473" on="0"/>
        <pt x="410" y="540" on="0"/>
        <pt x="354" y="540" on="1"/>
      </contour>
    </TTGlyph>
    <TTGlyph name="Rcaron.swsh" xMin="5" yMin="-110" xMax="905" yMax="891">
      <contour>
        <pt x="639" y="724" on="1"/>
        <pt x="487" y="724" on="1"/>
        <pt x="376" y="891" on="1"/>
        <pt x="498" y="891" on="1"/>
        <pt x="563" y="799" on="1"/>
        <pt x="628" y="891" on="1"/>
        <pt x="750" y="891" on="1"/>
      </contour>
      <contour>
        <pt x="731" y="0" on="1"/>
        <pt x="618" y="192" on="1"/>
        <pt x="471" y="192" on="1"/>
        <pt x="471" y="108" on="1"/>
        <pt x="471" y="1" on="0"/>
        <pt x="348" y="-110" on="0"/>
        <pt x="239" y="-110" on="1"/>
        <pt x="87" y="-110" on="0"/>
        <pt x="43" y="2" on="1"/>
        <pt x="111" y="91" on="1"/>
        <pt x="126" y="47" on="0"/>
        <pt x="177" y="8" on="0"/>
        <pt x="222" y="8" on="1"/>
        <pt x="266" y="8" on="0"/>
        <pt x="317" y="65" on="0"/>
        <pt x="317" y="113" on="1"/>
        <pt x="317" y="207" on="1"/>
        <pt x="317" y="545" on="1"/>
        <pt x="252" y="545" on="1"/>
        <pt x="202" y="545" on="0"/>
        <pt x="147" y="498" on="0"/>
        <pt x="147" y="456" on="1"/>
        <pt x="147" y="420" on="0"/>
        <pt x="198" y="369" on="0"/>
        <pt x="240" y="364" on="1"/>
        <pt x="193" y="257" on="1"/>
        <pt x="111" y="264" on="0"/>
        <pt x="5" y="373" on="0"/>
        <pt x="5" y="459" on="1"/>
        <pt x="5" y="555" on="0"/>
        <pt x="129" y="660" on="0"/>
        <pt x="243" y="660" on="1"/>
        <pt x="439" y="660" on="1"/>
        <pt x="475" y="660" on="1"/>
        <pt x="644" y="660" on="1"/>
        <pt x="759" y="660" on="0"/>
        <pt x="901" y="528" on="0"/>
        <pt x="901" y="427" on="1"/>
        <pt x="901" y="357" on="0"/>
        <pt x="829" y="245" on="0"/>
        <pt x="765" y="216" on="1"/>
        <pt x="905" y="0" on="1"/>
      </contour>
      <contour>
        <pt x="620" y="540" on="1"/>
        <pt x="471" y="540" on="1"/>
        <pt x="471" y="306" on="1"/>
        <pt x="620" y="306" on="1"/>
        <pt x="676" y="306" on="0"/>
        <pt x="742" y="375" on="0"/>
        <pt x="742" y="473" on="0"/>
        <pt x="676" y="540" on="0"/>
      </contour>
    </TTGlyph>
    <TTGlyph name="Rcaron.swsh.001" xMin="74" yMin="-94" xMax="728" yMax="891">
      <contour>
        <pt x="396" y="724" on="1"/>
        <pt x="244" y="724" on="1"/>
        <pt x="133" y="891" on="1"/>
        <pt x="255" y="891" on="1"/>
        <pt x="320" y="799" on="1"/>
        <pt x="385" y="891" on="1"/>
        <pt x="507" y="891" on="1"/>
      </contour>
      <contour>
        <pt x="573" y="113" on="1"/>
        <pt x="645" y="16" on="0"/>
        <pt x="728" y="-4" on="1"/>
        <pt x="643" y="-94" on="1"/>
        <pt x="576" y="-74" on="0"/>
        <pt x="497" y="-14" on="0"/>
        <pt x="465" y="32" on="1"/>
        <pt x="355" y="192" on="1"/>
        <pt x="228" y="192" on="1"/>
        <pt x="228" y="0" on="1"/>
        <pt x="74" y="0" on="1"/>
        <pt x="74" y="660" on="1"/>
        <pt x="228" y="660" on="1"/>
        <pt x="378" y="660" on="1"/>
        <pt x="493" y="660" on="0"/>
        <pt x="635" y="528" on="0"/>
        <pt x="635" y="427" on="1"/>
        <pt x="635" y="356" on="0"/>
        <pt x="562" y="244" on="0"/>
        <pt x="497" y="215" on="1"/>
      </contour>
      <contour>
        <pt x="228" y="540" on="1"/>
        <pt x="228" y="306" on="1"/>
        <pt x="354" y="306" on="1"/>
        <pt x="410" y="306" on="0"/>
        <pt x="476" y="375" on="0"/>
        <pt x="476" y="473" on="0"/>
        <pt x="410" y="540" on="0"/>
        <pt x="354" y="540" on="1"/>
      </contour>
    </TTGlyph>
    <TTGlyph name="Rcommaaccent.sc" xMin="69" yMin="-240" xMax="598" yMax="560">
      <contour>
        <pt x="475" y="186" on="1"/>
        <pt x="598" y="0" on="1"/>
        <pt x="430" y="0" on="1"/>
        <pt x="346" y="154" on="1"/>
        <pt x="344" y="154" on="1"/>
        <pt x="222" y="154" on="1"/>
        <pt x="222" y="0" on="1"/>
        <pt x="69" y="0" on="1"/>
        <pt x="69" y="560" on="1"/>
        <pt x="222" y="560" on="1"/>
        <pt x="344" y="560" on="1"/>
        <pt x="448" y="560" on="0"/>
        <pt x="573" y="446" on="0"/>
        <pt x="573" y="358" on="1"/>
        <pt x="573" y="303" on="0"/>
        <pt x="522" y="213" on="0"/>
      </contour>
      <contour>
        <pt x="222" y="451" on="1"/>
        <pt x="222" y="253" on="1"/>
        <pt x="326" y="253" on="1"/>
        <pt x="369" y="253" on="0"/>
        <pt x="421" y="313" on="0"/>
        <pt x="421" y="353" on="1"/>
        <pt x="421" y="392" on="0"/>
        <pt x="369" y="451" on="0"/>
        <pt x="326" y="451" on="1"/>
      </contour>
      <contour>
        <pt x="209" y="-240" on="1"/>
        <pt x="275" y="-63" on="1"/>
        <pt x="388" y="-63" on="1"/>
        <pt x="324" y="-240" on="1"/>
      </contour>
    </TTGlyph>
    <TTGlyph name="Rcommaaccent.sc.ss03" xMin="69" yMin="-240" xMax="578" yMax="560">
      <contour>
        <pt x="69" y="0" on="1"/>
        <pt x="69" y="560" on="1"/>
        <pt x="344" y="560" on="1"/>
        <pt x="449" y="560" on="0"/>
        <pt x="569" y="469" on="0"/>
        <pt x="569" y="389" on="1"/>
        <pt x="569" y="329" on="0"/>
        <pt x="504" y="254" on="0"/>
        <pt x="447" y="243" on="1"/>
        <pt x="447" y="240" on="1"/>
        <pt x="535" y="223" on="0"/>
        <pt x="544" y="145" on="1"/>
        <pt x="558" y="40" on="0"/>
        <pt x="578" y="4" on="1"/>
        <pt x="578" y="0" on="1"/>
        <pt x="415" y="0" on="1"/>
        <pt x="407" y="20" on="0"/>
        <pt x="392" y="131" on="1"/>
        <pt x="382" y="200" on="0"/>
        <pt x="296" y="200" on="1"/>
        <pt x="222" y="200" on="1"/>
        <pt x="222" y="0" on="1"/>
      </contour>
      <contour>
        <pt x="222" y="299" on="1"/>
        <pt x="323" y="299" on="1"/>
        <pt x="417" y="299" on="0"/>
        <pt x="417" y="451" on="0"/>
        <pt x="323" y="451" on="1"/>
        <pt x="222" y="451" on="1"/>
      </contour>
      <contour>
        <pt x="383" y="-63" on="1"/>
        <pt x="319" y="-240" on="1"/>
        <pt x="204" y="-240" on="1"/>
        <pt x="270" y="-63" on="1"/>
      </contour>
    </TTGlyph>
    <TTGlyph name="Rcommaaccent.ss03" xMin="74" yMin="-240" xMax="662" yMax="660">
      <contour>
        <pt x="518" y="226" on="1"/>
        <pt x="662" y="0" on="1"/>
        <pt x="488" y="0" on="1"/>
        <pt x="378" y="192" on="1"/>
        <pt x="228" y="192" on="1"/>
        <pt x="228" y="0" on="1"/>
        <pt x="74" y="0" on="1"/>
        <pt x="74" y="660" on="1"/>
        <pt x="228" y="660" on="1"/>
        <pt x="378" y="660" on="1"/>
        <pt x="493" y="660" on="0"/>
        <pt x="635" y="528" on="0"/>
        <pt x="635" y="427" on="1"/>
        <pt x="635" y="363" on="0"/>
        <pt x="573" y="257" on="0"/>
      </contour>
      <contour>
        <pt x="228" y="540" on="1"/>
        <pt x="228" y="306" on="1"/>
        <pt x="354" y="306" on="1"/>
        <pt x="410" y="306" on="0"/>
        <pt x="476" y="375" on="0"/>
        <pt x="476" y="473" on="0"/>
        <pt x="410" y="540" on="0"/>
        <pt x="354" y="540" on="1"/>
      </contour>
      <contour>
        <pt x="239" y="-240" on="1"/>
        <pt x="305" y="-63" on="1"/>
        <pt x="418" y="-63" on="1"/>
        <pt x="354" y="-240" on="1"/>
      </contour>
    </TTGlyph>
    <TTGlyph name="Rcommaaccent.swsh" xMin="5" yMin="-240" xMax="905" yMax="660">
      <contour>
        <pt x="765" y="216" on="1"/>
        <pt x="905" y="0" on="1"/>
        <pt x="731" y="0" on="1"/>
        <pt x="618" y="192" on="1"/>
        <pt x="471" y="192" on="1"/>
        <pt x="471" y="108" on="1"/>
        <pt x="471" y="1" on="0"/>
        <pt x="348" y="-110" on="0"/>
        <pt x="239" y="-110" on="1"/>
        <pt x="87" y="-110" on="0"/>
        <pt x="43" y="2" on="1"/>
        <pt x="111" y="91" on="1"/>
        <pt x="126" y="47" on="0"/>
        <pt x="177" y="8" on="0"/>
        <pt x="222" y="8" on="1"/>
        <pt x="266" y="8" on="0"/>
        <pt x="317" y="65" on="0"/>
        <pt x="317" y="113" on="1"/>
        <pt x="317" y="207" on="1"/>
        <pt x="317" y="545" on="1"/>
        <pt x="252" y="545" on="1"/>
        <pt x="202" y="545" on="0"/>
        <pt x="147" y="498" on="0"/>
        <pt x="147" y="456" on="1"/>
        <pt x="147" y="420" on="0"/>
        <pt x="198" y="369" on="0"/>
        <pt x="240" y="364" on="1"/>
        <pt x="193" y="257" on="1"/>
        <pt x="111" y="264" on="0"/>
        <pt x="5" y="373" on="0"/>
        <pt x="5" y="459" on="1"/>
        <pt x="5" y="555" on="0"/>
        <pt x="129" y="660" on="0"/>
        <pt x="243" y="660" on="1"/>
        <pt x="439" y="660" on="1"/>
        <pt x="475" y="660" on="1"/>
        <pt x="644" y="660" on="1"/>
        <pt x="759" y="660" on="0"/>
        <pt x="901" y="528" on="0"/>
        <pt x="901" y="427" on="1"/>
        <pt x="901" y="357" on="0"/>
        <pt x="829" y="245" on="0"/>
      </contour>
      <contour>
        <pt x="620" y="540" on="1"/>
        <pt x="471" y="540" on="1"/>
        <pt x="471" y="306" on="1"/>
        <pt x="620" y="306" on="1"/>
        <pt x="676" y="306" on="0"/>
        <pt x="742" y="375" on="0"/>
        <pt x="742" y="473" on="0"/>
        <pt x="676" y="540" on="0"/>
      </contour>
      <contour>
        <pt x="482" y="-240" on="1"/>
        <pt x="548" y="-63" on="1"/>
        <pt x="661" y="-63" on="1"/>
        <pt x="597" y="-240" on="1"/>
      </contour>
    </TTGlyph>
    <TTGlyph name="Rcommaaccent.swsh.001" xMin="74" yMin="-240" xMax="728" yMax="660">
      <contour>
        <pt x="573" y="113" on="1"/>
        <pt x="645" y="16" on="0"/>
        <pt x="728" y="-4" on="1"/>
        <pt x="643" y="-94" on="1"/>
        <pt x="576" y="-74" on="0"/>
        <pt x="497" y="-14" on="0"/>
        <pt x="465" y="32" on="1"/>
        <pt x="355" y="192" on="1"/>
        <pt x="228" y="192" on="1"/>
        <pt x="228" y="0" on="1"/>
        <pt x="74" y="0" on="1"/>
        <pt x="74" y="660" on="1"/>
        <pt x="228" y="660" on="1"/>
        <pt x="378" y="660" on="1"/>
        <pt x="493" y="660" on="0"/>
        <pt x="635" y="528" on="0"/>
        <pt x="635" y="427" on="1"/>
        <pt x="635" y="356" on="0"/>
        <pt x="562" y="244" on="0"/>
        <pt x="497" y="215" on="1"/>
      </contour>
      <contour>
        <pt x="228" y="540" on="1"/>
        <pt x="228" y="306" on="1"/>
        <pt x="354" y="306" on="1"/>
        <pt x="410" y="306" on="0"/>
        <pt x="476" y="375" on="0"/>
        <pt x="476" y="473" on="0"/>
        <pt x="410" y="540" on="0"/>
        <pt x="354" y="540" on="1"/>
      </contour>
      <contour>
        <pt x="239" y="-240" on="1"/>
        <pt x="305" y="-63" on="1"/>
        <pt x="418" y="-63" on="1"/>
        <pt x="354" y="-240" on="1"/>
      </contour>
    </TTGlyph>
    <TTGlyph name="S" xMin="43" yMin="-12" xMax="553" yMax="671">
      <contour>
        <pt x="299" y="-12" on="1"/>
        <pt x="179" y="-12" on="0"/>
        <pt x="43" y="91" on="0"/>
        <pt x="43" y="169" on="1"/>
        <pt x="43" y="195" on="0"/>
        <pt x="47" y="218" on="1"/>
        <pt x="172" y="218" on="1"/>
        <pt x="171" y="210" on="0"/>
        <pt x="171" y="183" on="1"/>
        <pt x="171" y="152" on="0"/>
        <pt x="236" y="99" on="0"/>
        <pt x="294" y="99" on="1"/>
        <pt x="344" y="99" on="0"/>
        <pt x="402" y="142" on="0"/>
        <pt x="402" y="176" on="1"/>
        <pt x="402" y="197" on="0"/>
        <pt x="380" y="229" on="0"/>
        <pt x="334" y="251" on="0"/>
        <pt x="301" y="263" on="0"/>
        <pt x="271" y="271" on="1"/>
        <pt x="230" y="282" on="0"/>
        <pt x="175" y="301" on="0"/>
        <pt x="112" y="334" on="0"/>
        <pt x="75" y="373" on="0"/>
        <pt x="50" y="431" on="0"/>
        <pt x="50" y="468" on="1"/>
        <pt x="50" y="562" on="0"/>
        <pt x="187" y="671" on="0"/>
        <pt x="296" y="671" on="1"/>
        <pt x="406" y="671" on="0"/>
        <pt x="534" y="554" on="0"/>
        <pt x="534" y="449" on="1"/>
        <pt x="400" y="449" on="1"/>
        <pt x="400" y="502" on="0"/>
        <pt x="347" y="557" on="0"/>
        <pt x="297" y="557" on="1"/>
        <pt x="252" y="557" on="0"/>
        <pt x="201" y="516" on="0"/>
        <pt x="201" y="479" on="1"/>
        <pt x="201" y="462" on="0"/>
        <pt x="217" y="436" on="0"/>
        <pt x="237" y="418" on="0"/>
        <pt x="279" y="400" on="0"/>
        <pt x="309" y="391" on="0"/>
        <pt x="338" y="383" on="1"/>
        <pt x="441" y="358" on="0"/>
        <pt x="553" y="267" on="0"/>
        <pt x="553" y="183" on="1"/>
        <pt x="553" y="86" on="0"/>
        <pt x="411" y="-12" on="0"/>
      </contour>
    </TTGlyph>
    <TTGlyph name="S.swsh" xMin="38" yMin="-110" xMax="602" yMax="670">
      <contour>
        <pt x="313" y="-110" on="1"/>
        <pt x="184" y="-110" on="0"/>
        <pt x="38" y="3" on="0"/>
        <pt x="38" y="98" on="1"/>
        <pt x="38" y="129" on="0"/>
        <pt x="42" y="155" on="1"/>
        <pt x="181" y="155" on="1"/>
        <pt x="176" y="130" on="0"/>
        <pt x="176" y="116" on="1"/>
        <pt x="176" y="15" on="0"/>
        <pt x="316" y="15" on="1"/>
        <pt x="453" y="15" on="0"/>
        <pt x="453" y="108" on="1"/>
        <pt x="453" y="128" on="0"/>
        <pt x="437" y="158" on="0"/>
        <pt x="417" y="177" on="0"/>
        <pt x="368" y="197" on="0"/>
        <pt x="334" y="206" on="0"/>
        <pt x="296" y="216" on="1"/>
        <pt x="263" y="224" on="0"/>
        <pt x="226" y="235" on="0"/>
        <pt x="166" y="256" on="0"/>
        <pt x="131" y="277" on="0"/>
        <pt x="88" y="311" on="0"/>
        <pt x="65" y="350" on="0"/>
        <pt x="49" y="405" on="0"/>
        <pt x="49" y="438" on="1"/>
        <pt x="49" y="546" on="0"/>
        <pt x="201" y="670" on="0"/>
        <pt x="325" y="670" on="1"/>
        <pt x="453" y="670" on="0"/>
        <pt x="591" y="538" on="0"/>
        <pt x="591" y="419" on="1"/>
        <pt x="448" y="419" on="1"/>
        <pt x="448" y="545" on="0"/>
        <pt x="329" y="545" on="1"/>
        <pt x="272" y="545" on="0"/>
        <pt x="210" y="493" on="0"/>
        <pt x="210" y="447" on="1"/>
        <pt x="210" y="426" on="0"/>
        <pt x="226" y="394" on="0"/>
        <pt x="247" y="373" on="0"/>
        <pt x="294" y="353" on="0"/>
        <pt x="332" y="341" on="0"/>
        <pt x="370" y="331" on="1"/>
        <pt x="403" y="322" on="0"/>
        <pt x="440" y="311" on="0"/>
        <pt x="496" y="291" on="0"/>
        <pt x="528" y="271" on="0"/>
        <pt x="567" y="239" on="0"/>
        <pt x="588" y="203" on="0"/>
        <pt x="602" y="152" on="0"/>
        <pt x="602" y="121" on="1"/>
        <pt x="602" y="12" on="0"/>
        <pt x="445" y="-110" on="0"/>
      </contour>
    </TTGlyph>
    <TTGlyph name="Sacute" xMin="43" yMin="-12" xMax="553" yMax="884">
      <contour>
        <pt x="286" y="884" on="1"/>
        <pt x="424" y="884" on="1"/>
        <pt x="360" y="726" on="1"/>
        <pt x="231" y="726" on="1"/>
      </contour>
      <contour>
        <pt x="299" y="-12" on="1"/>
        <pt x="179" y="-12" on="0"/>
        <pt x="43" y="91" on="0"/>
        <pt x="43" y="169" on="1"/>
        <pt x="43" y="195" on="0"/>
        <pt x="47" y="218" on="1"/>
        <pt x="172" y="218" on="1"/>
        <pt x="171" y="210" on="0"/>
        <pt x="171" y="183" on="1"/>
        <pt x="171" y="152" on="0"/>
        <pt x="236" y="99" on="0"/>
        <pt x="294" y="99" on="1"/>
        <pt x="344" y="99" on="0"/>
        <pt x="402" y="142" on="0"/>
        <pt x="402" y="176" on="1"/>
        <pt x="402" y="197" on="0"/>
        <pt x="380" y="229" on="0"/>
        <pt x="334" y="251" on="0"/>
        <pt x="301" y="263" on="0"/>
        <pt x="271" y="271" on="1"/>
        <pt x="230" y="282" on="0"/>
        <pt x="175" y="301" on="0"/>
        <pt x="112" y="334" on="0"/>
        <pt x="75" y="373" on="0"/>
        <pt x="50" y="431" on="0"/>
        <pt x="50" y="468" on="1"/>
        <pt x="50" y="562" on="0"/>
        <pt x="187" y="671" on="0"/>
        <pt x="296" y="671" on="1"/>
        <pt x="406" y="671" on="0"/>
        <pt x="534" y="554" on="0"/>
        <pt x="534" y="449" on="1"/>
        <pt x="400" y="449" on="1"/>
        <pt x="400" y="502" on="0"/>
        <pt x="347" y="557" on="0"/>
        <pt x="297" y="557" on="1"/>
        <pt x="252" y="557" on="0"/>
        <pt x="201" y="516" on="0"/>
        <pt x="201" y="479" on="1"/>
        <pt x="201" y="462" on="0"/>
        <pt x="217" y="436" on="0"/>
        <pt x="237" y="418" on="0"/>
        <pt x="279" y="400" on="0"/>
        <pt x="309" y="391" on="0"/>
        <pt x="338" y="383" on="1"/>
        <pt x="441" y="358" on="0"/>
        <pt x="553" y="267" on="0"/>
        <pt x="553" y="183" on="1"/>
        <pt x="553" y="86" on="0"/>
        <pt x="411" y="-12" on="0"/>
      </contour>
    </TTGlyph>
    <TTGlyph name="Sacute.swsh" xMin="38" yMin="-110" xMax="602" yMax="884">
      <contour>
        <pt x="313" y="884" on="1"/>
        <pt x="451" y="884" on="1"/>
        <pt x="387" y="726" on="1"/>
        <pt x="258" y="726" on="1"/>
      </contour>
      <contour>
        <pt x="313" y="-110" on="1"/>
        <pt x="184" y="-110" on="0"/>
        <pt x="38" y="3" on="0"/>
        <pt x="38" y="98" on="1"/>
        <pt x="38" y="129" on="0"/>
        <pt x="42" y="155" on="1"/>
        <pt x="181" y="155" on="1"/>
        <pt x="176" y="130" on="0"/>
        <pt x="176" y="116" on="1"/>
        <pt x="176" y="15" on="0"/>
        <pt x="316" y="15" on="1"/>
        <pt x="453" y="15" on="0"/>
        <pt x="453" y="108" on="1"/>
        <pt x="453" y="128" on="0"/>
        <pt x="437" y="158" on="0"/>
        <pt x="417" y="177" on="0"/>
        <pt x="368" y="197" on="0"/>
        <pt x="334" y="206" on="0"/>
        <pt x="296" y="216" on="1"/>
        <pt x="263" y="224" on="0"/>
        <pt x="226" y="235" on="0"/>
        <pt x="166" y="256" on="0"/>
        <pt x="131" y="277" on="0"/>
        <pt x="88" y="311" on="0"/>
        <pt x="65" y="350" on="0"/>
        <pt x="49" y="405" on="0"/>
        <pt x="49" y="438" on="1"/>
        <pt x="49" y="546" on="0"/>
        <pt x="201" y="670" on="0"/>
        <pt x="325" y="670" on="1"/>
        <pt x="453" y="670" on="0"/>
        <pt x="591" y="538" on="0"/>
        <pt x="591" y="419" on="1"/>
        <pt x="448" y="419" on="1"/>
        <pt x="448" y="545" on="0"/>
        <pt x="329" y="545" on="1"/>
        <pt x="272" y="545" on="0"/>
        <pt x="210" y="493" on="0"/>
        <pt x="210" y="447" on="1"/>
        <pt x="210" y="426" on="0"/>
        <pt x="226" y="394" on="0"/>
        <pt x="247" y="373" on="0"/>
        <pt x="294" y="353" on="0"/>
        <pt x="332" y="341" on="0"/>
        <pt x="370" y="331" on="1"/>
        <pt x="403" y="322" on="0"/>
        <pt x="440" y="311" on="0"/>
        <pt x="496" y="291" on="0"/>
        <pt x="528" y="271" on="0"/>
        <pt x="567" y="239" on="0"/>
        <pt x="588" y="203" on="0"/>
        <pt x="602" y="152" on="0"/>
        <pt x="602" y="121" on="1"/>
        <pt x="602" y="12" on="0"/>
        <pt x="445" y="-110" on="0"/>
      </contour>
    </TTGlyph>
    <TTGlyph name="Scaron" xMin="43" yMin="-12" xMax="553" yMax="891">
      <contour>
        <pt x="481" y="891" on="1"/>
        <pt x="370" y="724" on="1"/>
        <pt x="218" y="724" on="1"/>
        <pt x="107" y="891" on="1"/>
        <pt x="229" y="891" on="1"/>
        <pt x="294" y="799" on="1"/>
        <pt x="359" y="891" on="1"/>
      </contour>
      <contour>
        <pt x="299" y="-12" on="1"/>
        <pt x="179" y="-12" on="0"/>
        <pt x="43" y="91" on="0"/>
        <pt x="43" y="169" on="1"/>
        <pt x="43" y="195" on="0"/>
        <pt x="47" y="218" on="1"/>
        <pt x="172" y="218" on="1"/>
        <pt x="171" y="210" on="0"/>
        <pt x="171" y="183" on="1"/>
        <pt x="171" y="152" on="0"/>
        <pt x="236" y="99" on="0"/>
        <pt x="294" y="99" on="1"/>
        <pt x="344" y="99" on="0"/>
        <pt x="402" y="142" on="0"/>
        <pt x="402" y="176" on="1"/>
        <pt x="402" y="197" on="0"/>
        <pt x="380" y="229" on="0"/>
        <pt x="334" y="251" on="0"/>
        <pt x="301" y="263" on="0"/>
        <pt x="271" y="271" on="1"/>
        <pt x="230" y="282" on="0"/>
        <pt x="175" y="301" on="0"/>
        <pt x="112" y="334" on="0"/>
        <pt x="75" y="373" on="0"/>
        <pt x="50" y="431" on="0"/>
        <pt x="50" y="468" on="1"/>
        <pt x="50" y="562" on="0"/>
        <pt x="187" y="671" on="0"/>
        <pt x="296" y="671" on="1"/>
        <pt x="406" y="671" on="0"/>
        <pt x="534" y="554" on="0"/>
        <pt x="534" y="449" on="1"/>
        <pt x="400" y="449" on="1"/>
        <pt x="400" y="502" on="0"/>
        <pt x="347" y="557" on="0"/>
        <pt x="297" y="557" on="1"/>
        <pt x="252" y="557" on="0"/>
        <pt x="201" y="516" on="0"/>
        <pt x="201" y="479" on="1"/>
        <pt x="201" y="462" on="0"/>
        <pt x="217" y="436" on="0"/>
        <pt x="237" y="418" on="0"/>
        <pt x="279" y="400" on="0"/>
        <pt x="309" y="391" on="0"/>
        <pt x="338" y="383" on="1"/>
        <pt x="441" y="358" on="0"/>
        <pt x="553" y="267" on="0"/>
        <pt x="553" y="183" on="1"/>
        <pt x="553" y="86" on="0"/>
        <pt x="411" y="-12" on="0"/>
      </contour>
    </TTGlyph>
    <TTGlyph name="Scaron.swsh" xMin="38" yMin="-110" xMax="602" yMax="891">
      <contour>
        <pt x="508" y="891" on="1"/>
        <pt x="397" y="724" on="1"/>
        <pt x="245" y="724" on="1"/>
        <pt x="134" y="891" on="1"/>
        <pt x="256" y="891" on="1"/>
        <pt x="321" y="799" on="1"/>
        <pt x="386" y="891" on="1"/>
      </contour>
      <contour>
        <pt x="313" y="-110" on="1"/>
        <pt x="184" y="-110" on="0"/>
        <pt x="38" y="3" on="0"/>
        <pt x="38" y="98" on="1"/>
        <pt x="38" y="129" on="0"/>
        <pt x="42" y="155" on="1"/>
        <pt x="181" y="155" on="1"/>
        <pt x="176" y="130" on="0"/>
        <pt x="176" y="116" on="1"/>
        <pt x="176" y="15" on="0"/>
        <pt x="316" y="15" on="1"/>
        <pt x="453" y="15" on="0"/>
        <pt x="453" y="108" on="1"/>
        <pt x="453" y="128" on="0"/>
        <pt x="437" y="158" on="0"/>
        <pt x="417" y="177" on="0"/>
        <pt x="368" y="197" on="0"/>
        <pt x="334" y="206" on="0"/>
        <pt x="296" y="216" on="1"/>
        <pt x="263" y="224" on="0"/>
        <pt x="226" y="235" on="0"/>
        <pt x="166" y="256" on="0"/>
        <pt x="131" y="277" on="0"/>
        <pt x="88" y="311" on="0"/>
        <pt x="65" y="350" on="0"/>
        <pt x="49" y="405" on="0"/>
        <pt x="49" y="438" on="1"/>
        <pt x="49" y="546" on="0"/>
        <pt x="201" y="670" on="0"/>
        <pt x="325" y="670" on="1"/>
        <pt x="453" y="670" on="0"/>
        <pt x="591" y="538" on="0"/>
        <pt x="591" y="419" on="1"/>
        <pt x="448" y="419" on="1"/>
        <pt x="448" y="545" on="0"/>
        <pt x="329" y="545" on="1"/>
        <pt x="272" y="545" on="0"/>
        <pt x="210" y="493" on="0"/>
        <pt x="210" y="447" on="1"/>
        <pt x="210" y="426" on="0"/>
        <pt x="226" y="394" on="0"/>
        <pt x="247" y="373" on="0"/>
        <pt x="294" y="353" on="0"/>
        <pt x="332" y="341" on="0"/>
        <pt x="370" y="331" on="1"/>
        <pt x="403" y="322" on="0"/>
        <pt x="440" y="311" on="0"/>
        <pt x="496" y="291" on="0"/>
        <pt x="528" y="271" on="0"/>
        <pt x="567" y="239" on="0"/>
        <pt x="588" y="203" on="0"/>
        <pt x="602" y="152" on="0"/>
        <pt x="602" y="121" on="1"/>
        <pt x="602" y="12" on="0"/>
        <pt x="445" y="-110" on="0"/>
      </contour>
    </TTGlyph>
    <TTGlyph name="Scedilla.sc" xMin="26" yMin="-215" xMax="543" yMax="568">
      <contour>
        <pt x="543" y="173" on="1"/>
        <pt x="543" y="103" on="0"/>
        <pt x="451" y="13" on="0"/>
        <pt x="368" y="-2" on="1"/>
        <pt x="424" y="-41" on="0"/>
        <pt x="424" y="-99" on="1"/>
        <pt x="424" y="-154" on="0"/>
        <pt x="348" y="-215" on="0"/>
        <pt x="286" y="-215" on="1"/>
        <pt x="206" y="-215" on="0"/>
        <pt x="164" y="-176" on="1"/>
        <pt x="201" y="-101" on="1"/>
        <pt x="230" y="-130" on="0"/>
        <pt x="273" y="-130" on="1"/>
        <pt x="297" y="-130" on="0"/>
        <pt x="328" y="-103" on="0"/>
        <pt x="328" y="-79" on="1"/>
        <pt x="328" y="-56" on="0"/>
        <pt x="298" y="-23" on="0"/>
        <pt x="259" y="-9" on="1"/>
        <pt x="111" y="-2" on="0"/>
        <pt x="26" y="85" on="1"/>
        <pt x="98" y="193" on="1"/>
        <pt x="135" y="148" on="0"/>
        <pt x="222" y="109" on="0"/>
        <pt x="284" y="109" on="1"/>
        <pt x="386" y="109" on="0"/>
        <pt x="386" y="156" on="1"/>
        <pt x="386" y="178" on="0"/>
        <pt x="334" y="204" on="0"/>
        <pt x="257" y="212" on="0"/>
        <pt x="167" y="231" on="0"/>
        <pt x="90" y="259" on="0"/>
        <pt x="38" y="329" on="0"/>
        <pt x="38" y="381" on="1"/>
        <pt x="38" y="469" on="0"/>
        <pt x="174" y="568" on="0"/>
        <pt x="298" y="568" on="1"/>
        <pt x="449" y="568" on="0"/>
        <pt x="542" y="474" on="1"/>
        <pt x="465" y="370" on="1"/>
        <pt x="431" y="412" on="0"/>
        <pt x="354" y="451" on="0"/>
        <pt x="297" y="451" on="1"/>
        <pt x="247" y="451" on="0"/>
        <pt x="195" y="423" on="0"/>
        <pt x="195" y="400" on="1"/>
        <pt x="195" y="378" on="0"/>
        <pt x="247" y="353" on="0"/>
        <pt x="324" y="344" on="0"/>
        <pt x="414" y="323" on="0"/>
        <pt x="491" y="294" on="0"/>
        <pt x="543" y="225" on="0"/>
      </contour>
    </TTGlyph>
    <TTGlyph name="Scedilla.swsh" xMin="38" yMin="-315" xMax="602" yMax="670">
      <contour>
        <pt x="602" y="121" on="1"/>
        <pt x="602" y="25" on="0"/>
        <pt x="479" y="-93" on="0"/>
        <pt x="373" y="-106" on="1"/>
        <pt x="424" y="-144" on="0"/>
        <pt x="424" y="-254" on="0"/>
        <pt x="348" y="-315" on="0"/>
        <pt x="286" y="-315" on="1"/>
        <pt x="206" y="-315" on="0"/>
        <pt x="164" y="-276" on="1"/>
        <pt x="201" y="-201" on="1"/>
        <pt x="230" y="-230" on="0"/>
        <pt x="273" y="-230" on="1"/>
        <pt x="297" y="-230" on="0"/>
        <pt x="328" y="-203" on="0"/>
        <pt x="328" y="-179" on="1"/>
        <pt x="328" y="-154" on="0"/>
        <pt x="293" y="-120" on="0"/>
        <pt x="248" y="-106" on="1"/>
        <pt x="148" y="-92" on="0"/>
        <pt x="38" y="17" on="0"/>
        <pt x="38" y="98" on="1"/>
        <pt x="38" y="129" on="0"/>
        <pt x="42" y="155" on="1"/>
        <pt x="181" y="155" on="1"/>
        <pt x="176" y="130" on="0"/>
        <pt x="176" y="116" on="1"/>
        <pt x="176" y="15" on="0"/>
        <pt x="316" y="15" on="1"/>
        <pt x="453" y="15" on="0"/>
        <pt x="453" y="108" on="1"/>
        <pt x="453" y="128" on="0"/>
        <pt x="437" y="158" on="0"/>
        <pt x="417" y="177" on="0"/>
        <pt x="368" y="197" on="0"/>
        <pt x="334" y="206" on="0"/>
        <pt x="296" y="216" on="1"/>
        <pt x="263" y="224" on="0"/>
        <pt x="226" y="235" on="0"/>
        <pt x="166" y="256" on="0"/>
        <pt x="131" y="277" on="0"/>
        <pt x="88" y="311" on="0"/>
        <pt x="65" y="350" on="0"/>
        <pt x="49" y="405" on="0"/>
        <pt x="49" y="438" on="1"/>
        <pt x="49" y="546" on="0"/>
        <pt x="201" y="670" on="0"/>
        <pt x="325" y="670" on="1"/>
        <pt x="453" y="670" on="0"/>
        <pt x="591" y="538" on="0"/>
        <pt x="591" y="419" on="1"/>
        <pt x="448" y="419" on="1"/>
        <pt x="448" y="545" on="0"/>
        <pt x="329" y="545" on="1"/>
        <pt x="272" y="545" on="0"/>
        <pt x="210" y="493" on="0"/>
        <pt x="210" y="447" on="1"/>
        <pt x="210" y="426" on="0"/>
        <pt x="226" y="394" on="0"/>
        <pt x="247" y="373" on="0"/>
        <pt x="294" y="353" on="0"/>
        <pt x="332" y="341" on="0"/>
        <pt x="370" y="331" on="1"/>
        <pt x="403" y="322" on="0"/>
        <pt x="440" y="311" on="0"/>
        <pt x="496" y="291" on="0"/>
        <pt x="528" y="271" on="0"/>
        <pt x="567" y="239" on="0"/>
        <pt x="588" y="203" on="0"/>
        <pt x="602" y="152" on="0"/>
      </contour>
    </TTGlyph>
    <TTGlyph name="Scommaaccent.sc" xMin="26" yMin="-240" xMax="543" yMax="568">
      <contour>
        <pt x="298" y="568" on="1"/>
        <pt x="449" y="568" on="0"/>
        <pt x="542" y="474" on="1"/>
        <pt x="465" y="370" on="1"/>
        <pt x="431" y="412" on="0"/>
        <pt x="354" y="451" on="0"/>
        <pt x="297" y="451" on="1"/>
        <pt x="247" y="451" on="0"/>
        <pt x="195" y="423" on="0"/>
        <pt x="195" y="400" on="1"/>
        <pt x="195" y="378" on="0"/>
        <pt x="247" y="353" on="0"/>
        <pt x="324" y="344" on="0"/>
        <pt x="414" y="323" on="0"/>
        <pt x="491" y="294" on="0"/>
        <pt x="543" y="225" on="0"/>
        <pt x="543" y="173" on="1"/>
        <pt x="543" y="87" on="0"/>
        <pt x="404" y="-9" on="0"/>
        <pt x="282" y="-9" on="1"/>
        <pt x="118" y="-9" on="0"/>
        <pt x="26" y="85" on="1"/>
        <pt x="98" y="193" on="1"/>
        <pt x="135" y="148" on="0"/>
        <pt x="222" y="109" on="0"/>
        <pt x="284" y="109" on="1"/>
        <pt x="386" y="109" on="0"/>
        <pt x="386" y="156" on="1"/>
        <pt x="386" y="178" on="0"/>
        <pt x="334" y="204" on="0"/>
        <pt x="257" y="212" on="0"/>
        <pt x="167" y="231" on="0"/>
        <pt x="90" y="259" on="0"/>
        <pt x="38" y="329" on="0"/>
        <pt x="38" y="381" on="1"/>
        <pt x="38" y="469" on="0"/>
        <pt x="174" y="568" on="0"/>
      </contour>
      <contour>
        <pt x="371" y="-63" on="1"/>
        <pt x="307" y="-240" on="1"/>
        <pt x="192" y="-240" on="1"/>
        <pt x="258" y="-63" on="1"/>
      </contour>
    </TTGlyph>
    <TTGlyph name="Scommaaccent.swsh" xMin="38" yMin="-340" xMax="602" yMax="670">
      <contour>
        <pt x="313" y="-110" on="1"/>
        <pt x="184" y="-110" on="0"/>
        <pt x="38" y="3" on="0"/>
        <pt x="38" y="98" on="1"/>
        <pt x="38" y="129" on="0"/>
        <pt x="42" y="155" on="1"/>
        <pt x="181" y="155" on="1"/>
        <pt x="176" y="130" on="0"/>
        <pt x="176" y="116" on="1"/>
        <pt x="176" y="15" on="0"/>
        <pt x="316" y="15" on="1"/>
        <pt x="453" y="15" on="0"/>
        <pt x="453" y="108" on="1"/>
        <pt x="453" y="128" on="0"/>
        <pt x="437" y="158" on="0"/>
        <pt x="417" y="177" on="0"/>
        <pt x="368" y="197" on="0"/>
        <pt x="334" y="206" on="0"/>
        <pt x="296" y="216" on="1"/>
        <pt x="263" y="224" on="0"/>
        <pt x="226" y="235" on="0"/>
        <pt x="166" y="256" on="0"/>
        <pt x="131" y="277" on="0"/>
        <pt x="88" y="311" on="0"/>
        <pt x="65" y="350" on="0"/>
        <pt x="49" y="405" on="0"/>
        <pt x="49" y="438" on="1"/>
        <pt x="49" y="546" on="0"/>
        <pt x="201" y="670" on="0"/>
        <pt x="325" y="670" on="1"/>
        <pt x="453" y="670" on="0"/>
        <pt x="591" y="538" on="0"/>
        <pt x="591" y="419" on="1"/>
        <pt x="448" y="419" on="1"/>
        <pt x="448" y="545" on="0"/>
        <pt x="329" y="545" on="1"/>
        <pt x="272" y="545" on="0"/>
        <pt x="210" y="493" on="0"/>
        <pt x="210" y="447" on="1"/>
        <pt x="210" y="426" on="0"/>
        <pt x="226" y="394" on="0"/>
        <pt x="247" y="373" on="0"/>
        <pt x="294" y="353" on="0"/>
        <pt x="332" y="341" on="0"/>
        <pt x="370" y="331" on="1"/>
        <pt x="403" y="322" on="0"/>
        <pt x="440" y="311" on="0"/>
        <pt x="496" y="291" on="0"/>
        <pt x="528" y="271" on="0"/>
        <pt x="567" y="239" on="0"/>
        <pt x="588" y="203" on="0"/>
        <pt x="602" y="152" on="0"/>
        <pt x="602" y="121" on="1"/>
        <pt x="602" y="12" on="0"/>
        <pt x="445" y="-110" on="0"/>
      </contour>
      <contour>
        <pt x="375" y="-163" on="1"/>
        <pt x="311" y="-340" on="1"/>
        <pt x="196" y="-340" on="1"/>
        <pt x="262" y="-163" on="1"/>
      </contour>
    </TTGlyph>
    <TTGlyph name="T" xMin="25" yMin="0" xMax="618" yMax="660">
      <contour>
        <pt x="618" y="660" on="1"/>
        <pt x="618" y="523" on="1"/>
        <pt x="400" y="523" on="1"/>
        <pt x="400" y="0" on="1"/>
        <pt x="244" y="0" on="1"/>
        <pt x="244" y="523" on="1"/>
        <pt x="25" y="523" on="1"/>
        <pt x="25" y="660" on="1"/>
        <pt x="400" y="660" on="1"/>
      </contour>
    </TTGlyph>
    <TTGlyph name="T.swsh" xMin="5" yMin="0" xMax="746" yMax="660">
      <contour>
        <pt x="746" y="660" on="1"/>
        <pt x="746" y="537" on="1"/>
        <pt x="528" y="537" on="1"/>
        <pt x="528" y="0" on="1"/>
        <pt x="372" y="0" on="1"/>
        <pt x="372" y="537" on="1"/>
        <pt x="257" y="537" on="1"/>
        <pt x="147" y="537" on="0"/>
        <pt x="147" y="456" on="1"/>
        <pt x="147" y="419" on="0"/>
        <pt x="196" y="369" on="0"/>
        <pt x="240" y="364" on="1"/>
        <pt x="193" y="257" on="1"/>
        <pt x="111" y="264" on="0"/>
        <pt x="5" y="374" on="0"/>
        <pt x="5" y="459" on="1"/>
        <pt x="5" y="555" on="0"/>
        <pt x="129" y="660" on="0"/>
        <pt x="243" y="660" on="1"/>
        <pt x="372" y="660" on="1"/>
        <pt x="528" y="660" on="1"/>
      </contour>
    </TTGlyph>
</ttFont>
